<svg id="Layer_1" viewBox="0 0 512 512" xmlns="http://www.w3.org/2000/svg" data-name="Layer 1"><g fill-rule="evenodd"><path d="m19.221 272.593c32.494-82.967 77.542-128.732 155.648-129.643 78.105.911 123.153 46.676 155.648 129.643 14.964 38.208 10.873 57.207-20.859 64.041-31.715 6.832-83.252 9.678-134.789 9.678s-103.073-2.846-134.789-9.678c-31.731-6.834-35.822-25.833-20.858-64.041z" fill="#5d689e"/><path d="m19.221 272.593c30.566-78.045 72.245-123.166 142.095-129.004 70.021 5.945 111.772 52.697 142.38 133.648 12.556 33.208 11.692 52.405-7.656 61.906-31.767 5.026-76.468 7.168-121.172 7.168-51.537 0-103.073-2.846-134.789-9.678-31.731-6.834-35.822-25.833-20.858-64.041z" fill="#7986bf"/><path d="m179.122 332.505c-20.655-49.373-60.729-167.005-106.616-194.758 66.418-117.271 169.019-69.737 204.724 0-45.887 27.753-77.454 145.385-98.109 194.758z" fill="#323e66"/><path d="m174.868 192.499c-68.168-4.421-86.17-139.656 0-139.656s68.168 135.235 0 139.656z" fill="#fdb0a0"/><path d="m167.947 191.558c-60.572-12.371-75.4-131.548 0-138.392 75.401 6.845 60.572 126.021 0 138.392z" fill="#ffcec0"/><path d="m119.326 94.744c6.137-23.47 23.736-41.901 55.542-41.901s49.405 18.431 55.542 41.901c-15.583 7.426-34.777 11.811-55.542 11.811s-39.959-4.386-55.542-11.811z" fill="#ff6161"/><path d="m72.506 137.747c62.44-71.728 142.286-71.728 204.725 0-28.069-169.263-176.657-169.263-204.725 0z" fill="#909cd1"/><path d="m174.869 83.951c35.571 0 71.143 17.932 102.362 53.796-14.034-84.631-58.198-126.947-102.362-126.947z" fill="#7986bf"/></g><rect fill="#2dcffc" height="137.081" rx="5.087" width="197.869" x="75.934" y="228.246"/><rect fill="#66deff" height="137.081" rx="5.087" width="182.808" x="75.934" y="228.246"/><g><path d="m233.809 386.737h70.966v30.607h-70.966z" fill="#909cd1" transform="matrix(.707 -.707 .707 .707 -205.413 308.176)"/><path d="m240.931 403.931h70.966v10.463h-70.966z" fill="#7986bf" transform="matrix(.707 -.707 .707 .707 -208.362 315.295)"/><circle cx="371.455" cy="299.877" fill="#2a92fa" r="129.677" transform="matrix(.707 -.707 .707 .707 -103.248 350.49)"/><g fill-rule="evenodd"><path d="m368.269 170.241c-70.146 1.691-126.49 59.083-126.49 129.636s56.344 127.945 126.49 129.636c70.146-1.691 126.49-59.083 126.49-129.636s-56.345-127.944-126.49-129.636zm-3.186 30.567c1.066 0 2.127.023 3.186.056 1.058-.033 2.119-.056 3.186-.056 54.714 0 99.069 44.355 99.069 99.069s-44.355 99.07-99.069 99.07c-1.067 0-2.128-.023-3.186-.057-1.059.034-2.12.057-3.186.057-54.714 0-99.069-44.355-99.069-99.07s44.355-99.069 99.069-99.069z" fill="#4eb1fc"/><path d="m176.534 463.756 59.147-59.148c4.124-4.124 10.852-4.124 14.976 0l16.066 16.066c4.124 4.124 4.124 10.852 0 14.976l-59.148 59.148c-8.537 8.537-22.505 8.537-31.042 0s-8.537-22.505 0-31.042z" fill="#495586"/><path d="m262.114 416.064 4.61 4.611c4.124 4.124 4.124 10.852 0 14.976l-59.148 59.148c-7.361 7.362-18.762 8.374-27.235 3.039l81.773-81.773z" fill="#323e66"/></g><circle cx="371.455" cy="299.877" fill="#f3f3ff" r="99.07" transform="matrix(.707 -.707 .707 .707 -103.248 350.49)"/></g><g fill-rule="evenodd"><path d="m380.321 16.174 55.665 96.415c1.89 3.274 1.89 7.022 0 10.297s-5.137 5.149-8.917 5.149h-111.33c-3.781 0-7.027-1.874-8.917-5.149-1.89-3.274-1.89-7.022 0-10.297l55.665-96.415c1.89-3.274 5.136-5.148 8.917-5.148s7.026 1.874 8.917 5.148z" fill="#e8333c"/><path d="m410.652 128.033h-94.913c-3.781 0-7.027-1.874-8.917-5.148s-1.89-7.022 0-10.297l55.665-96.415c.218-.378.455-.738.709-1.078.253.34.49.7.709 1.078l55.665 96.415c1.89 3.274 1.89 7.022 0 10.297-1.89 3.274-5.137 5.148-8.917 5.148z" fill="#ff6161"/><path d="m364.44 47.627c0-3.846 3.118-6.964 6.964-6.964s6.964 3.118 6.964 6.964v37.449c0 3.846-3.118 6.964-6.964 6.964s-6.964-3.118-6.964-6.964zm0 56.483c0-3.846 3.118-6.964 6.964-6.964s6.964 3.118 6.964 6.964v.818c0 3.846-3.118 6.964-6.964 6.964s-6.964-3.118-6.964-6.964z" fill="#f3f3ff"/></g><g><path d="m371.404 271.542c28.389 0 53.883 12.382 71.387 32.035-17.504 19.654-42.998 32.036-71.387 32.036s-53.883-12.382-71.387-32.036c17.504-19.653 42.998-32.035 71.387-32.035z" fill="#495586" fill-rule="evenodd"/><path d="m371.404 271.542c23.688 0 45.358 8.622 62.055 22.894-18.285 19.471-45.185 31.518-71.994 31.518-23.401 0-44.833-8.414-61.446-22.378 17.504-19.653 42.997-32.034 71.386-32.034z" fill="#5d689e" fill-rule="evenodd"/><circle cx="371.405" cy="295.266" fill="#b6dbff" r="23.199"/><g fill-rule="evenodd"><path d="m378.404 253.016c0 3.866-3.134 7-7 7s-7-3.134-7-7v-12.5c0-3.866 3.134-7 7-7s7 3.134 7 7zm-36.537 1.088c1.933 3.337.794 7.61-2.543 9.543s-7.61.794-9.543-2.543l-5.205-9.014c-1.933-3.337-.794-7.61 2.543-9.543s7.61-.794 9.543 2.543zm71.16 6.973c-1.918 3.337-6.178 4.488-9.516 2.57-3.337-1.918-4.488-6.178-2.57-9.516l5.204-9.014c1.918-3.337 6.178-4.488 9.516-2.57 3.337 1.918 4.488 6.178 2.57 9.516z" fill="#5d689e"/><path d="m364.891 294.752c4.853 0 8.811-3.958 8.811-8.811s-3.958-8.811-8.811-8.811-8.811 3.958-8.811 8.811 3.958 8.811 8.811 8.811z" fill="#f3f3ff"/></g></g></svg>