<?xml version="1.0" encoding="UTF-8"?>
<svg width="110px" height="102px" viewBox="0 0 110 102" version="1.1" xmlns="http://www.w3.org/2000/svg" xmlns:xlink="http://www.w3.org/1999/xlink">
    <title>logo_glyph</title>
    <g id="Page-1" stroke="none" stroke-width="1" fill="none" fill-rule="evenodd">
        <g id="ISV" transform="translate(-8, -99)" fill="#FFFFFF" fill-rule="nonzero">
            <g id="logo_glyph" transform="translate(8.8392, 99.2)">
                <path d="M38.060825,2.7 C35.660825,1.3 32.860825,0.5 29.860825,0.5 C20.760825,0.5 13.360825,7.9 13.360825,17 C13.360825,26.1 20.760825,33.5 29.860825,33.5 C32.860825,33.5 35.660825,32.7 38.060825,31.3 C43.060825,28.5 46.360825,23.1 46.360825,17 C46.360825,10.8 43.060825,5.5 38.060825,2.7 Z" id="Path"></path>
                <path d="M105.360825,34.3 L102.160825,34.3 C100.460825,34.3 99.060825,32.9 99.060825,31.2 L99.060825,3.1 C99.060825,1.4 97.660825,0 95.960825,0 L59.660825,0 C57.360825,0 55.860825,2.4 56.860825,4.5 C58.560825,8.3 59.560825,12.5 59.560825,17 C59.560825,21.7 58.460825,26.2 56.560825,30.1 C55.560825,32.2 57.060825,34.6 59.360825,34.6 L70.560825,34.6 C72.360825,34.6 73.860825,36.2 73.560825,38 C71.860825,54.1 58.160825,66.7 41.560825,66.7 L34.560825,66.7 C31.860825,66.7 29.560825,68.9 29.560825,71.7 L29.560825,96.3 C29.560825,99 31.760825,101.3 34.560825,101.3 L41.560825,101.3 C77.360825,101.3 106.760825,73 108.460825,37.5 C108.560825,35.7 107.160825,34.3 105.360825,34.3 Z" id="Path"></path>
                <path d="M25.060825,45.3 L25.360825,45 C27.060825,43.3 26.160825,40.4 23.860825,39.9 C19.660825,39 15.660825,36.9 12.360825,33.6 C9.06082501,30.3 6.96082501,26.3 5.96082501,22.1 C5.46082501,19.7 2.56082501,18.9 0.860825007,20.6 L0.860825007,20.6 C0.160825007,21.3 -0.139174993,22.2 0.0608250072,23.2 C1.16082501,28.7 3.96082501,34 8.26082501,38.3 C12.260825,42.3 17.260825,45 22.360825,46.2 C23.360825,46.3 24.360825,46 25.060825,45.3 Z" id="Path"></path>
            </g>
        </g>
    </g>
</svg>