<?xml version="1.0" encoding="UTF-8"?>
<svg id="Layer_1" data-name="Layer 1" xmlns="http://www.w3.org/2000/svg" xmlns:xlink="http://www.w3.org/1999/xlink" viewBox="0 0 219 66">
  <defs>
    <style>
      .cls-1 {
        fill: url(#Unnamed_Pattern_4);
      }

      .cls-1, .cls-2, .cls-3, .cls-4, .cls-5, .cls-6, .cls-7, .cls-8, .cls-9, .cls-10, .cls-11, .cls-12 {
        stroke-width: 0px;
      }

      .cls-2 {
        fill: url(#Unnamed_Pattern_9);
      }

      .cls-3 {
        fill: url(#Unnamed_Pattern_3);
      }

      .cls-4 {
        fill: url(#Unnamed_Pattern_7);
      }

      .cls-5 {
        fill: url(#Unnamed_Pattern_6);
      }

      .cls-6 {
        fill: #c7d634;
      }

      .cls-7 {
        fill: none;
      }

      .cls-8 {
        fill: url(#Unnamed_Pattern_5);
      }

      .cls-9 {
        fill: url(#Unnamed_Pattern_2);
      }

      .cls-10 {
        fill: #2580b3;
      }

      .cls-11 {
        fill: #fff;
      }

      .cls-12 {
        fill: url(#Unnamed_Pattern_8);
      }
    </style>
    <pattern id="Unnamed_Pattern_2" data-name="Unnamed Pattern 2" x="0" y="0" width="121.25700378418" height="121.25700378418" patternTransform="translate(-5493.14018118382 -6057.97210088372) scale(.185387998819 -.185387998819)" patternUnits="userSpaceOnUse" viewBox="0 0 121.25700378418 121.25700378418">
      <g>
        <rect class="cls-7" width="121.25700378418" height="121.25700378418"/>
        <rect class="cls-10" width="121.25700378418" height="121.25700378418"/>
      </g>
    </pattern>
    <pattern id="Unnamed_Pattern_3" data-name="Unnamed Pattern 3" x="0" y="0" width="121.25700378418" height="121.25700378418" patternTransform="translate(-5493.14018118382 -6057.97210088372) scale(.185387998819 -.185387998819)" patternUnits="userSpaceOnUse" viewBox="0 0 121.25700378418 121.25700378418">
      <g>
        <rect class="cls-7" width="121.25700378418" height="121.25700378418"/>
        <rect class="cls-10" width="121.25700378418" height="121.25700378418"/>
      </g>
    </pattern>
    <pattern id="Unnamed_Pattern_4" data-name="Unnamed Pattern 4" x="0" y="0" width="121.25700378418" height="121.25700378418" patternTransform="translate(-5493.14018118382 -6057.97210088372) scale(.185387998819 -.185387998819)" patternUnits="userSpaceOnUse" viewBox="0 0 121.25700378418 121.25700378418">
      <g>
        <rect class="cls-7" width="121.25700378418" height="121.25700378418"/>
        <rect class="cls-10" width="121.25700378418" height="121.25700378418"/>
      </g>
    </pattern>
    <pattern id="Unnamed_Pattern_5" data-name="Unnamed Pattern 5" x="0" y="0" width="121.25700378418" height="121.25700378418" patternTransform="translate(-5493.14018118382 -6057.97210088372) scale(.185387998819 -.185387998819)" patternUnits="userSpaceOnUse" viewBox="0 0 121.25700378418 121.25700378418">
      <g>
        <rect class="cls-7" width="121.25700378418" height="121.25700378418"/>
        <rect class="cls-10" width="121.25700378418" height="121.25700378418"/>
      </g>
    </pattern>
    <pattern id="Unnamed_Pattern_6" data-name="Unnamed Pattern 6" x="0" y="0" width="121.25700378418" height="121.25700378418" patternTransform="translate(-5493.14018118382 -6057.97210088372) scale(.185387998819 -.185387998819)" patternUnits="userSpaceOnUse" viewBox="0 0 121.25700378418 121.25700378418">
      <g>
        <rect class="cls-7" width="121.25700378418" height="121.25700378418"/>
        <rect class="cls-10" width="121.25700378418" height="121.25700378418"/>
      </g>
    </pattern>
    <pattern id="Unnamed_Pattern_7" data-name="Unnamed Pattern 7" x="0" y="0" width="121.25700378418" height="121.25700378418" patternTransform="translate(-5493.14018118382 -6057.97210088372) scale(.185387998819 -.185387998819)" patternUnits="userSpaceOnUse" viewBox="0 0 121.25700378418 121.25700378418">
      <g>
        <rect class="cls-7" width="121.25700378418" height="121.25700378418"/>
        <rect class="cls-10" width="121.25700378418" height="121.25700378418"/>
      </g>
    </pattern>
    <pattern id="Unnamed_Pattern_8" data-name="Unnamed Pattern 8" x="0" y="0" width="121.25700378418" height="121.25700378418" patternTransform="translate(-5493.14018118382 -6057.97210088372) scale(.185387998819 -.185387998819)" patternUnits="userSpaceOnUse" viewBox="0 0 121.25700378418 121.25700378418">
      <g>
        <rect class="cls-7" width="121.25700378418" height="121.25700378418"/>
        <rect class="cls-10" width="121.25700378418" height="121.25700378418"/>
      </g>
    </pattern>
    <pattern id="Unnamed_Pattern_9" data-name="Unnamed Pattern 9" x="0" y="0" width="121.25700378418" height="121.25700378418" patternTransform="translate(-8491.30999679864 -7501.22217975557) rotate(134.871063719313) scale(.185388313772 -.185388313772)" patternUnits="userSpaceOnUse" viewBox="0 0 121.25700378418 121.25700378418">
      <g>
        <rect class="cls-7" width="121.25700378418" height="121.25700378418"/>
        <rect class="cls-6" width="121.25700378418" height="121.25700378418"/>
      </g>
    </pattern>
  </defs>
  <rect class="cls-11" x="69.177368164062" y="17.723999023437" width="2.620971679688" height="13.691009521485"/>
  <polygon class="cls-11" points="88.61865234375 31.415191650391 86.134643554688 31.415191650391 79.093627929688 21.988220214844 79.093627929688 31.415191650391 76.531616210938 31.415191650391 76.531616210938 17.724212646484 79.015625 17.724212646484 86.075622558594 27.171203613281 86.075622558594 17.724212646484 88.61865234375 17.724212646484 88.61865234375 31.415191650391"/>
  <path class="cls-11" d="M97.908752441406,31.424987792969c-2.26904296875,0-4.199035644531-.72998046875-5.789001464844-2.189971923828l1.094970703125-2.134002685547c1.60400390625,1.304992675781,3.181030273438,1.957977294922,4.732971191406,1.957977294922,1.460021972656,0,2.243041992188-.496978759766,2.347045898438-1.491973876954,0-.44302368164-.183044433594-.805023193358-.546997070312-1.084014892577-.522033691406-.367004394531-1.585021972656-.760986328125-3.188049316406-1.178985595703-.221984863281-.064025878906-.52197265625-.171020507812-.899963378906-.322998046875-.919006347656-.349029541016-1.60302734375-.79901123047-2.049011230469-1.351013183595-.447021484375-.550994873046-.669982910156-1.243011474608-.669982910156-2.072998046875,0-.850006103515.226989746094-1.559997558593.679992675781-2.130004882812.453002929688-.571014404297,1.065979003906-.998992919922,1.838012695312-1.283996582031.773010253906-.286010742188,1.640991210938-.428009033203,2.60595703125-.428009033203,1.826049804688,0,3.475036621094.481994628906,4.949035644531,1.447021484375l-1.057006835938,2.309997558594c-1.525024414062-.914001464844-2.893981933594-1.371002197266-4.106994628906-1.371002197266-.572998046875,0-1.056030273438.097991943359-1.447021484375.293975830078-.390991210938.196014404297-.586975097656.528015136719-.586975097656.996002197265,0,.468017578125.244995117188.864013671875.734008789062,1.190002441407.488952636719.326019287109,1.31298828125.637023925781,2.473999023438.934020996093,1.485961914062.442993164063,2.476989746094.891998291017,2.972961425781,1.346984863282.130004882812.126007080078.280029296875.283996582031.449035644531.473999023438.469970703125.531005859375.704956054688,1.246002197266.704956054688,2.144012451172,0,1.263977050781-.495971679688,2.238006591797-1.486999511719,2.920989990233-.990966796875.683013916017-2.242980957031,1.023986816407-3.754943847656,1.023986816407"/>
  <rect class="cls-11" x="107.002380371094" y="17.723999023437" width="2.620971679688" height="13.691009521485"/>
  <path class="cls-11" d="M119.950012207031,31.415222167969h-5.592956542969v-13.691009521484h5.690979003906c2.059997558594,0,3.765014648438.636016845702,5.114990234375,1.907012939452,1.348999023438,1.27099609375,2.023986816406,2.917999267579,2.023986816406,4.938995361329,0,1.993988037109-.670959472656,3.634002685546-2.013977050781,4.917999267578-1.343994140625,1.285003662109-3.083984375,1.927001953125-5.223022460938,1.927001953125M120.107055664062,29.107208251953c.573974609375,0,1.125-.092987060547,1.652954101562-.278991699219.528015136719-.184997558594.997009277344-.466979980469,1.408020019531-.845001220703.409973144531-.377990722656.736022949219-.850006103516.977966308594-1.414001464845.241027832031-.56298828125.361999511719-1.223999023437.361999511719-1.97998046875,0-1.40802001953-.43994140625-2.519012451171-1.320983886719-3.335021972655-.880004882812-.813995361328-1.93896484375-1.221984863281-3.177978515625-1.221984863281h-3.031005859375v9.074981689453h3.129028320312Z"/>
  <polygon class="cls-11" points="141.1123046875 31.415191650391 130.844299316406 31.415191650391 130.844299316406 17.724212646484 140.877258300781 17.724212646484 140.877258300781 20.013214111328 133.465270996094 20.013214111328 133.465270996094 23.396209716797 140.1142578125 23.396209716797 140.1142578125 25.684204101562 133.465270996094 25.684204101562 133.465270996094 29.127197265625 141.1123046875 29.127197265625 141.1123046875 31.415191650391"/>
  <polygon class="cls-11" points="158.870849609375 31.415191650391 156.151794433594 31.415191650391 150.734802246094 17.724212646484 153.550842285156 17.724212646484 157.579833984375 28.501220703125 161.647827148438 17.724212646484 164.346801757812 17.724212646484 158.870849609375 31.415191650391"/>
  <rect class="cls-11" x="167.456359863281" y="17.723999023437" width="2.620971679688" height="13.691009521485"/>
  <polygon class="cls-11" points="185.078308105469 31.415191650391 174.810302734375 31.415191650391 174.810302734375 17.724212646484 184.84326171875 17.724212646484 184.84326171875 20.013214111328 177.431274414062 20.013214111328 177.431274414062 23.396209716797 184.081298828125 23.396209716797 184.081298828125 25.684204101562 177.431274414062 25.684204101562 177.431274414062 29.127197265625 185.078308105469 29.127197265625 185.078308105469 31.415191650391"/>
  <polygon class="cls-11" points="203.795654296875 31.415191650391 201.076599121094 31.415191650391 197.947631835938 21.030212402344 194.759643554688 31.415191650391 192.080627441406 31.415191650391 187.464599609375 17.724212646484 190.280639648438 17.724212646484 193.507629394531 28.579193115234 196.715637207031 17.724212646484 199.297607421875 17.724212646484 202.524597167969 28.618194580078 205.712646484375 17.724212646484 208.430603027344 17.724212646484 203.795654296875 31.415191650391"/>
  <path class="cls-9" d="M73.219055175781,49.214385986328c-1.134033203125,0-2.077026367188-.356994628906-2.829040527344-1.070983886719-.752990722656-.713989257812-1.128967285156-1.610015869141-1.128967285156-2.686004638673,0-1.070007324218.390991210938-1.959991455077,1.170959472656-2.669982910155.781005859375-.710998535156,1.739013671875-1.066009521484,2.873046875-1.066009521484,1.090942382812,0,2.067993164062.355987548828,2.930969238281,1.06900024414l-.81298828125,1.018005371095c-.648986816406-.542999267578-1.35498046875-.813995361328-2.117980957031-.813995361328-.321044921875,0-.635009765625.051971435547-.942016601562.156982421875-.306030273438.105010986328-.5830078125.260009765625-.829040527344.466003417969-.245971679688.205993652344-.441955566406.463012695312-.587951660156.77099609375-.14599609375.307006835938-.218994140625.662994384765-.218994140625,1.06900024414,0,.506011962892.118957519531.94500732422.357971191406,1.315002441407.239013671875.371002197266.554992675781.656005859375.948974609375.856994628906.39404296875.201019287109.821044921875.300994873047,1.281005859375.300994873047.507019042969,0,1.045043945312-.156982421875,1.616027832031-.470001220703v-1.401977539062h-1.723022460938v-1.18701171875h2.985046386719l-.011047363281,3.369995117188c-.927001953125.649017333984-1.914978027344.972991943359-2.962951660156.972991943359"/>
  <polygon class="cls-3" points="101.661804199219 49.209014892578 96.997802734375 49.209014892578 96.997802734375 41.721038818359 98.431762695312 41.721038818359 98.431762695312 47.9150390625 101.661804199219 47.9150390625 101.661804199219 49.209014892578"/>
  <path class="cls-1" d="M125.344299316406,49.214111328125c-.5419921875,0-1.033996582031-.078979492188-1.476013183594-.236999511719-.441955566406-.157989501953-.830993652344-.3759765625-1.16796875-.654998779297-.337036132812-.277984619141-.614013671875-.598999023438-.83203125-.963989257812-.341979980469-.567016601562-.513000488281-1.203002929688-.513000488281-1.908996582031,0-1.063018798829.381042480469-1.951995849609,1.14404296875-2.664001464844.763000488281-.713012695312,1.711975097656-1.069000244141,2.844970703125-1.069000244141,1.134033203125,0,2.0830078125.359985351562,2.846008300781,1.078979492188.763000488281.720001220703,1.14501953125,1.60400390625,1.14501953125,2.654022216797,0,1.057006835938-.384033203125,1.949005126953-1.151000976562,2.674987792969-.766052246094.727020263672-1.713012695312,1.089996337891-2.840026855469,1.089996337891M125.366333007812,47.920104980469c.669982910156,0,1.254943847656-.232971191407,1.753967285156-.699981689453s.7490234375-1.057006835938.7490234375-1.77099609375c0-.720001220704-.248046875-1.309020996094-.743041992188-1.765014648438-.495971679688-.455993652344-1.0830078125-.684997558594-1.759948730469-.684997558594-.474060058594,0-.899047851562.106994628906-1.273010253906.319000244141-.3740234375.213012695312-.678039550781.496002197266-.908996582031.850006103516-.243041992188.367004394531-.364013671875.794006347656-.364013671875,1.281005859375,0,.720977783203.252990722656,1.31298828125.760009765625,1.776000976562.505981445312.462982177733,1.100952148438.694976806641,1.786010742188.694976806641"/>
  <path class="cls-8" d="M153.177795410156,49.208709716797h-3.422973632812v-7.488006591797h3.326965332031c.7490234375,0,1.366027832031.158996582031,1.850036621094.475982666016.484985351562.318023681641.727966308594.783020019531.727966308594,1.396026611328,0,.384979248047-.10498046875.725982666016-.315979003906,1.022003173828-.210021972656.295989990234-.539978027344.507995605469-.989013671875.635986328125.371032714844.085998535156.674011230469.220001220703.908996582031.401000976562.234985351562.182006835938.408020019531.401000976562.518981933594.656005859375.110046386719.255004882812.166015625.533996582031.166015625.837005615234,0,.480987548828-.119995117188.871978759766-.359008789062,1.170989990234-.259948730469.313995361328-.600952148438.540985107422-1.023986816406.682006835938-.421997070312.140991210938-.885009765625.210998535156-1.388000488281.210998535156M153.0068359375,44.780700683594c.348999023438,0,.634948730469-.075988769532.85595703125-.226989746094s.330993652344-.388000488281.330993652344-.712005615234c0-.576019287109-.394958496094-.864013671875-1.186950683594-.864013671875h-1.818054199219v1.803009033203h1.818054199219ZM153.0068359375,47.946685791016c.969970703125,0,1.454956054688-.323974609375,1.454956054688-.972991943359,0-.332000732422-.136962890625-.578979492188-.411987304688-.740997314453-.275024414062-.161987304688-.622009277344-.243988037109-1.04296875-.243988037109h-1.818054199219v1.957977294922h1.818054199219Z"/>
  <path class="cls-5" d="M183.578491210938,49.208831787109h-1.5400390625l-.664001464844-1.5830078125h-3.657958984375l-.663024902344,1.5830078125h-1.486999511719l3.283996582031-7.488006591798h1.486999511719l3.241027832031,7.488006591798ZM180.861511230469,46.395812988281l-1.305053710938-3.144989013672-1.325988769531,3.144989013672h2.631042480469Z"/>
  <polygon class="cls-4" points="208.309814453125 49.209014892578 203.645812988281 49.209014892578 203.645812988281 41.721038818359 205.079772949219 41.721038818359 205.079772949219 47.9150390625 208.309814453125 47.9150390625 208.309814453125 49.209014892578"/>
  <path class="cls-11" d="M29.189208984375,9.904205322266c-1.168029785156-.671997070312-2.521057128906-1.057983398438-3.964050292969-1.057983398438-4.399963378906,0-7.966003417969,3.566986083983-7.966003417969,7.966003417969,0,4.398986816406,3.566040039062,7.96499633789,7.966003417969,7.96499633789,1.442993164062,0,2.796020507812-.385986328125,3.964050292969-1.057006835937,2.389953613281-1.375,4.0009765625-3.953002929688,4.0009765625-6.907989501953,0-2.955993652344-1.611022949219-5.533020019531-4.0009765625-6.908020019531"/>
  <path class="cls-12" d="M61.653747558594,25.161712646484h-1.538024902344c-.814025878906,0-1.474975585938-.659973144531-1.474975585938-1.473999023438v-13.557983398438c0-.815002441406-.660034179688-1.475006103516-1.474060058594-1.475006103516h-17.487976074219c-1.106018066406,0-1.823974609375,1.14599609375-1.361999511719,2.149993896484.841979980469,1.828002929688,1.31103515625,3.861999511719,1.31103515625,6.007019042969,0,2.276977539062-.529052734375,4.429992675781-1.470031738281,6.343994140625-.495971679688,1.00698852539.221984863281,2.183990478515,1.343994140625,2.183990478515h5.402038574219c.879943847656,0,1.568969726562.765991210938,1.466979980469,1.640014648438-.903015136719,7.759979248047-7.514038085938,13.802978515625-15.512023925781,13.802978515625h-3.35595703125c-1.327026367188,0-2.402038574219,1.076019287109-2.402038574219,2.402008056641v11.881011962891c0,1.326995849609,1.075012207031,2.401977539062,2.402038574219,2.401977539062h3.35595703125c17.294006347656,0,31.4580078125-13.658996582032,32.26904296875-30.755981445312.039978027344-.843017578125-.630004882812-1.550018310547-1.473999023438-1.550018310547"/>
  <path class="cls-2" d="M22.910339355469,30.477386474609l.1669921875-.1669921875c.822998046875-.826995849609.402954101562-2.226989746094-.735046386719-2.480987548828-2.028991699219-.453002929688-3.956970214844-1.467010498047-5.539001464844-3.0419921875-1.581970214844-1.575012207031-2.60400390625-3.4990234375-3.066955566406-5.525024414062-.260009765625-1.136993408203-1.661010742188-1.550994873047-2.484008789062-.723999023438-.324035644531.326019287109-.468994140625.794006347655-.375,1.244018554688.552001953125,2.664978027343,1.862976074219,5.203002929688,3.935974121094,7.265991210938,1.952026367188,1.942993164062,4.320007324219,3.209014892578,6.815002441406,3.800994873047.462036132812.110015869141.947021484375-.035980224609,1.282043457031-.372009277344"/>
  <rect class="cls-7" width="219" height="66"/>
</svg>