<?xml version="1.0" encoding="UTF-8"?>
<svg width="411px" height="102px" viewBox="0 0 411 102" version="1.1" xmlns="http://www.w3.org/2000/svg" xmlns:xlink="http://www.w3.org/1999/xlink">
    <title>Group 2</title>
    <g id="Page-1" stroke="none" stroke-width="1" fill="none" fill-rule="evenodd">
        <g id="ISV" transform="translate(-8, -99)" fill="#FFFFFF" fill-rule="nonzero">
            <g id="Group-2" transform="translate(8.8392, 99.2)">
                <g id="Group" transform="translate(121.0608, 18.8)">
                    <polygon id="Path" points="5.4 28.4 -2.84217094e-14 28.4 -2.84217094e-14 0.1 5.4 0.1"></polygon>
                    <polygon id="Path" points="40.2 28.4 35.1 28.4 20.5 8.9 20.5 28.4 15.2 28.4 15.2 0.1 20.3 0.1 34.9 19.7 34.9 0.1 40.2 0.1"></polygon>
                    <path d="M59.5,28.5 C54.8,28.5 50.8,27 47.5,24 L49.8,19.6 C53.1,22.3 56.4,23.7 59.6,23.7 C62.6,23.7 64.2,22.7 64.5,20.6 C64.5,19.7 64.1,18.9 63.4,18.4 C62.3,17.6 60.1,16.8 56.8,16 C56.3,15.9 55.7,15.6 54.9,15.3 C53,14.6 51.6,13.6 50.7,12.5 C49.8,11.4 49.3,9.9 49.3,8.2 C49.3,6.4 49.8,5 50.7,3.8 C51.6,2.6 52.9,1.7 54.5,1.1 C56.1,0.5 57.9,0.2 59.9,0.2 C63.7,0.2 67.1,1.2 70.2,3.2 L68,8 C64.8,6.1 62,5.2 59.5,5.2 C58.3,5.2 57.3,5.4 56.5,5.8 C55.7,6.2 55.3,6.9 55.3,7.9 C55.3,8.9 55.8,9.7 56.8,10.4 C57.8,11.1 59.5,11.7 61.9,12.3 C65,13.2 67,14.1 68.1,15.1 C68.4,15.4 68.7,15.7 69,16.1 C70,17.2 70.5,18.7 70.5,20.5 C70.5,23.1 69.5,25.1 67.4,26.6 C65.2,27.8 62.6,28.5 59.5,28.5 Z" id="Path"></path>
                    <polygon id="Path" points="83.8 28.4 78.4 28.4 78.4 0.1 83.8 0.1"></polygon>
                    <path d="M105.2,28.4 L93.6,28.4 L93.6,0.1 L105.4,0.1 C109.7,0.1 113.2,1.4 116,4.1 C118.8,6.7 120.2,10.1 120.2,14.3 C120.2,18.4 118.8,21.8 116,24.5 C113.2,27.1 109.6,28.4 105.2,28.4 Z M105.5,23.7 C106.7,23.7 107.8,23.5 108.9,23.1 C110,22.7 111,22.1 111.8,21.3 C112.7,20.5 113.3,19.5 113.8,18.4 C114.3,17.2 114.6,15.9 114.6,14.3 C114.6,11.4 113.7,9.1 111.9,7.4 C110.1,5.7 107.9,4.9 105.3,4.9 L99,4.9 L99,23.7 L105.5,23.7 Z" id="Shape"></path>
                    <polygon id="Path" points="149 28.4 127.7 28.4 127.7 0.1 148.5 0.1 148.5 4.8 133.1 4.8 133.1 11.8 146.9 11.8 146.9 16.5 133.1 16.5 133.1 23.6 149 23.6"></polygon>
                    <polygon id="Path" points="185.8 28.4 180.2 28.4 169 0 174.8 0 183.2 22.3 191.6 0 197.2 0"></polygon>
                    <polygon id="Path" points="209.1 28.4 203.7 28.4 203.7 0.1 209.1 0.1"></polygon>
                    <polygon id="Path" points="240.2 28.4 218.9 28.4 218.9 0.1 239.7 0.1 239.7 4.8 224.3 4.8 224.3 11.8 238.1 11.8 238.1 16.5 224.3 16.5 224.3 23.6 240.2 23.6 240.2 28.4"></polygon>
                    <polygon id="Path" points="279 28.4 273.4 28.4 266.9 6.9 260.3 28.4 254.7 28.4 245.1 0.1 250.9 0.1 257.6 22.6 264.2 0.1 269.6 0.1 276.3 22.7 282.9 0.1 288.5 0.1"></polygon>
                </g>
                <g id="Group" transform="translate(121.1608, 68.5)">
                    <path d="M8.2,15.6 C5.8,15.6 3.9,14.9 2.3,13.4 C0.7,11.9 -1.42108547e-14,10.1 -1.42108547e-14,7.8 C-1.42108547e-14,5.6 0.8,3.7 2.4,2.3 C4,0.8 6,0.1 8.4,0.1 C10.7,0.1 12.7,0.8 14.5,2.3 L12.8,4.4 C11.5,3.3 10,2.7 8.4,2.7 C7.7,2.7 7.1,2.8 6.4,3 C5.8,3.2 5.2,3.5 4.7,4 C4.2,4.4 3.8,5 3.5,5.6 C3.2,6.2 3,7 3,7.8 C3,8.9 3.2,9.8 3.7,10.5 C4.2,11.3 4.9,11.9 5.7,12.3 C6.5,12.7 7.4,12.9 8.4,12.9 C9.4,12.9 10.6,12.6 11.7,11.9 L11.7,9 L8.1,9 L8.1,6.5 L14.3,6.5 L14.3,13.5 C12.4,15 10.4,15.6 8.2,15.6 Z" id="Path"></path>
                    <polygon id="Path" points="67.2 15.6 57.5 15.6 57.5 0.1 60.5 0.1 60.5 12.9 67.2 12.9"></polygon>
                    <path d="M116.3,15.6 C115.2,15.6 114.2,15.4 113.2,15.1 C112.3,14.8 111.5,14.3 110.8,13.7 C110.1,13.1 109.5,12.5 109.1,11.7 C108.4,10.5 108,9.2 108,7.7 C108,5.5 108.8,3.7 110.4,2.2 C112,0.7 113.9,0 116.3,0 C118.7,0 120.6,0.7 122.2,2.2 C123.8,3.7 124.6,5.5 124.6,7.7 C124.6,9.9 123.8,11.7 122.2,13.2 C120.5,14.9 118.6,15.6 116.3,15.6 Z M116.3,13 C117.7,13 118.9,12.5 119.9,11.5 C120.9,10.5 121.5,9.3 121.5,7.8 C121.5,6.3 121,5.1 120,4.1 C119,3.2 117.8,2.7 116.4,2.7 C115.4,2.7 114.5,2.9 113.8,3.4 C113,3.8 112.4,4.4 111.9,5.2 C111.4,6 111.1,6.8 111.1,7.9 C111.1,9.4 111.6,10.6 112.7,11.6 C113.6,12.5 114.9,13 116.3,13 Z" id="Shape"></path>
                    <path d="M173.9,15.6 L166.8,15.6 L166.8,0.1 L173.7,0.1 C175.3,0.1 176.5,0.4 177.5,1.1 C178.5,1.8 179,2.7 179,4 C179,4.8 178.8,5.5 178.3,6.1 C177.9,6.7 177.2,7.2 176.2,7.4 C177,7.6 177.6,7.9 178.1,8.2 C178.6,8.6 178.9,9 179.2,9.6 C179.4,10.1 179.5,10.7 179.5,11.3 C179.5,12.3 179.3,13.1 178.8,13.7 C178.3,14.4 177.6,14.8 176.7,15.1 C175.8,15.4 175,15.6 173.9,15.6 Z M173.6,6.4 C174.3,6.4 174.9,6.2 175.4,5.9 C175.9,5.6 176.1,5.1 176.1,4.4 C176.1,3.2 175.3,2.6 173.6,2.6 L169.8,2.6 L169.8,6.3 L173.6,6.3 L173.6,6.4 Z M173.6,13 C175.6,13 176.6,12.3 176.6,11 C176.6,10.3 176.3,9.8 175.7,9.5 C175.1,9.2 174.4,9 173.5,9 L169.7,9 L169.7,13.1 L173.6,13.1 L173.6,13 Z" id="Shape"></path>
                    <path d="M237,15.6 L233.8,15.6 L232.4,12.3 L224.8,12.3 L223.4,15.6 L220.3,15.6 L227.1,0.1 L230.2,0.1 L237,15.6 Z M231.3,9.8 L228.6,3.3 L225.9,9.8 L231.3,9.8 Z" id="Shape"></path>
                    <polygon id="Path" points="288.2 15.6 278.5 15.6 278.5 0.1 281.5 0.1 281.5 12.9 288.2 12.9"></polygon>
                </g>
                <g id="logo_glyph" transform="translate(0, 0)">
                    <path d="M38.060825,2.7 C35.660825,1.3 32.860825,0.5 29.860825,0.5 C20.760825,0.5 13.360825,7.9 13.360825,17 C13.360825,26.1 20.760825,33.5 29.860825,33.5 C32.860825,33.5 35.660825,32.7 38.060825,31.3 C43.060825,28.5 46.360825,23.1 46.360825,17 C46.360825,10.8 43.060825,5.5 38.060825,2.7 Z" id="Path"></path>
                    <path d="M105.360825,34.3 L102.160825,34.3 C100.460825,34.3 99.060825,32.9 99.060825,31.2 L99.060825,3.1 C99.060825,1.4 97.660825,0 95.960825,0 L59.660825,0 C57.360825,0 55.860825,2.4 56.860825,4.5 C58.560825,8.3 59.560825,12.5 59.560825,17 C59.560825,21.7 58.460825,26.2 56.560825,30.1 C55.560825,32.2 57.060825,34.6 59.360825,34.6 L70.560825,34.6 C72.360825,34.6 73.860825,36.2 73.560825,38 C71.860825,54.1 58.160825,66.7 41.560825,66.7 L34.560825,66.7 C31.860825,66.7 29.560825,68.9 29.560825,71.7 L29.560825,96.3 C29.560825,99 31.760825,101.3 34.560825,101.3 L41.560825,101.3 C77.360825,101.3 106.760825,73 108.460825,37.5 C108.560825,35.7 107.160825,34.3 105.360825,34.3 Z" id="Path"></path>
                    <path d="M25.060825,45.3 L25.360825,45 C27.060825,43.3 26.160825,40.4 23.860825,39.9 C19.660825,39 15.660825,36.9 12.360825,33.6 C9.06082501,30.3 6.96082501,26.3 5.96082501,22.1 C5.46082501,19.7 2.56082501,18.9 0.860825007,20.6 L0.860825007,20.6 C0.160825007,21.3 -0.139174993,22.2 0.0608250072,23.2 C1.16082501,28.7 3.96082501,34 8.26082501,38.3 C12.260825,42.3 17.260825,45 22.360825,46.2 C23.360825,46.3 24.360825,46 25.060825,45.3 Z" id="Path"></path>
                </g>
            </g>
        </g>
    </g>
</svg>