<svg id="Layer_1" enable-background="new 0 0 512 512" viewBox="0 0 512 512" xmlns="http://www.w3.org/2000/svg" xmlns:xlink="http://www.w3.org/1999/xlink"><linearGradient id="SVGID_1_" gradientUnits="userSpaceOnUse" x1="256" x2="256" y1="475.353" y2="36.647"><stop offset="0" stop-color="#ffa78c"/><stop offset=".4183" stop-color="#ffc2b1"/><stop offset=".7811" stop-color="#ffd5cb"/><stop offset=".9992" stop-color="#ffdcd4"/></linearGradient><linearGradient id="SVGID_00000146470523462386808030000016598584630215014821_" gradientUnits="userSpaceOnUse" x1="255.8" x2="255.8" y1="47.99" y2="475.353"><stop offset="0" stop-color="#fff5f5"/><stop offset=".2871" stop-color="#f8f3f4"/><stop offset=".6984" stop-color="#e5edf0"/><stop offset="1" stop-color="#d3e7ec"/></linearGradient><linearGradient id="SVGID_00000114048350365110386280000013263187546654826394_" gradientUnits="userSpaceOnUse" x1="311.009" x2="311.009" y1="202.812" y2="133.837"><stop offset="0" stop-color="#ed2460"/><stop offset="1" stop-color="#ff867d"/></linearGradient><linearGradient id="SVGID_00000057117035075482868580000015445953102961989025_" gradientUnits="userSpaceOnUse" x1="245.96" x2="245.96" y1="437.922" y2="341.588"><stop offset="0" stop-color="#009ddb"/><stop offset="1" stop-color="#14dae1"/></linearGradient><linearGradient id="SVGID_00000029736374897647908040000008937900929911109275_" gradientUnits="userSpaceOnUse" x1="241.65" x2="241.65" y1="153.324" y2="332.323"><stop offset="0" stop-color="#d3e9ef"/><stop offset=".3925" stop-color="#b7d8e1"/><stop offset="1" stop-color="#8fc1cc"/></linearGradient><g><g><path d="m510.023 295.067-14.446-26.772c-11.464-21.246-17.414-45.048-17.306-69.213.51-89.085-72.496-162.844-161.473-162.433-20.656.062-41.399 4.163-60.939 11.342-19.472-7.179-39.999-11.28-60.656-11.342-88.631-.36-162.069 73.05-161.473 162.433.107 24.165-5.842 47.967-17.306 69.213l-14.447 26.772c-5.842 10.826 1.962 23.99 14.222 23.99h8.775c3.92 0 7.099 3.178 7.099 7.099v55.635c0 8.513 6.871 15.414 15.347 15.414h37.076c6.786 0 12.287 5.501 12.287 12.287v53.575c0 6.786 5.501 12.287 12.287 12.287h57.748l79.143-32.011 98.823 32.011h59.206c6.786 0 12.287-5.501 12.287-12.287v-53.575c0-6.786 5.501-12.287 12.287-12.287h36.019c8.476 0 15.347-6.901 15.347-15.414v-55.635c0-3.921 3.178-7.099 7.099-7.099h8.775c12.257 0 20.061-13.164 14.219-23.99z" fill="url(#SVGID_1_)"/><path d="m255.858 47.99c-66.167 19.533-132.334 75.262-132.334 150.357 0 89.816 43.292 79.13 43.292 277.006h177.965c0-205.462 43.292-187.19 43.292-277.006.002-75.094-70.696-131.671-132.215-150.357z" fill="url(#SVGID_00000146470523462386808030000016598584630215014821_)"/></g><g><path d="m332.027 168.325 8.814-8.981c5.803-5.912 5.714-15.409-.198-21.212-5.912-5.802-15.409-5.713-21.212.199l-8.421 8.58-8.421-8.58c-5.801-5.912-15.298-6.001-21.212-.199-5.912 5.803-6.001 15.3-.198 21.212l8.814 8.981-8.814 8.981c-5.803 5.912-5.714 15.409.198 21.212 2.92 2.866 6.714 4.295 10.506 4.295 3.886 0 7.77-1.501 10.706-4.493l8.421-8.58 8.421 8.58c2.937 2.993 6.819 4.493 10.706 4.493 3.791 0 7.586-1.429 10.506-4.295 5.912-5.803 6.001-15.3.198-21.212z" fill="url(#SVGID_00000114048350365110386280000013263187546654826394_)"/><g><path d="m245.96 437.922c-26.221 0-47.553-21.607-47.553-48.167s21.332-48.167 47.553-48.167 47.553 21.607 47.553 48.167-21.332 48.167-47.553 48.167zm0-66.334c-9.679 0-17.553 8.15-17.553 18.167s7.875 18.167 17.553 18.167 17.553-8.15 17.553-18.167-7.875-18.167-17.553-18.167z" fill="url(#SVGID_00000057117035075482868580000015445953102961989025_)"/></g><path d="m325.698 314.277c-6.799-32.822-33.379-57.871-66.143-62.33-20.186-2.747-36.586-18.295-40.818-38.727l-3.21-15.3 3.875 2.216c7.191 4.112 16.355 1.616 20.468-5.575 4.112-7.191 1.616-16.355-5.575-20.468l-32.858-18.79c-6.67-3.813-15.142-1.972-19.626 4.267l-21.701 30.191c-4.835 6.727-3.302 16.1 3.425 20.935 2.65 1.905 5.71 2.821 8.742 2.821 4.665 0 9.262-2.169 12.193-6.246l1.832-2.548 3.068 14.621c6.799 32.823 33.379 57.871 66.142 62.33 20.186 2.748 36.587 18.296 40.811 38.689 1.468 7.086 7.71 11.96 14.673 11.96 1.008 0 2.032-.102 3.058-.315 8.11-1.68 13.324-9.618 11.644-17.731z" fill="url(#SVGID_00000029736374897647908040000008937900929911109275_)"/></g></g><g/><g/><g/><g/><g/><g/><g/><g/><g/><g/><g/><g/><g/><g/><g/></svg>