<svg id="Layer_1" enable-background="new 0 0 512 512" viewBox="0 0 512 512" xmlns="http://www.w3.org/2000/svg" xmlns:xlink="http://www.w3.org/1999/xlink"><linearGradient id="SVGID_1_" gradientUnits="userSpaceOnUse" x1="94.156" x2="94.156" y1="512" y2="242.84"><stop offset="0" stop-color="#ed2460"/><stop offset="1" stop-color="#ff867d"/></linearGradient><linearGradient id="SVGID_00000104701292220264785660000015729455177229116307_" gradientUnits="userSpaceOnUse" x1="49.009" x2="49.009" y1="242.84" y2="133.614"><stop offset="0" stop-color="#ffa75f"/><stop offset=".9995" stop-color="#ffe1c5"/></linearGradient><linearGradient id="SVGID_00000176758359568118224730000017670837931408369580_" gradientUnits="userSpaceOnUse" x1="417.88" x2="417.88" y1="511.859" y2="242.799"><stop offset="0" stop-color="#00b3b3"/><stop offset=".2704" stop-color="#38c4a7"/><stop offset=".7739" stop-color="#9be392"/><stop offset="1" stop-color="#c3ef89"/></linearGradient><linearGradient id="SVGID_00000152249873636585464580000012881070144485222330_" gradientUnits="userSpaceOnUse" x1="463.009" x2="463.009" y1="242.799" y2="133.614"><stop offset="0" stop-color="#ae4f39"/><stop offset=".9992" stop-color="#dd8573"/></linearGradient><linearGradient id="SVGID_00000001633092301693825130000001813529474822669449_" gradientUnits="userSpaceOnUse" x1="256.84" x2="256.84" y1="286.195" y2="512"><stop offset="0" stop-color="#d3e9ef"/><stop offset=".23" stop-color="#c9e3ea"/><stop offset=".6153" stop-color="#afd4dd"/><stop offset="1" stop-color="#8fc1cc"/></linearGradient><linearGradient id="SVGID_00000066503942109482839930000014150355374994494593_" gradientUnits="userSpaceOnUse" x1="256.839" x2="256.839" y1="301.191" y2="271.199"><stop offset="0" stop-color="#003e51"/><stop offset=".1633" stop-color="#00465b"/><stop offset=".4458" stop-color="#005d78"/><stop offset=".8111" stop-color="#0082a5"/><stop offset="1" stop-color="#0097bf"/></linearGradient><linearGradient id="SVGID_00000115496285227313909010000017020075419298220432_" gradientUnits="userSpaceOnUse" x1="256" x2="256" y1="176.208" y2="0"><stop offset="0" stop-color="#00c0f4"/><stop offset=".2446" stop-color="#2dccf4"/><stop offset=".7958" stop-color="#9eebf6"/><stop offset="1" stop-color="#c9f7f6"/></linearGradient><g><path d="m105.494 343.429c-4.345 0-7.867-3.521-7.867-7.865v-43.974c0-26.924-21.855-48.751-48.813-48.751-26.959.001-48.814 21.827-48.814 48.751v90.911c0 25.018 20.307 45.298 45.357 45.298h53.106c3.636 0 6.584 2.947 6.584 6.583v64.4c0 7.3 5.92 13.218 13.222 13.218h56.821c7.302 0 13.222-5.918 13.222-13.218v-97.48c0-31.962-25.944-57.872-57.947-57.872h-24.871z" fill="url(#SVGID_1_)"/><path d="m49.009 133.614c24.146 0 43.72 19.549 43.72 43.664v21.898c0 24.115-19.574 43.664-43.72 43.664-24.146 0-43.72-19.549-43.72-43.664v-21.898c0-24.115 19.574-43.664 43.72-43.664z" fill="url(#SVGID_00000104701292220264785660000015729455177229116307_)"/><g><path d="m406.542 343.351c4.345 0 7.867-3.521 7.867-7.865v-43.955c0-26.914 21.846-48.733 48.795-48.733 26.949 0 48.795 21.818 48.795 48.733v90.877c0 25.008-20.299 45.281-45.34 45.281h-53.084c-3.637 0-6.584 2.947-6.584 6.583v64.369c0 7.3-5.919 13.218-13.222 13.218h-56.79c-7.302 0-13.222-5.918-13.222-13.218v-97.439c0-31.95 25.934-57.851 57.925-57.851z" fill="url(#SVGID_00000176758359568118224730000017670837931408369580_)"/><path d="m463.009 133.614c-24.137 0-43.704 19.542-43.704 43.648v21.89c0 24.106 19.567 43.648 43.704 43.648 24.137 0 43.704-19.542 43.704-43.648v-21.89c0-24.107-19.567-43.648-43.704-43.648z" fill="url(#SVGID_00000152249873636585464580000012881070144485222330_)"/></g><path d="m241.84 286.195v210.809c0 8.282 6.716 14.996 15 14.996s15-6.714 15-14.996v-210.809z" fill="url(#SVGID_00000001633092301693825130000001813529474822669449_)"/><g><path d="m341.89 301.191h-170.101c-8.284 0-15-6.714-15-14.996s6.716-14.996 15-14.996h170.101c8.284 0 15 6.714 15 14.996s-6.716 14.996-15 14.996z" fill="url(#SVGID_00000066503942109482839930000014150355374994494593_)"/></g><path d="m210.987 0h-47.194c-3.612 0-6.54 2.927-6.54 6.538v37.532c0 3.461-2.701 6.29-6.156 6.52-20.021 1.331-36.938 17.752-36.898 38.616-.178 20.681 16.709 37.199 36.927 38.591 3.443.237 6.126 3.067 6.126 6.517v35.356c0 3.611 2.928 6.538 6.54 6.538h47.169c3.256 0 5.986-2.4 6.468-5.619 2.727-18.203 18.877-33.062 38.336-32.963 18.909-.076 35.613 14.3 38.35 32.969.472 3.218 3.213 5.613 6.466 5.613h47.157c3.612 0 6.54-2.927 6.54-6.538v-35.303c0-3.472 2.717-6.314 6.183-6.52 20.459-1.217 37.253-17.574 37.336-38.64.204-20.878-16.991-37.367-37.349-38.632-3.461-.215-6.171-3.053-6.171-6.52v-37.517c0-3.611-2.928-6.538-6.54-6.538h-47.205c-3.243 0-5.979 2.38-6.463 5.586-2.8 18.549-18.881 32.773-38.306 32.773-18.84.078-35.5-14.202-38.318-32.779-.482-3.203-3.217-5.58-6.458-5.58z" fill="url(#SVGID_00000115496285227313909010000017020075419298220432_)"/></g><g/><g/><g/><g/><g/><g/><g/><g/><g/><g/><g/><g/><g/><g/><g/></svg>