<svg id="Layer_1" enable-background="new 0 0 512 512" viewBox="0 0 512 512" xmlns="http://www.w3.org/2000/svg" xmlns:xlink="http://www.w3.org/1999/xlink"><linearGradient id="lg1"><stop offset="0" stop-color="#003e51"/><stop offset=".0648" stop-color="#00455a"/><stop offset=".4993" stop-color="#007190"/><stop offset=".824" stop-color="#008db2"/><stop offset="1" stop-color="#0097bf"/></linearGradient><linearGradient id="SVGID_1_" gradientUnits="userSpaceOnUse" x1="256" x2="256" xlink:href="#lg1" y1="512" y2="409.088"/><linearGradient id="SVGID_00000157282829602656914850000005668511741641318532_" gradientUnits="userSpaceOnUse" x1="256" x2="256" y1="438.247" y2="94.98"><stop offset="0" stop-color="#00c0f4"/><stop offset=".1896" stop-color="#38cff5"/><stop offset=".3892" stop-color="#6bddf5"/><stop offset=".5768" stop-color="#94e8f5"/><stop offset=".7468" stop-color="#b1f0f6"/><stop offset=".8935" stop-color="#c3f5f6"/><stop offset="1" stop-color="#c9f7f6"/></linearGradient><linearGradient id="SVGID_00000076575677950547647370000003482157997270111882_" gradientUnits="userSpaceOnUse" x1="256.325" x2="256.325" y1="438.387" y2="325.981"><stop offset="0" stop-color="#ffad5a"/><stop offset=".613" stop-color="#ffd25b"/><stop offset="1" stop-color="#ffe45b"/></linearGradient><linearGradient id="lg2"><stop offset="0" stop-color="#ed2460"/><stop offset=".1762" stop-color="#f13561"/><stop offset=".7257" stop-color="#fb6465"/><stop offset="1" stop-color="#ff7666"/></linearGradient><linearGradient id="SVGID_00000041988954712046976670000002158263844740884660_" gradientUnits="userSpaceOnUse" x1="256.335" x2="256.335" xlink:href="#lg2" y1="345.303" y2="281.517"/><linearGradient id="SVGID_00000134227177001087214050000009079618405599170464_" gradientUnits="userSpaceOnUse" x1="143.749" x2="143.749" xlink:href="#lg2" y1="241.741" y2="150.441"/><linearGradient id="SVGID_00000178888315455791896480000017360201610755999672_" gradientUnits="userSpaceOnUse" x1="366.671" x2="366.671" xlink:href="#lg2" y1="241.565" y2="149.917"/><linearGradient id="SVGID_00000160189949327812176060000013826998451666325382_" gradientUnits="userSpaceOnUse" x1="256" x2="256" xlink:href="#lg1" y1="453.251" y2="79.976"/><linearGradient id="SVGID_00000049927008749144513700000013889515342689815204_" gradientUnits="userSpaceOnUse" x1="255.788" x2="255.788" y1="0" y2="286.577"><stop offset="0" stop-color="#fff5f5"/><stop offset=".324" stop-color="#fcf4f4"/><stop offset=".6031" stop-color="#f1f1f2"/><stop offset=".8647" stop-color="#dfebef"/><stop offset="1" stop-color="#d3e7ec"/></linearGradient><linearGradient id="SVGID_00000134948687645730281050000005290271721579312784_" gradientUnits="userSpaceOnUse" x1="256.398" x2="256.398" y1="174.39" y2="126.493"><stop offset="0" stop-color="#009ddb"/><stop offset=".0457" stop-color="#01a1db"/><stop offset=".4372" stop-color="#0cc0de"/><stop offset=".7692" stop-color="#12d3e0"/><stop offset="1" stop-color="#14dae1"/></linearGradient><linearGradient id="SVGID_00000088110293188213104260000002821022819965151396_" gradientUnits="userSpaceOnUse" x1="256.398" x2="256.398" y1="104.494" y2="196.389"><stop offset="0" stop-color="#d3e7ec"/><stop offset=".3132" stop-color="#d0e5ea"/><stop offset=".5728" stop-color="#c5dde4"/><stop offset=".8124" stop-color="#b4d1da"/><stop offset="1" stop-color="#a1c3ce"/></linearGradient><g><g><path d="m386.976 512h-261.528c-8.077 0-15.027-6.208-15.407-14.278-.406-8.616 6.458-15.729 14.983-15.729 17.042 0 30.906-13.868 30.906-30.913v-41.991h200.139v41.991c0 16.911 13.646 30.694 30.504 30.911 8.286.106 15.33 6.584 15.402 14.873.073 8.346-6.671 15.136-14.999 15.136z" fill="url(#SVGID_1_)"/></g><path d="m15 94.979h482v343.267h-482z" fill="url(#SVGID_00000157282829602656914850000005668511741641318532_)"/><path d="m301.846 364.379v-19.076l-45.658-19.322-45.387 19.322v19.117c0 27.742-11.018 54.349-30.63 73.966h152.307v-.041c-19.611-19.617-30.632-46.223-30.632-73.966z" fill="url(#SVGID_00000076575677950547647370000003482157997270111882_)"/><path d="m210.824 281.559-.023 63.744h91.045l.023-63.787z" fill="url(#SVGID_00000041988954712046976670000002158263844740884660_)"/><path d="m118.584 166.653c-3.498 1.008-5.907 4.208-5.909 7.849l-.029 59.059c-.003 5.352 5.054 9.262 10.232 7.911l51.033-13.314.939-77.716z" fill="url(#SVGID_00000134227177001087214050000009079618405599170464_)"/><path d="m391.954 166.501-56.433-16.584 1.102 77.839 50.901 13.531c5.184 1.378 10.266-2.529 10.268-7.894l.029-59.047c.002-3.628-2.387-6.822-5.867-7.845z" fill="url(#SVGID_00000178888315455791896480000017360201610755999672_)"/><path d="m497 453.251h-482c-8.284 0-15-6.718-15-15.004v-343.267c0-8.286 6.716-15.004 15-15.004h482c8.284 0 15 6.718 15 15.004v343.267c0 8.286-6.716 15.004-15 15.004zm-467-30.008h452v-313.259h-452z" fill="url(#SVGID_00000160189949327812176060000013826998451666325382_)"/><path d="m255.116 0c-3.126 0-6.16 1.063-8.608 3.007-50.766 40.338-76.677 101.819-76.708 166.971l-.05 107.975c-.002 4.764 3.859 8.626 8.622 8.624l154.792-.075c4.756-.002 8.611-3.858 8.613-8.616l.049-105.952c.115-65.926-26.028-128.993-78.276-169.063-2.421-1.857-5.384-2.871-8.434-2.871z" fill="url(#SVGID_00000049927008749144513700000013889515342689815204_)"/><ellipse cx="256.398" cy="150.441" fill="url(#SVGID_00000134948687645730281050000005290271721579312784_)" rx="23.919" ry="23.948"/><g><path d="m256.399 196.389c-25.329 0-45.936-20.612-45.936-45.947s20.607-45.948 45.936-45.948 45.935 20.613 45.935 45.948-20.607 45.947-45.935 45.947zm0-60.902c-8.244 0-14.951 6.709-14.951 14.955s6.707 14.954 14.951 14.954 14.95-6.708 14.95-14.954-6.707-14.955-14.95-14.955z" fill="url(#SVGID_00000088110293188213104260000002821022819965151396_)"/></g></g><g/><g/><g/><g/><g/><g/><g/><g/><g/><g/><g/><g/><g/><g/><g/></svg>