<svg id="Layer_1" enable-background="new 0 0 512 512" viewBox="0 0 512 512" xmlns="http://www.w3.org/2000/svg" xmlns:xlink="http://www.w3.org/1999/xlink"><linearGradient id="SVGID_1_" gradientUnits="userSpaceOnUse" x1="185.128" x2="185.128" y1="511.93" y2="302.93"><stop offset="0" stop-color="#ffa78c"/><stop offset=".9992" stop-color="#ffdcd4"/></linearGradient><linearGradient id="SVGID_00000007417432129508184940000010789964155685051012_" gradientUnits="userSpaceOnUse" x1="352.915" x2="352.915" y1="427.019" y2="302.93"><stop offset="0" stop-color="#ae4f39"/><stop offset=".0276" stop-color="#b1523d"/><stop offset=".2375" stop-color="#c46955"/><stop offset=".4601" stop-color="#d27966"/><stop offset=".7021" stop-color="#da8270"/><stop offset=".9992" stop-color="#dd8573"/></linearGradient><linearGradient id="SVGID_00000025403344529410801190000011627205256291185036_" gradientUnits="userSpaceOnUse" x1="256" x2="256" y1="262.601" y2=".07"><stop offset="0" stop-color="#ed2460"/><stop offset=".1762" stop-color="#f13561"/><stop offset=".7257" stop-color="#fb6465"/><stop offset="1" stop-color="#ff7666"/></linearGradient><g><g><path d="m365.321 400.247-16.198-26.257-52.109-36.284-14.185-34.777h-265.995c-9.297.001-16.834 7.542-16.834 16.846v90.399c0 9.303 7.537 16.845 16.834 16.845h97.365c4.275 0 8.42 1.471 11.74 4.166 0 0 66.152 51.645 86.811 70.474 12.908 11.764 32.643 13.947 47.146 3.808l92.766-55.854c8.673-5.222 14.375-13.485 16.575-22.594 2.125-8.795.972-18.375-3.916-26.772z" fill="url(#SVGID_1_)"/><path d="m495.166 302.93h-212.337c-9.317 0-18.251 3.699-24.837 10.281l-54.486 54.461c-13.601 13.595-12.751 35.876 1.847 48.397h.001c12.847 11.019 31.953 10.556 44.25-1.072l37.477-35.44c3.78-3.575 8.787-5.567 13.993-5.567h42.449c3.481 0 6.714 1.802 8.543 4.761l12.78 20.679c5.297 8.587 6.584 18.508 4.392 27.588h125.928c9.297 0 16.834-7.542 16.834-16.845v-90.399c0-9.302-7.537-16.844-16.834-16.844z" fill="url(#SVGID_00000007417432129508184940000010789964155685051012_)"/></g><path d="m139.647 146.219h9.37c6.623 46.711 43.7 83.761 90.446 90.379v11.004c0 8.284 6.721 15 15.011 15s15.011-6.716 15.011-15v-11.004c46.746-6.618 83.823-43.667 90.446-90.379h12.422c8.29 0 15.011-6.716 15.011-14.999s-6.721-14.999-15.011-14.999h-12.422c-6.623-46.711-43.7-83.76-90.446-90.378v-10.773c0-8.284-6.721-14.999-15.011-14.999s-15.011 6.716-15.011 14.999v10.772c-46.746 6.618-83.823 43.667-90.446 90.378h-9.37c-8.29 0-15.011 6.716-15.011 14.999s6.721 15 15.011 15zm114.827-32.406c9.605 0 17.42 7.808 17.42 17.407s-7.815 17.407-17.42 17.407-17.42-7.809-17.42-17.407 7.815-17.407 17.42-17.407zm15.011 92.361v-29.994c14.101-4.714 25.266-15.87 29.983-29.961h30.017c-6.027 30.139-29.839 53.934-60 59.955zm59.999-89.954h-30.017c-4.717-14.09-15.882-25.247-29.983-29.96v-29.994c30.162 6.021 53.974 29.815 60 59.954zm-90.021-59.954v29.994c-14.101 4.713-25.266 15.87-29.983 29.96h-30.017c6.027-30.139 29.839-53.933 60-59.954zm-29.983 89.953c4.717 14.091 15.882 25.247 29.983 29.961v29.995c-30.161-6.021-53.974-29.817-60-59.955h30.017z" fill="url(#SVGID_00000025403344529410801190000011627205256291185036_)"/></g><g/><g/><g/><g/><g/><g/><g/><g/><g/><g/><g/><g/><g/><g/><g/></svg>