<svg id="Layer_1" enable-background="new 0 0 511.967 511.967" viewBox="0 0 511.967 511.967" xmlns="http://www.w3.org/2000/svg" xmlns:xlink="http://www.w3.org/1999/xlink"><linearGradient id="SVGID_1_" gradientUnits="userSpaceOnUse" x1="255.984" x2="255.984" y1="389.611" y2="168.807"><stop offset="0" stop-color="#ae4f39"/><stop offset=".1046" stop-color="#b45640"/><stop offset=".689" stop-color="#d27865"/><stop offset=".9992" stop-color="#dd8573"/></linearGradient><linearGradient id="SVGID_00000104684727496685399470000017613919920416608153_" gradientUnits="userSpaceOnUse" x1="255.984" x2="255.984" y1="99.022" y2="0"><stop offset="0" stop-color="#001416"/><stop offset=".0719" stop-color="#001c20"/><stop offset=".3024" stop-color="#00323c"/><stop offset=".5343" stop-color="#004250"/><stop offset=".7666" stop-color="#004b5c"/><stop offset="1" stop-color="#004e60"/></linearGradient><linearGradient id="SVGID_00000168077781044225434860000000260558610552052665_" gradientUnits="userSpaceOnUse" x1="255.984" x2="255.984" y1="182.255" y2="76.561"><stop offset="0" stop-color="#ae4f39"/><stop offset=".6354" stop-color="#cb705d"/><stop offset="1" stop-color="#dd8573"/></linearGradient><linearGradient id="lg1"><stop offset="0" stop-color="#ffe45b"/><stop offset=".3243" stop-color="#fee97d"/><stop offset="1" stop-color="#fdf6cf"/></linearGradient><linearGradient id="SVGID_00000066473795539172550950000004007814838573976236_" gradientUnits="userSpaceOnUse" x1="169.93" x2="169.93" xlink:href="#lg1" y1="218.492" y2="146.016"/><linearGradient id="SVGID_00000021100656262225309890000016547124038506085286_" gradientUnits="userSpaceOnUse" x1="342.261" x2="342.261" xlink:href="#lg1" y1="218.492" y2="146.016"/><linearGradient id="SVGID_00000048486722937578379220000010633394167089693344_" gradientUnits="userSpaceOnUse" x1="255.984" x2="255.984" y1="511.967" y2="377.973"><stop offset="0" stop-color="#00b3b3"/><stop offset=".0464" stop-color="#0bb6b1"/><stop offset=".3921" stop-color="#59cea0"/><stop offset=".6772" stop-color="#92e093"/><stop offset=".8875" stop-color="#b6eb8c"/><stop offset="1" stop-color="#c3ef89"/></linearGradient><linearGradient id="SVGID_00000007405030374232173670000005392530536935172244_" gradientUnits="userSpaceOnUse" x1="256.793" x2="256.793" y1="390.081" y2="285.036"><stop offset="0" stop-color="#ffa78c"/><stop offset=".9992" stop-color="#ffdcd4"/></linearGradient><g><path d="m66.518 168.807v208.645c0 6.715 5.444 12.159 12.159 12.159h354.615c6.715 0 12.159-5.444 12.159-12.159v-208.645z" fill="url(#SVGID_1_)"/><g><path d="m371.722 99.021c-8.284 0-15-6.716-15-15v-54.021h-201.477v54.021c0 8.284-6.716 15-15 15s-15-6.716-15-15v-69.021c0-8.284 6.716-15 15-15h231.478c8.284 0 15 6.716 15 15v69.021c-.001 8.285-6.716 15-15.001 15z" fill="url(#SVGID_00000104684727496685399470000017613919920416608153_)"/></g><path d="m34.056 88.719v81.377c0 6.715 5.444 12.159 12.159 12.159h419.537c6.715 0 12.159-5.444 12.159-12.159v-81.377c0-6.715-5.444-12.159-12.159-12.159h-419.537c-6.715.001-12.159 5.444-12.159 12.159z" fill="url(#SVGID_00000168077781044225434860000000260558610552052665_)"/><path d="m199.017 218.492h-58.174c-3.947 0-7.146-3.199-7.146-7.146v-58.184c0-3.947 3.199-7.146 7.146-7.146h58.174c3.947 0 7.146 3.199 7.146 7.146v58.184c0 3.947-3.199 7.146-7.146 7.146z" fill="url(#SVGID_00000066473795539172550950000004007814838573976236_)"/><path d="m371.348 218.492h-58.174c-3.947 0-7.146-3.199-7.146-7.146v-58.184c0-3.947 3.199-7.146 7.146-7.146h58.174c3.947 0 7.146 3.199 7.146 7.146v58.184c0 3.947-3.2 7.146-7.146 7.146z" fill="url(#SVGID_00000021100656262225309890000016547124038506085286_)"/><g><path d="m331.316 414.168-16.638-16.772c-2.09-2.107-3.689-4.605-4.755-7.314l-53.131-12.109-53.131 12.109c-1.076 2.338-2.549 4.498-4.416 6.344l-17.811 17.609c-21.672 21.427-33.868 50.635-33.868 81.111v3.83c0 7.175 5.817 12.992 12.992 12.992h190.847c7.176 0 12.992-5.817 12.992-12.992v-4.478c.003-30.093-11.889-58.966-33.081-80.33z" fill="url(#SVGID_00000048486722937578379220000010633394167089693344_)"/><path d="m308.411 382.178v-45.768c0-28.373-23.001-51.375-51.374-51.375-28.373 0-51.374 23.001-51.374 51.375v44.649c0 3.149-.709 6.217-2 9.022h106.262c-.983-2.495-1.514-5.17-1.514-7.903z" fill="url(#SVGID_00000007405030374232173670000005392530536935172244_)"/></g></g><g/><g/><g/><g/><g/><g/><g/><g/><g/><g/><g/><g/><g/><g/><g/></svg>