<svg id="Layer_1" enable-background="new 0 0 512.365 512.365" viewBox="0 0 512.365 512.365" xmlns="http://www.w3.org/2000/svg" xmlns:xlink="http://www.w3.org/1999/xlink"><linearGradient id="SVGID_1_" gradientUnits="userSpaceOnUse" x1="147.613" x2="147.613" y1=".183" y2="229.602"><stop offset="0" stop-color="#fff5f5"/><stop offset=".2871" stop-color="#f8f3f4"/><stop offset=".6984" stop-color="#e5edf0"/><stop offset="1" stop-color="#d3e7ec"/></linearGradient><linearGradient id="SVGID_00000019680602183913399550000014271461462747531927_" gradientUnits="userSpaceOnUse" x1="379.373" x2="379.373" y1=".183" y2="229.813"><stop offset="0" stop-color="#d3e9ef"/><stop offset=".23" stop-color="#c9e3ea"/><stop offset=".6153" stop-color="#afd4dd"/><stop offset="1" stop-color="#8fc1cc"/></linearGradient><linearGradient id="SVGID_00000080168050570321167460000002628454899586900097_" gradientUnits="userSpaceOnUse" x1="115.1" x2="115.1" y1="512.183" y2="370.153"><stop offset="0" stop-color="#ffad5a"/><stop offset=".1731" stop-color="#ffbe5a"/><stop offset=".4593" stop-color="#ffd35b"/><stop offset=".7384" stop-color="#ffe05b"/><stop offset="1" stop-color="#ffe45b"/></linearGradient><linearGradient id="SVGID_00000166641329659788023430000015954276979786564237_" gradientUnits="userSpaceOnUse" x1="115.958" x2="115.958" y1="382.988" y2="271.643"><stop offset="0" stop-color="#ae4f39"/><stop offset=".0276" stop-color="#b1523d"/><stop offset=".2375" stop-color="#c46955"/><stop offset=".4601" stop-color="#d27966"/><stop offset=".7021" stop-color="#da8270"/><stop offset=".9992" stop-color="#dd8573"/></linearGradient><linearGradient id="SVGID_00000031929580240831053480000015015442879522973062_" gradientUnits="userSpaceOnUse" x1="397.265" x2="397.265" y1="512.183" y2="370.153"><stop offset="0" stop-color="#ed2460"/><stop offset=".1762" stop-color="#f13561"/><stop offset=".7257" stop-color="#fb6465"/><stop offset="1" stop-color="#ff7666"/></linearGradient><linearGradient id="SVGID_00000137850243554300813280000017873535167169018515_" gradientUnits="userSpaceOnUse" x1="398.123" x2="398.123" y1="382.988" y2="271.643"><stop offset="0" stop-color="#ffa78c"/><stop offset=".9992" stop-color="#ffdcd4"/></linearGradient><linearGradient id="lg1"><stop offset="0" stop-color="#d3e7ec"/><stop offset=".3467" stop-color="#bcd6de"/><stop offset=".7348" stop-color="#a8c8d2"/><stop offset="1" stop-color="#a1c3ce"/></linearGradient><linearGradient id="SVGID_00000173120498899702550840000010537408744031218307_" gradientUnits="userSpaceOnUse" x1="60.675" x2="60.675" xlink:href="#lg1" y1="88.998" y2="118.998"/><linearGradient id="SVGID_00000165192991195170184800000017058411572878047891_" gradientUnits="userSpaceOnUse" x1="119.628" x2="119.628" xlink:href="#lg1" y1="88.998" y2="118.998"/><linearGradient id="SVGID_00000015331184246201990710000017925042061675957653_" gradientUnits="userSpaceOnUse" x1="178.581" x2="178.581" xlink:href="#lg1" y1="88.998" y2="118.998"/><g><g><path d="m295.225 103.998-18.893-55.678-29.937-48.137h-229.687c-9.227 0-16.708 7.48-16.708 16.708v202.812c0 7.991 8.991 12.677 15.541 8.102l40.551-28.323c1.659-1.159 3.635-1.781 5.659-1.781h184.629l17.695-33.466z" fill="url(#SVGID_1_)"/><path d="m246.395.183v64.115c0 5.444 4.417 9.843 9.861 9.846 16.408.008 29.707 13.312 29.707 29.722 0 16.415-13.307 29.722-29.722 29.722h-.014c-5.438 0-9.846 4.408-9.846 9.846v54.267h203.116c1.993 0 3.94.603 5.584 1.729l41.818 28.638c6.559 4.491 15.466-.205 15.466-8.154v-203.023c0-9.228-7.481-16.708-16.708-16.708h-249.262z" fill="url(#SVGID_00000019680602183913399550000014271461462747531927_)"/></g><g><path d="m194.95 408.519-17.635-17.778c-2.215-2.233-3.911-4.881-5.04-7.753l-56.317-12.835-56.317 12.835c-1.14 2.479-2.702 4.768-4.68 6.724l-18.879 18.665c-22.972 22.712-35.899 53.672-35.899 85.975v4.059c0 7.606 6.166 13.772 13.772 13.772h202.292c7.606 0 13.772-6.166 13.772-13.772v-4.747c-.002-31.896-12.606-62.5-35.069-85.145z" fill="url(#SVGID_00000080168050570321167460000002628454899586900097_)"/><path d="m170.671 374.611v-48.513c0-30.075-24.38-54.455-54.455-54.455-30.075 0-54.455 24.381-54.455 54.455v47.326c0 3.338-.752 6.589-2.12 9.563h112.634c-1.041-2.644-1.604-5.479-1.604-8.376z" fill="url(#SVGID_00000166641329659788023430000015954276979786564237_)"/></g><path d="m477.115 408.519-17.635-17.778c-2.215-2.233-3.911-4.881-5.04-7.753l-56.317-12.835-56.317 12.835c-1.141 2.479-2.702 4.768-4.68 6.724l-18.879 18.665c-22.971 22.712-35.899 53.671-35.899 85.975v4.059c0 7.606 6.166 13.772 13.772 13.772h202.292c7.606 0 13.772-6.166 13.772-13.772v-4.747c-.001-31.896-12.606-62.5-35.069-85.145z" fill="url(#SVGID_00000031929580240831053480000015015442879522973062_)"/><path d="m452.837 374.611v-48.513c0-30.075-24.38-54.455-54.455-54.455-30.075 0-54.455 24.381-54.455 54.455v47.326c0 3.338-.752 6.589-2.12 9.563h112.633c-1.041-2.644-1.603-5.479-1.603-8.376z" fill="url(#SVGID_00000137850243554300813280000017873535167169018515_)"/><g><circle cx="60.675" cy="103.998" fill="url(#SVGID_00000173120498899702550840000010537408744031218307_)" r="15"/><circle cx="119.628" cy="103.998" fill="url(#SVGID_00000165192991195170184800000017058411572878047891_)" r="15"/><circle cx="178.581" cy="103.998" fill="url(#SVGID_00000015331184246201990710000017925042061675957653_)" r="15"/></g></g><g/><g/><g/><g/><g/><g/><g/><g/><g/><g/><g/><g/><g/><g/><g/></svg>