<svg id="Layer_1" enable-background="new 0 0 512 512" viewBox="0 0 512 512" xmlns="http://www.w3.org/2000/svg" xmlns:xlink="http://www.w3.org/1999/xlink"><linearGradient id="SVGID_1_" gradientUnits="userSpaceOnUse" x1="50.4" x2="333.236" y1="256" y2="256"><stop offset="0" stop-color="#c16bff"/><stop offset=".1291" stop-color="#bc6dff"/><stop offset=".2734" stop-color="#af74ff"/><stop offset=".4251" stop-color="#997fff"/><stop offset=".5818" stop-color="#798fff"/><stop offset=".7424" stop-color="#51a3ff"/><stop offset=".9041" stop-color="#20bcff"/><stop offset="1" stop-color="#0cf"/></linearGradient><path d="m458.43 364.54c-3.12-3.12-8.18-3.12-11.3 0l-46.73 46.71-30.86-30.86c-3.12-3.13-8.18-3.12-11.31 0-3.12 3.12-3.12 8.18 0 11.3l36.51 36.51c1.57 1.56 3.61 2.34 5.66 2.34 2.04 0 4.09-.78 5.65-2.34l52.38-52.35c3.12-3.12 3.13-8.18 0-11.31zm0 0c-3.12-3.12-8.18-3.12-11.3 0l-46.73 46.71-30.86-30.86c-3.12-3.13-8.18-3.12-11.31 0-3.12 3.12-3.12 8.18 0 11.3l36.51 36.51c1.57 1.56 3.61 2.34 5.66 2.34 2.04 0 4.09-.78 5.65-2.34l52.38-52.35c3.12-3.12 3.13-8.18 0-11.31zm-19-67.05c.47-5.91.71-11.78.71-17.52 0-71.71-34.9-138.73-93.51-180.01-1.02-4.78-2.42-9.3-4.3-13.52-8.76-19.57-26.62-29.88-56.25-32.45-.22-.02-.26-.02-.37-.25-.11-.25-.11-.32.04-.53l10.78-15.26c3.61-5.14 4.04-11.54 1.15-17.1-2.9-5.57-8.37-8.9-14.64-8.9h-77.86c-29.82 0-57.83 9.51-78.89 26.77-19.56 16.04-31.6 37.95-34.69 62.63-57.42 41.35-91.6 107.83-91.6 178.62 0 58.78 22.9 114.05 64.47 155.62s96.83 64.46 155.62 64.46c40.31 0 79.49-10.93 113.75-31.66 18.86 19.51 45.28 31.66 74.49 31.66 57.16 0 103.67-46.5 103.67-103.66 0-46.33-30.55-85.66-72.57-98.9zm-90.62-100.52v-27.07c0-6.71.12-13.24.24-19.56.19-10.08.36-19.59.01-28.49 47.31 38.63 75.09 96.51 75.09 158.12 0 4.55-.18 9.2-.49 13.89-5-.75-10.12-1.14-15.33-1.14-34.34 0-64.82 16.79-83.7 42.59-9.13-3.23-18.33-6.62-26.73-10.54-13.76-6.42-21.97-19.31-21.97-34.48v-7.73c18.14-13.41 31.16-33.37 35.52-56.37h8.13c16.12 0 29.23-13.11 29.23-29.22zm-84.6 74.31c-.47.25-.91.54-1.31.87-11.82 7.73-25.92 12.24-41.06 12.24h-4.05c-14.94 0-28.86-4.39-40.58-11.92-.43-.36-.9-.66-1.41-.91-17.87-12.06-30.3-31.6-32.8-54.08-.01-.13-.03-.25-.05-.38-.27-2.62-.42-5.28-.42-7.97v-57.01c0-.62.03-1.24.09-1.85.06-.26.1-.52.12-.79 1.29-8.82 8.88-15.61 18.04-15.61h6.89c9.05 0 17.1-2.44 24.62-7.47l11.78-7.86c9.85-6.6 21.62-6.6 31.5 0v.01l11.77 7.85c7.52 5.03 15.57 7.47 24.62 7.47h6.89c10.05 0 18.22 8.19 18.22 18.25v57.01c0 25.79-13.04 48.58-32.86 62.15zm9.28 55.06c-9.23 21.14-30.11 35.04-53.4 35.04-23.3 0-44.19-13.9-53.42-35.06 8.27-9.14 13.06-20.95 13.5-34.06 11.47 5.21 24.21 8.12 37.62 8.12h4.05c13.61 0 26.52-3 38.13-8.37.39 13.22 5.19 25.12 13.52 34.33zm39.56-116.13c0-.36.01-.72.01-1.08v-52.47h6.52c7.3 0 13.24 5.94 13.24 13.24v27.07c0 7.3-5.94 13.24-13.24 13.24zm-206.27-96.04c0-56.01 50.7-86.23 98.4-86.23h77.86c.23 0 .31.02.45.28.12.23.12.3-.03.52l-10.79 15.28c-3.41 4.87-3.97 11-1.45 16.46 2.55 5.43 7.61 8.96 13.51 9.44 45.88 3.98 49.13 25.77 48.43 74.11-4.06-2.14-8.68-3.36-13.58-3.36h-8.49c-4.72-13.26-17.39-22.79-32.24-22.79h-6.89c-5.95 0-10.8-1.47-15.75-4.78l-11.76-7.85c-7.61-5.09-16.13-7.63-24.65-7.63s-17.04 2.54-24.62 7.63l-11.77 7.86c-4.94 3.3-9.79 4.77-15.74 4.77h-6.89c-14.86 0-27.54 9.53-32.26 22.79h-8.5c-4.76 0-9.26 1.16-13.24 3.19zm0 55.73c0-7.3 5.94-13.24 13.24-13.24h6.52v52.47c0 .36.01.72.02 1.08h-6.54c-7.3 0-13.24-5.94-13.24-13.24zm-65.81 207.82c-15.92-29.05-24.98-62.36-24.98-97.75 0-61.37 27.7-119.24 74.81-157.86v47.77.02 27.07c0 16.11 13.11 29.22 29.22 29.22h8.13c4.41 23.22 17.64 43.35 36.06 56.75v7.35c0 15.18-8.21 28.07-21.97 34.48-9.92 4.63-21.15 8.58-32 12.4-26.76 9.42-54.28 19.12-69.27 40.55zm179.12 106.34c-70.67 0-133.05-36.1-169.69-90.82 10.33-21.68 36.99-31.08 65.15-40.99 11.22-3.95 22.81-8.03 33.44-12.99 1.7-.79 3.33-1.66 4.9-2.58 12.55 24.7 37.98 40.69 66.2 40.69 28.21 0 53.63-15.99 66.18-40.68 1.56.92 3.18 1.78 4.87 2.56 8.01 3.75 16.47 6.95 24.9 9.97-7.27 14.15-11.37 30.19-11.37 47.17 0 22.14 6.98 42.68 18.85 59.54-31.27 18.42-66.84 28.13-103.43 28.13zm188.24 0c-48.34 0-87.67-39.33-87.67-87.67 0-48.35 39.33-87.68 87.67-87.68 48.35 0 87.68 39.33 87.68 87.68 0 48.34-39.33 87.67-87.68 87.67zm38.8-119.52-46.73 46.71-30.86-30.86c-3.12-3.13-8.18-3.12-11.31 0-3.12 3.12-3.12 8.18 0 11.3l36.51 36.51c1.57 1.56 3.61 2.34 5.66 2.34 2.04 0 4.09-.78 5.65-2.34l52.38-52.35c3.12-3.12 3.13-8.18 0-11.31-3.12-3.12-8.18-3.12-11.3 0zm11.3 0c-3.12-3.12-8.18-3.12-11.3 0l-46.73 46.71-30.86-30.86c-3.12-3.13-8.18-3.12-11.31 0-3.12 3.12-3.12 8.18 0 11.3l36.51 36.51c1.57 1.56 3.61 2.34 5.66 2.34 2.04 0 4.09-.78 5.65-2.34l52.38-52.35c3.12-3.12 3.13-8.18 0-11.31zm0 0c-3.12-3.12-8.18-3.12-11.3 0l-46.73 46.71-30.86-30.86c-3.12-3.13-8.18-3.12-11.31 0-3.12 3.12-3.12 8.18 0 11.3l36.51 36.51c1.57 1.56 3.61 2.34 5.66 2.34 2.04 0 4.09-.78 5.65-2.34l52.38-52.35c3.12-3.12 3.13-8.18 0-11.31z" fill="#5407a5"/><path d="m304.67 396.39c0 22.14 6.98 42.68 18.85 59.54-31.27 18.42-66.84 28.13-103.43 28.13-70.67 0-133.05-36.1-169.69-90.82 10.33-21.68 36.99-31.08 65.15-40.99 11.22-3.95 22.81-8.03 33.44-12.99 1.7-.79 3.33-1.66 4.9-2.58 12.55 24.7 37.98 40.69 66.2 40.69 28.21 0 53.63-15.99 66.18-40.68 1.56.92 3.18 1.78 4.87 2.56 8.01 3.75 16.47 6.95 24.9 9.97-7.27 14.15-11.37 30.19-11.37 47.17zm-19.94-326.47c-5.9-.48-10.96-4.01-13.51-9.44-2.52-5.46-1.96-11.59 1.45-16.46l10.79-15.28c.15-.22.15-.29.03-.52-.14-.26-.22-.28-.45-.28h-77.86c-47.7 0-98.4 30.22-98.4 86.23v29.69c3.98-2.03 8.48-3.19 13.24-3.19h8.5c4.72-13.26 17.4-22.79 32.26-22.79h6.89c5.95 0 10.8-1.47 15.74-4.77l11.77-7.86c7.58-5.09 16.1-7.63 24.62-7.63s17.04 2.54 24.65 7.63l11.76 7.85c4.95 3.31 9.8 4.78 15.75 4.78h6.89c14.85 0 27.52 9.53 32.24 22.79h8.49c4.9 0 9.52 1.22 13.58 3.36.7-48.34-2.55-70.13-48.43-74.11z" fill="url(#SVGID_1_)"/></svg>