<svg id="Layer_1" enable-background="new 0 0 512 512" height="512" viewBox="0 0 512 512" width="512" xmlns="http://www.w3.org/2000/svg"><g clip-rule="evenodd" fill-rule="evenodd"><path d="m406.228 435.039c4.418 0 8 3.582 8 8s-3.582 8-8 8h-360.727c-10.632 0-20.281-4.332-27.268-11.32-6.988-6.988-11.32-16.637-11.32-27.269v-80.6c0-16.248 6.623-30.995 17.304-41.676 10.682-10.682 25.429-17.304 41.676-17.304v.031h380.213v-.031c11.831 0 22.575-4.829 30.364-12.617 7.788-7.789 12.617-18.533 12.617-30.364v-98.005c0-6.215-2.539-11.862-6.633-15.956s-9.741-6.633-15.956-6.633h-299.825c-4.418 0-8-3.582-8-8s3.582-8 8-8h299.825c10.632 0 20.281 4.333 27.269 11.32s11.32 16.636 11.32 27.268v98.005c0 16.248-6.622 30.995-17.304 41.676-10.682 10.682-25.429 17.304-41.676 17.304v-.031h-380.213v.031c-11.831 0-22.575 4.829-30.364 12.617-7.788 7.788-12.617 18.533-12.617 30.364v80.6c0 6.215 2.538 11.862 6.633 15.956 4.094 4.094 9.74 6.633 15.956 6.633h360.726z" fill="#a79ba7"/><g><path d="m391.605 382.08h96.679c6.941 0 12.62 5.679 12.62 12.62v96.679c0 6.941-5.679 12.62-12.62 12.62h-96.679c-6.941 0-12.62-5.679-12.62-12.62v-96.679c-.001-6.941 5.679-12.62 12.62-12.62z" fill="#8ac9fe"/><path d="m468.283 382.08h20.001c6.941 0 12.62 5.679 12.62 12.62v96.679c0 6.941-5.679 12.62-12.62 12.62h-20.001c6.941 0 12.62-5.679 12.62-12.62v-96.679c.001-6.941-5.678-12.62-12.62-12.62z" fill="#60b7ff"/><path d="m408.571 446.195c-3.124-3.124-3.124-8.189 0-11.313s8.189-3.124 11.313 0l14.908 14.908 24.652-30.475c2.779-3.435 7.815-3.966 11.25-1.188 3.434 2.779 3.966 7.815 1.187 11.25l-30.205 37.34c-.185.232-.384.456-.599.67-3.124 3.124-8.189 3.124-11.313 0z" fill="#eceff1"/></g><g><path d="m98.505 396.57h196.819c9.423 0 17.132 7.71 17.132 17.132v58.675c0 9.423-7.71 17.132-17.132 17.132h-196.819c-9.423 0-17.132-7.709-17.132-17.132v-58.675c0-9.422 7.71-17.132 17.132-17.132z" fill="#fe646f"/><path d="m301.353 397.673c6.471 2.453 11.103 8.726 11.103 16.029v58.675c0 9.423-7.71 17.132-17.132 17.132h-196.819c-7.304 0-13.576-4.632-16.029-11.103 1.878.711 3.91 1.103 6.029 1.103h196.819c9.423 0 17.132-7.709 17.132-17.132v-58.675c0-2.119-.391-4.151-1.103-6.029z" fill="#fd4755"/><path d="m275.05 435.04c4.418 0 8 3.582 8 8s-3.582 8-8 8h-50.269c-4.418 0-8-3.582-8-8s3.582-8 8-8zm-80.867 0c4.418 0 8 3.582 8 8s-3.582 8-8 8h-75.403c-4.418 0-8-3.582-8-8s3.582-8 8-8z" fill="#eceff1"/></g><g><path d="m160.043 234.4h210.661c2.538 0 4.723 1.062 6.291 3.058s2.083 4.37 1.482 6.836l-18.747 76.94c-.884 3.63-4.037 6.106-7.773 6.106h-210.661c-2.538 0-4.723-1.062-6.291-3.058s-2.083-4.37-1.482-6.836l18.747-76.94c.884-3.63 4.037-6.106 7.773-6.106z" fill="#ffe177"/><path d="m368.45 234.4h2.254c2.538 0 4.723 1.062 6.291 3.058s2.083 4.37 1.482 6.836l-18.747 76.94c-.884 3.63-4.037 6.106-7.773 6.106h-210.661c-2.538 0-4.723-1.062-6.291-3.058s-2.083-4.37-1.482-6.836l.026-.107h208.407c3.736 0 6.888-2.476 7.773-6.106z" fill="#ffd064"/><path d="m177.865 288.869c-4.418 0-8-3.582-8-8s3.582-8 8-8h50.269c4.418 0 8 3.582 8 8s-3.582 8-8 8zm80.867 0c-4.418 0-8-3.582-8-8s3.582-8 8-8h75.403c4.418 0 8 3.582 8 8s-3.582 8-8 8z" fill="#eceff1"/></g><g><path d="m263.822 54.826h171.261c9.423 0 17.132 7.709 17.132 17.132v58.676c0 9.423-7.709 17.132-17.132 17.132h-171.261c-9.423 0-17.132-7.709-17.132-17.132v-58.677c0-9.422 7.709-17.131 17.132-17.131z" fill="#6cf5c2"/><path d="m441.112 55.929c6.471 2.453 11.103 8.726 11.103 16.029v58.676c0 9.423-7.709 17.132-17.132 17.132h-171.261c-7.303 0-13.576-4.632-16.029-11.103 1.878.711 3.91 1.103 6.029 1.103h171.261c9.423 0 17.132-7.709 17.132-17.132v-58.677c-.001-2.119-.392-4.151-1.103-6.028z" fill="#00e499"/><path d="m418.945 93.295c4.418 0 8 3.582 8 8s-3.582 8-8 8h-44.709c-4.418 0-8-3.582-8-8s3.582-8 8-8zm-71.923 0c4.418 0 8 3.582 8 8s-3.582 8-8 8h-67.063c-4.418 0-8-3.582-8-8s3.582-8 8-8z" fill="#eceff1"/></g><g><path d="m125.167 35.162c6.337 1.62 12.319 4.13 17.805 7.384l22.288-16.137 17.834 17.834-16.137 22.288c3.254 5.487 5.761 11.469 7.383 17.805l27.163 4.348v25.221l-27.162 4.348c-1.62 6.337-4.13 12.319-7.384 17.806l16.137 22.288-17.834 17.834-22.288-16.137c-5.487 3.254-11.469 5.761-17.805 7.383l-4.348 27.163h-25.222l-4.348-27.162c-6.338-1.62-12.319-4.13-17.806-7.384l-22.288 16.137-17.834-17.834 16.137-22.288c-3.254-5.487-5.761-11.469-7.383-17.805l-27.163-4.348v-25.221l27.163-4.348c1.62-6.337 4.128-12.318 7.382-17.805l-16.136-22.289 17.834-17.834 22.287 16.136c5.487-3.254 11.469-5.763 17.807-7.383l4.348-27.162h25.222z" fill="#ffe177"/><path d="m166.177 118.254c-1.62 6.337-4.129 12.319-7.384 17.806l16.137 22.288-14.405 14.405 4.736 3.429 17.834-17.834-16.137-22.288c3.254-5.487 5.763-11.469 7.384-17.806l27.162-4.348v-25.221l-27.163-4.348c-1.621-6.336-4.129-12.318-7.383-17.805l16.137-22.288-17.835-17.835-4.736 3.429 14.405 14.405-16.137 22.288c3.254 5.487 5.761 11.469 7.383 17.805l27.163 4.348v25.221z" fill="#ffd064"/><ellipse cx="108.208" cy="101.295" fill="#eceff1" rx="37.266" ry="37.266" transform="matrix(.292 -.957 .957 .292 -20.244 175.253)"/><path d="m79.106 101.295c0 19.202 14.523 35.012 33.184 37.045-1.341.146-2.703.221-4.083.221-20.581 0-37.266-16.685-37.266-37.266 0-5.861 1.353-11.405 3.763-16.339 6.055-12.392 18.782-20.927 33.503-20.927 1.38 0 2.741.075 4.083.221-14.711 1.603-26.85 11.767-31.33 25.405-1.203 3.662-1.854 7.575-1.854 11.64z" fill="#d1d1d6"/></g></g></svg>