<svg id="Layer_1" enable-background="new 0 0 56 56" height="512" viewBox="0 0 56 56" width="512" xmlns="http://www.w3.org/2000/svg"><g><g><g><g><g><path d="m18.07 19.74v5.65c-1.56 0-2.82-1.27-2.82-2.82-.01-1.56 1.26-2.83 2.82-2.83z" fill="#1b323a"/></g><g><path d="m18.07 19.74v5.65c-.62 0-1.13-1.27-1.13-2.82 0-1.56.51-2.83 1.13-2.83z" fill="#0a1719"/></g></g><g><g><path d="m18.07 39.42v5.65c-1.56 0-2.82-1.27-2.82-2.82s1.26-2.83 2.82-2.83z" fill="#1b323a"/></g><g><path d="m18.07 39.42v5.65c-.62 0-1.13-1.27-1.13-2.82s.51-2.83 1.13-2.83z" fill="#0a1719"/></g></g></g><g><g><g><path d="m8.7 22.45 3.99 3.99c-1.1 1.1-2.89 1.1-3.99 0s-1.1-2.89 0-3.99z" fill="#1b323a"/></g><g><path d="m8.7 22.45 3.99 3.99c-.44.44-1.69-.1-2.79-1.2s-1.64-2.35-1.2-2.79z" fill="#0a1719"/></g></g><g><g><path d="m22.62 36.37 3.99 3.99c-1.1 1.1-2.89 1.1-3.99 0s-1.1-2.89 0-3.99z" fill="#1b323a"/></g><g><path d="m22.62 36.37 3.99 3.99c-.44.44-1.69-.1-2.79-1.2s-1.64-2.35-1.2-2.79z" fill="#0a1719"/></g></g></g><g><g><g><path d="m3.99 30.99h5.65c0 1.56-1.27 2.82-2.82 2.82s-2.83-1.26-2.83-2.82z" fill="#1b323a"/></g><g><path d="m3.99 30.99h5.65c0 .62-1.27 1.13-2.82 1.13s-2.83-.51-2.83-1.13z" fill="#0a1719"/></g></g><g><g><path d="m23.68 30.99h5.65c0 1.56-1.27 2.82-2.82 2.82-1.57.01-2.83-1.26-2.83-2.82z" fill="#1b323a"/></g><g><path d="m23.68 30.99h5.65c0 .62-1.27 1.13-2.82 1.13-1.57 0-2.83-.51-2.83-1.13z" fill="#0a1719"/></g></g></g><g><g><g><path d="m6.7 40.36 3.99-3.99c1.1 1.1 1.1 2.89 0 3.99s-2.89 1.1-3.99 0z" fill="#1b323a"/></g><g><path d="m6.7 40.36 3.99-3.99c.44.44-.1 1.69-1.2 2.79s-2.35 1.64-2.79 1.2z" fill="#0a1719"/></g></g><g><g><path d="m20.62 26.44 3.99-3.99c1.1 1.1 1.1 2.89 0 3.99s-2.89 1.1-3.99 0z" fill="#1b323a"/></g><g><path d="m20.62 26.44 3.99-3.99c.44.44-.1 1.69-1.2 2.79s-2.35 1.64-2.79 1.2z" fill="#0a1719"/></g></g></g><g><path d="m25.38 32.41c0 4.81-3.91 8.72-8.73 8.72-4.81 0-8.72-3.91-8.72-8.72 0-4.82 3.91-8.73 8.72-8.73 4.82 0 8.73 3.91 8.73 8.73z" fill="#6a9dae"/></g><g><path d="m24.06 32.41c0 4.09-3.32 7.4-7.41 7.4s-7.4-3.32-7.4-7.4c0-4.09 3.32-7.41 7.4-7.41 4.1 0 7.41 3.31 7.41 7.41z" fill="#4e8491"/></g><g><path d="m18.58 32.41c0 1.06-.86 1.92-1.92 1.92s-1.92-.86-1.92-1.92.86-1.92 1.92-1.92 1.92.85 1.92 1.92z" fill="#6a9dae"/></g><g><g><path d="m16.32 25.63h.68v3.97h-.68z" fill="#1b323a"/></g><g><path d="m16.32 35.21h.68v3.97h-.68z" fill="#1b323a"/></g></g><g><g><path d="m12.93 27.03h.68v3.97h-.68z" fill="#1b323a" transform="matrix(.707 -.707 .707 .707 -16.631 17.879)"/></g><g><path d="m19.71 33.81h.68v3.97h-.68z" fill="#1b323a" transform="matrix(.707 -.707 .707 .707 -19.439 24.658)"/></g></g><g><g><path d="m9.88 32.06h3.97v.68h-3.97z" fill="#1b323a"/></g><g><path d="m19.46 32.06h3.97v.68h-3.97z" fill="#1b323a"/></g></g><g><g><path d="m11.28 35.45h3.97v.68h-3.97z" fill="#1b323a" transform="matrix(.707 -.707 .707 .707 -21.424 19.865)"/></g><g><path d="m18.06 28.67h3.97v.68h-3.97z" fill="#1b323a" transform="matrix(.707 -.707 .707 .707 -14.645 22.673)"/></g></g></g><g><path d="m44.85 16.69c0 .39-.32.71-.71.71s-.71-.32-.71-.71v-.04c-.06.01-.12.02-.19.02-.32 0-.61-.18-.75-.45-.29.28-.69.45-1.12.45-.53 0-1-.25-1.29-.63-.27 0-.52-.07-.73-.2-.26.58-.85.98-1.52.98-.53 0-1.01-.25-1.3-.64.02.05.02.11.02.17 0 .7-.58 1.28-1.28 1.28-.71 0-1.28-.58-1.28-1.28 0-.12.02-.24.06-.35-.56-.13-.97-.64-.97-1.23 0-.67.49-1.21 1.13-1.27-.02-.06-.02-.11-.02-.17 0-.4.18-.75.46-.98-.11-.18-.17-.4-.17-.63 0-.71.58-1.29 1.29-1.29.43 0 .81.22 1.04.55.3-.34.74-.55 1.23-.55.91 0 1.66.75 1.66 1.67 0 .26-.06.51-.17.73.19-.08.39-.12.61-.12.45 0 .85.18 1.15.47.3-.29.71-.47 1.16-.47.92 0 1.67.74 1.67 1.67 0 .3-.08.59-.23.83.15.16.23.36.23.58 0 .06-.01.12-.02.18h.04c.39 0 .71.32.71.72z" fill="#fc0"/></g><g><path d="m36.09 13.38c0 .39-.32.71-.71.71s-.71-.32-.71-.71v-.04c-.06.01-.12.02-.19.02-.32 0-.61-.18-.75-.45-.29.28-.69.45-1.12.45-.53 0-1-.25-1.29-.63-.27 0-.52-.07-.73-.2-.26.58-.85.98-1.52.98-.53 0-1.01-.25-1.3-.64.02.05.02.11.02.17 0 .7-.58 1.28-1.28 1.28-.71 0-1.28-.58-1.28-1.28 0-.12.02-.24.06-.35-.56-.13-.97-.64-.97-1.23 0-.67.49-1.21 1.13-1.27-.02-.06-.02-.11-.02-.17 0-.4.18-.75.46-.98-.11-.18-.17-.4-.17-.63 0-.71.58-1.29 1.29-1.29.43 0 .81.22 1.04.55.3-.34.74-.55 1.23-.55.91 0 1.66.75 1.66 1.67 0 .26-.06.51-.17.73.19-.08.39-.12.61-.12.45 0 .85.18 1.15.47.3-.29.71-.47 1.16-.47.92 0 1.67.74 1.67 1.67 0 .3-.08.59-.23.83.15.16.23.36.23.58 0 .06-.01.12-.02.18h.04c.39 0 .71.32.71.72z" fill="#fded04"/></g><g><path d="m10.49 35.25h25.46v11.39h-25.46z" fill="#9db4c4"/></g><g><g><g><path d="m11.8 37.92h1.86v1.86h-1.86z" fill="#1b323a"/></g><g><path d="m14.79 37.92h1.86v1.86h-1.86z" fill="#1b323a"/></g><g><path d="m17.79 37.92h1.86v1.86h-1.86z" fill="#1b323a"/></g><g><path d="m20.78 37.92h1.86v1.86h-1.86z" fill="#1b323a"/></g><g><path d="m23.78 37.92h1.86v1.86h-1.86z" fill="#1b323a"/></g></g><g><g><path d="m11.8 40.52h1.86v1.86h-1.86z" fill="#1b323a"/></g><g><path d="m14.79 40.52h1.86v1.86h-1.86z" fill="#1b323a"/></g><g><path d="m17.79 40.52h1.86v1.86h-1.86z" fill="#1b323a"/></g><g><path d="m20.78 40.52h1.86v1.86h-1.86z" fill="#1b323a"/></g><g><path d="m23.78 40.52h1.86v1.86h-1.86z" fill="#1b323a"/></g></g><g><g><path d="m11.8 43.11h1.86v1.86h-1.86z" fill="#1b323a"/></g><g><path d="m14.79 43.11h1.86v1.86h-1.86z" fill="#1b323a"/></g><g><path d="m17.79 43.11h1.86v1.86h-1.86z" fill="#1b323a"/></g><g><path d="m20.78 43.11h1.86v1.86h-1.86z" fill="#1b323a"/></g><g><path d="m23.78 43.11h1.86v1.86h-1.86z" fill="#1b323a"/></g></g></g><g><path d="m9.65 35.25h26.3v1.14h-26.3z" fill="#ff9100"/></g><g><path d="m26.71 34.9h22.78v11.74h-22.78z" fill="#b0c5d6"/></g><g><g><path d="m28.19 36.23h.83v9.09h-.83z" fill="#1b323a"/></g><g><path d="m30.01 36.23h.83v9.09h-.83z" fill="#1b323a"/></g><g><path d="m31.83 36.23h.83v9.09h-.83z" fill="#1b323a"/></g><g><path d="m33.64 36.23h.83v9.09h-.83z" fill="#1b323a"/></g><g><path d="m35.46 36.23h.83v9.09h-.83z" fill="#1b323a"/></g><g><path d="m37.28 36.23h.83v9.09h-.83z" fill="#1b323a"/></g></g><g><g><path d="m6.39 44.87c.14.1.28.19.42.29.5-1 1.01-2 1.51-3 .8.56 1.49 1.31 2.02 2.18.12-.49.7-.63 1.14-.53s.87.35 1.33.3c.26-.03.51-.17.74-.3.47-.27.95-.53 1.42-.8 1.35-.75 2.81-1.64 3.36-3.2.47.7.95 1.4 1.42 2.1.39-.27.79-.55 1.18-.82.28 1.02.56 2.04.84 3.06 1.14-.67 2.27-1.33 3.41-2 .57 1.18 1.14 2.35 1.72 3.53.43-.74 1.49-.87 2.05-.26.5-.71 1-1.42 1.49-2.13.6 1.48 1.2 2.96 1.79 4.44-6.18.04-12.35.07-18.53.11-2.29.01-4.58.03-6.87.19-.57.04-2.47.62-2.48-.26 0-.77 1.6-2.3 2.04-2.9z" fill="#1b323a"/></g><g opacity=".1"><path d="m30.94 44.53c-.32.46-.64.92-.96 1.38-.19.28-.41.59-.71.7-.48.19-.99-.11-1.49-.09-.66.05-1.17.65-1.6 1.2-1.36-1.35-3.5-1.61-5.08-.62-.33.2-.65.46-1.02.51-.53.07-1.01-.29-1.4-.68-.4-.4-.78-.85-1.28-1.03 1.11.23 2.28.28 3.42.17-.28 0-1.18-.79-1.18-.79l-1.18-.83s-1.4-1.03-2.08-1.56c-.17-.14-.34-.27-.51-.41 1.04-.65 2.02-1.45 2.45-2.67.48.7.94 1.4 1.42 2.11.4-.28.79-.55 1.19-.83.27 1.02.56 2.04.83 3.06 1.15-.66 2.28-1.33 3.42-1.99.58 1.18 1.15 2.36 1.71 3.53.44-.74 1.49-.87 2.06-.26.5-.71.99-1.42 1.49-2.13.17.4.34.82.5 1.23z" fill="#fff"/></g><g opacity=".1"><path d="m19.36 41.33c-2.13 1.3-4.25 2.62-6.38 3.92-.18.11-.36.22-.57.18-.19-.05-.34-.32-.23-.49-.31.2-.55.55-.64.95-.08-.52-.16-1.05-.24-1.57-.47.75-.93 1.49-1.39 2.24.07-.5.14-.99.21-1.48-.36.59-.78 1.2-1.39 1.44-.42.15-.87.1-1.3.18-.53.09-1 .37-1.42.74-.4.35-.78.56-1.21.78-.25-.06-.43-.19-.44-.45-.01-.77 1.58-2.3 2.02-2.9.14.1.28.19.43.29.51-1.01 1-2 1.51-3 .8.55 1.49 1.3 2.02 2.17.12-.49.7-.62 1.15-.52s.87.35 1.33.29c.25-.03.5-.17.74-.29.48-.27.94-.53 1.42-.8 1.35-.75 2.81-1.63 3.36-3.2.34.51.67 1.01 1.02 1.52z" fill="#fff"/></g></g><g><path d="m4.01 46.65h48v2.23h-48z" fill="#6a9dae"/></g><g><path d="m26 33.76h24.19v1.14h-24.19z" fill="#ff9100"/></g><g><path d="m41.44 41.26h6.13v5.38h-6.13z" fill="#1b323a"/></g><g><path d="m47.82 46.64h-.5v-5.13h-5.63v5.13h-.5v-5.63h6.63z" fill="#ff9100"/></g><g><g><path d="m37.56 33.76h-4.48l1.04-19.15h2.4z" fill="#c00"/></g><g><path d="m36.66 17.21h-2.68l.03-.64h2.62z" fill="#fded04"/></g><g><path d="m36.74 18.73h-2.84l.03-.64h2.78z" fill="#fded04"/></g><g><path d="m36.83 20.25h-3.02l.04-.64h2.94z" fill="#fded04"/></g></g><g><g><path d="m46.32 33.76-.87-16.13h-2.4l-.88 16.13z" fill="#c00"/></g><g><path d="m45.59 20.23h-2.68l.03-.64h2.62z" fill="#fded04"/></g><g><path d="m45.67 21.75h-2.84l.03-.64h2.78z" fill="#fded04"/></g><g><path d="m45.76 23.27h-3.02l.04-.64h2.94z" fill="#fded04"/></g></g><g><circle cx="44.16" cy="37.8" fill="#ff9100" r="2.16"/></g><g><circle cx="44.16" cy="37.8" fill="#fded04" r="1.68"/></g></g></svg>