<svg id="Layer_1" enable-background="new 0 0 68 68" height="512" viewBox="0 0 68 68" width="512" xmlns="http://www.w3.org/2000/svg"><g id="_x35_1"><g><g><g><path d="m57.2 42.8v9.2c0 6.4.2 10.9 5.5 10.9 1.7-.3 2.5-1.8 2.9-3.1.3-.8.4-1.7.4-2.6v-12.2c0-1.2-.9-2.1-2.1-2.1z" fill="#dedffb"/></g><g><path d="m60.8 12.6-5.8 39c0 5.7 2.9 8.4 5.2 10.4-2.7-5.4 2.6-28.6 5.8-47.1.2-1.2-.6-2.2-1.6-2.2z" fill="#cccff2"/></g><g><path d="m57.2 6.2-2.1 45.4c0 5.7 2.9 8.4 5.2 10.4-2.7-5.4-1.1-35 2.1-53.5.2-1.2-.6-2.2-1.6-2.2z" fill="#dedffb"/></g><g><path d="m14.1 5.3v50.6c0 3.8 3.1 6.9 6.9 6.9h41.7c-4.6 0-4.8-5.9-4.8-10.9l-.7-46.6c0-1.5-1.2-2.8-2.8-2.8h-37.6c-1.5.1-2.7 1.3-2.7 2.8z" fill="#e9e7fc"/></g></g></g><g><g><g><path d="m12.3 60 2.4-1.4c-2.5-4.1-5.2-5-7.2-5.7-.3-.1-.5-.2-.8-.3-1.1-.4-2.2-1.5-1.9-2.8.2-1.4.9-1.7 1.1-1.8 1.5-.8 4.2.2 5 .5l1.2-2.5c-.5-.2-4.5-2-7.5-.5-.9.5-2.2 1.6-2.5 3.8-.4 2.5 1.1 4.9 3.7 5.9.3.1.6.2.9.3 1.8.6 3.7 1.3 5.6 4.5z" fill="#497bfe"/></g></g><g><g><path d="m12.3 60.8 2.4-1.4c-2.5-4.1-5.2-5-7.2-5.7-.3-.1-.5-.2-.8-.3-1.1-.4-2.2-1.5-1.9-2.8.2-1.4.9-1.7 1.1-1.9 1.5-.8 4.2.2 5 .5l1.2-2.5c-.5-.2-4.5-2-7.5-.5-.9.5-2.2 1.6-2.5 3.8-.4 2.5 1.1 4.9 3.7 5.9.3.1.6.2.9.3 1.8.7 3.7 1.3 5.6 4.6z" fill="#5094ff"/></g></g><g><path d="m5.7 55c-.9-.5-2-1.3-2.4-2.3-.5-1.3 0-2.6 1-3.1-.5.9-.7 1.9-.3 2.9.2.8 1 1.3 1.7 2.5z" fill="#fff"/></g><g><g><g><g><path d="m36.4 43.6c-.6 8.4-.7 8.9-2.1 17.4 0 .2-.1.4-.2.6-.5 1.6-1.9 2.8-3.5 3.1-5.1.9-10.2.9-15.3 0-1.9-.3-3.4-1.9-3.7-3.8-1.4-8.5-1.7-9.5-2.1-17.4h26.9z" fill="#5094ff"/></g><g><path d="m32.9 60.2c0-1 .1-1.9.2-2.8 0-.5.1-.9.1-1.4s.1-.9.1-1.4c.1.5.2 1 .2 1.5v1.4c0 .9-.2 1.8-.6 2.7z" fill="#fff"/></g><g><ellipse cx="23" cy="43.6" fill="#57b3fe" rx="13.5" ry="4"/></g><g><ellipse cx="23" cy="43.6" fill="#f3f1fc" rx="12.1" ry="2.8"/></g><g><g><path d="m11.9 44.7c1.8-1 6.1-1.7 11.1-1.7s9.3.7 11.1 1.7c-1.8 1-6.1 1.7-11.1 1.7s-9.3-.7-11.1-1.7z" fill="#bf7d5a"/></g></g><g><g><path d="m34 62.1c-.6 1.3-1.8 2.3-3.3 2.6-5.1.9-10.2.9-15.3 0-1.9-.3-3.4-1.9-3.7-3.8-1.4-8.5-1.7-9.5-2.1-17.4-.1.1 1.3 24 24.4 18.6z" fill="#497bfe"/></g></g></g></g></g></g><g><g><path d="m24.9 7.6v4.9l-3.6-5.2c-.5-.7-1.8-.4-1.8.5v6.2c0 .9 1.4.9 1.4 0v-4.9l3.6 5.2c.5.7 1.7.4 1.7-.5v-6.2c.1-.9-1.3-.9-1.3 0z" fill="#4c5c75"/></g><g><path d="m32.7 8.3c.4 0 .7-.3.7-.6 0-.4-.3-.7-.7-.7h-4.1c-.4 0-.7.3-.7.7v6.3c0 .4.3.7.7.7h4.1c.4 0 .7-.3.7-.6 0-.4-.3-.7-.7-.7h-3.5v-1.9h3.1c.4 0 .7-.3.7-.6 0-.4-.3-.7-.7-.7h-3.1v-1.9z" fill="#4c5c75"/></g><g><path d="m43.2 7.5-1.5 5-1.5-5c-.2-.7-1.3-.7-1.5 0l-1.5 5-1.5-5c-.2-.8-1.4-.6-1.3.1v.2l2 6.2c.3.9 1.4.7 1.6 0l1.5-4.6 1.5 4.6c.2.8 1.3.9 1.6 0l2-6.2c.2-.9-1.1-1.2-1.4-.3z" fill="#4c5c75"/></g><g><path d="m48.1 10.2c-.7-.2-1.7-.3-1.7-1s.9-1 1.6-1c.5 0 1.1.1 1.6.3s.9-.2.9-.6c0-.3-.2-.5-.4-.6-.6-.2-1.4-.4-2.1-.4-2 0-3 1.1-3 2.3 0 1.5 1.3 1.9 2.8 2.3.6.1 1.6.3 1.6.9 0 .4-.2 1-1.6 1-.7 0-1.3-.1-1.9-.4-.3-.1-.6-.1-.7.1-.3.3-.2.9.2 1.1.8.3 1.6.5 2.5.5 1.9 0 2.9-1.1 2.9-2.2 0-1.6-1.3-2-2.7-2.3z" fill="#4c5c75"/></g></g><g><g><g><g><g><path d="m45.5 33.3v6.2c0 .3-.3.6-.6.6h-2.5c-.3 0-.6-.3-.6-.6v-6.2c0-.3.3-.6.6-.6h2.5c.3 0 .6.3.6.6z" fill="#57b3fe"/></g></g><g><g><path d="m52 29.1v10.4c0 .3-.3.6-.6.6h-2.5c-.3 0-.6-.3-.6-.6v-10.4c0-.3.3-.6.6-.6h2.5c.3 0 .6.2.6.6z" fill="#ffd06c"/></g></g><g><path d="m51.4 34.3c-.2.8-.3 1.6-.3 2.4 0 .4 0 .8.1 1.2 0 .4.1.8.2 1.2.1-.4.1-.8.1-1.2s0-.8 0-1.2c.1-.9 0-1.7-.1-2.4z" fill="#fff"/></g></g><g><g><path d="m39 31.3v8.2c0 .3-.3.6-.6.6h-2.5c-.3 0-.6-.3-.6-.6v-8.2c0-.3.3-.6.6-.6h2.5c.4 0 .6.3.6.6z" fill="#78e75a"/></g></g><g><path d="m38.2 31.7c-.2.8-.3 1.6-.3 2.4s.1 1.6.3 2.4c.1-.8.1-1.7.2-2.4-.1-.8-.1-1.6-.2-2.4z" fill="#fff"/></g></g><g><g><g><path d="m33.5 30 7.2-4.7 2.2 2.9c.4.5 1 .6 1.5.2l8.7-6.3-.7-2.8-2 1.2-6.1 4.9c-.1.1-.4.1-.5-.1l-1.4-2.3c-.4-.6-1.1-.7-1.7-.3l-7.7 6.7c-.2.2-.2.4 0 .6.2.1.4.1.5 0z" fill="#f34b58"/></g><g><path d="m53.6 23.9 1.5-4.4c.2-.7-.4-1.5-1.2-1.3l-4.6 1c-.6.1-.6 1 0 1.2l2.8.7.3 2.8c.1.5 1 .6 1.2 0z" fill="#f34b58"/></g></g><g><path d="m45.9 26.5c.7-.4 1.3-.8 2-1.2.6-.4 1.3-.9 1.8-1.5-.7.3-1.4.8-2 1.2-.6.5-1.2 1-1.8 1.5z" fill="#fff"/></g></g></g><g><g><path d="m17.7 23.9h12c.2 0 .4-.2.4-.4v-1.8c0-.2-.2-.4-.4-.4h-12c-.2 0-.4.2-.4.4v1.8c0 .2.2.4.4.4z" fill="#dedffb"/></g></g><g><g><path d="m17.7 29.6h12c.2 0 .4-.2.4-.4v-1.8c0-.2-.2-.4-.4-.4h-12c-.2 0-.4.2-.4.4v1.8c0 .2.2.4.4.4z" fill="#dedffb"/></g></g><g><g><path d="m17.7 35.4h12c.2 0 .4-.2.4-.4v-1.8c0-.2-.2-.4-.4-.4h-12c-.2 0-.4.2-.4.4v1.8c0 .2.2.4.4.4z" fill="#dedffb"/></g></g><g><g><g><path d="m38.6 47.7h16.4c.2 0 .4-.2.4-.4v-1.8c0-.2-.2-.4-.4-.4h-16.4c-.2 0-.4.2-.4.4v1.8c0 .2.2.4.4.4z" fill="#dedffb"/></g></g><g><g><path d="m38.6 53.4h16.4c.2 0 .4-.2.4-.4v-1.8c0-.2-.2-.4-.4-.4h-16.4c-.2 0-.4.2-.4.4v1.8c0 .2.2.4.4.4z" fill="#dedffb"/></g></g><g><g><path d="m38.6 59.1h16.4c.2 0 .4-.2.4-.4v-1.8c0-.2-.2-.4-.4-.4h-16.4c-.2 0-.4.2-.4.4v1.8c0 .2.2.4.4.4z" fill="#dedffb"/></g></g></g></g></svg>