<svg id="Layer_1" enable-background="new 0 0 512 512" viewBox="0 0 512 512" xmlns="http://www.w3.org/2000/svg"><g><path d="m371.677 483.026c76.977-41.306 129.323-122.553 129.323-216.026 0-135.31-109.69-245-245-245s-245 109.69-245 245c0 93.473 52.346 174.72 129.323 216.026 2.445 1.312 228.909 1.312 231.354 0z" fill="#314dc9"/><circle cx="256" cy="267" fill="#4f66d0" r="200"/><path d="m168.45 185.144c0 16.089-4.512 31.124-12.338 43.91-1.142 1.865-2.714 3.438-4.58 4.58-12.786 7.827-27.821 12.338-43.91 12.338-46.362 0-84.226-37.864-84.226-84.226 0-16.083 4.508-31.112 12.329-43.895 1.148-1.876 2.729-3.457 4.605-4.605 12.782-7.821 27.812-12.329 43.895-12.329 46.361.001 84.226 37.865 84.225 84.227z" fill="#fee903"/><path d="m156.901 227.738c-14.63 24.908-41.7 41.63-72.676 41.63-46.516 0-84.225-37.708-84.225-84.225 0-30.975 16.722-58.045 41.63-72.676-7.34 12.497-11.55 27.054-11.55 42.595 0 46.516 37.709 84.225 84.225 84.225 15.541.001 30.099-4.208 42.596-11.549z" fill="#fed402"/><path d="m512 186.442c0 16.089-4.512 31.124-12.338 43.91-1.142 1.865-2.714 3.438-4.58 4.58-12.786 7.827-27.821 12.338-43.91 12.338-46.362 0-84.226-37.864-84.226-84.226 0-16.083 4.508-31.112 12.329-43.895 1.148-1.876 2.729-3.457 4.605-4.605 12.782-7.821 27.812-12.329 43.895-12.329 46.361.001 84.225 37.865 84.225 84.227z" fill="#fe7701"/><path d="m500.45 229.036c-14.63 24.908-41.7 41.63-72.676 41.63-46.516 0-84.225-37.709-84.225-84.225 0-30.975 16.722-58.045 41.63-72.676-7.34 12.497-11.55 27.054-11.55 42.595 0 46.516 37.709 84.225 84.225 84.225 15.542.001 30.1-4.208 42.596-11.549z" fill="#fd5426"/><path d="m340.225 84.226c0 16.089-4.512 31.124-12.338 43.91-1.142 1.865-2.714 3.438-4.58 4.58-12.786 7.827-27.821 12.338-43.91 12.338-46.362 0-84.226-37.864-84.226-84.226 0-16.083 4.508-31.112 12.329-43.895 1.148-1.876 2.729-3.457 4.605-4.605 12.782-7.82 27.812-12.328 43.894-12.328 46.362 0 84.226 37.864 84.226 84.226z" fill="#01c0fa"/><path d="m328.676 126.82c-14.63 24.908-41.7 41.63-72.676 41.63-46.516 0-84.225-37.709-84.225-84.225 0-30.975 16.722-58.045 41.63-72.676-7.34 12.497-11.55 27.054-11.55 42.595 0 46.516 37.709 84.225 84.225 84.225 15.541.001 30.099-4.209 42.596-11.549z" fill="#26a6fe"/><path d="m220 374.89h-11.122c-37.862 0-68.555 30.693-68.555 68.555v39.581c12.193 6.543 25.004 12.083 38.323 16.512.008.003.017.006.025.008 1.224.407 2.486-.514 2.486-1.803v-54.298c0-28.506 17.398-52.948 42.155-63.287 8.126-3.394-3.312-5.268-3.312-5.268z" fill="#e5eef9"/><path d="m371.677 443.445c0-37.862-30.693-68.555-68.555-68.555h-12.675l-6.946 3.557s-54.53-1.692-62.639 1.686c-24.789 10.325-42.215 34.783-42.215 63.312v56.093c21.276 7.074 43.848 11.31 67.266 12.258 1.1.045 7.819-4.835 10.087-4.835 2.233 0 8.889 4.883 9.992 4.838 38.115-1.529 73.988-11.765 105.685-28.774z" fill="#f2fbff"/><path d="m266 512h-20v-72.496c0-5.523 4.477-10 10-10 5.523 0 10 4.477 10 10z" fill="#8795de"/><path d="m262 443.848h-12c-2.209 0-4-1.791-4-4v-36h20v36c0 2.209-1.791 4-4 4z" fill="#a2aee6"/><path d="m292 414.89h-72c-2.209 0-4-1.791-4-4v-32c0-2.209 1.791-4 4-4h72c2.209 0 4 1.791 4 4v32c0 2.209-1.791 4-4 4z" fill="#d5daf3"/><path d="m279.531 201.081c-7.356-2.617-15.277-4.042-23.531-4.042-38.762 0-70.185 31.423-70.185 70.185v21.991c0 30.751 19.777 56.883 47.305 66.371v23.84c0 12.636 10.244 22.88 22.88 22.88 12.636 0 22.88-10.244 22.88-22.88v-23.84c.218-.075.435-.151.652-.228 1.301-.463 1.301-153.814-.001-154.277z" fill="#f6a96c"/><path d="m279.531 201.082c-27.061 9.534-46.41 34.879-46.41 64.648v24.979c0 29.77 19.35 55.115 46.41 64.648 27.188-9.673 46.654-35.634 46.654-66.142v-21.991c0-30.508-19.466-56.469-46.654-66.142z" fill="#ffbd86"/><path d="m124.422 246.556-21.25 5.694c-2.134.572-4.327-.695-4.899-2.828l-18.635-69.547c-.572-2.134.695-4.327 2.828-4.899l21.25-5.694c2.134-.572 4.327.695 4.899 2.828l18.635 69.547c.572 2.134-.695 4.327-2.828 4.899z" fill="#00f2a6"/><path d="m42.149 246.556 21.25 5.694c2.134.572 4.327-.695 4.899-2.828l18.635-69.547c.572-2.134-.695-4.327-2.828-4.899l-21.25-5.694c-2.134-.572-4.327.695-4.899 2.828l-18.635 69.547c-.572 2.134.694 4.327 2.828 4.899z" fill="#0ed2b3"/><path d="m96.273 124.988c3.306 2.979 7.535 4.731 11.98 4.962 9.922.516 17.851 8.445 18.368 18.368.231 4.444 1.983 8.674 4.962 11.98 6.651 7.381 6.651 18.594 0 25.976-2.979 3.306-4.731 7.535-4.962 11.98-.516 9.922-8.445 17.851-18.368 18.368-4.444.231-8.674 1.983-11.98 4.962-7.381 6.651-18.594 6.651-25.976 0-3.306-2.979-7.535-4.731-11.98-4.962-9.922-.516-17.851-8.445-18.368-18.368-.231-4.444-1.983-8.674-4.962-11.98-6.651-7.381-6.651-18.594 0-25.976 2.979-3.306 4.731-7.535 4.962-11.98.516-9.922 8.445-17.851 18.368-18.368 4.444-.231 8.674-1.983 11.98-4.962 7.382-6.651 18.595-6.651 25.976 0z" fill="#fd5426"/><path d="m218.5 128.392c-5.523 0-10-4.477-10-10v-26.667c0-5.523 4.477-10 10-10 5.523 0 10 4.477 10 10v26.667c0 5.523-4.477 10-10 10z" fill="#d5daf3"/><path d="m256 128.392c-5.523 0-10-4.477-10-10v-48.334c0-5.523 4.477-10 10-10 5.523 0 10 4.477 10 10v48.333c0 5.524-4.477 10.001-10 10.001z" fill="#e5eef9"/><path d="m293.5 128.392c-5.523 0-10-4.477-10-10v-68.334c0-5.523 4.477-10 10-10 5.523 0 10 4.477 10 10v68.333c0 5.524-4.477 10.001-10 10.001z" fill="#f2fbff"/><circle cx="427.775" cy="185" fill="#fea713" r="55"/><circle cx="427.775" cy="185" fill="#fef056" r="25"/><path d="m424.929 190.711c-3.905-3.905-3.905-10.237 0-14.142l63.64-63.64c3.905-3.905 10.237-3.905 14.142 0 3.905 3.905 3.905 10.237 0 14.142l-63.64 63.64c-3.905 3.905-10.237 3.905-14.142 0z" fill="#fed402"/><circle cx="83.285" cy="173.285" fill="#fe7701" r="35"/><path d="m108.114 176.827-12.858 6.745c-.719.377-1.307.965-1.684 1.684l-6.745 12.858c-1.498 2.856-5.586 2.856-7.084 0l-6.745-12.858c-.377-.719-.965-1.307-1.684-1.684l-12.858-6.745c-2.856-1.498-2.856-5.586 0-7.084l12.858-6.745c.719-.377 1.307-.965 1.684-1.684l6.745-12.858c1.498-2.856 5.586-2.856 7.084 0l6.745 12.858c.377.719.965 1.307 1.684 1.684l12.858 6.745c2.856 1.498 2.856 5.586 0 7.084z" fill="#fff"/><path d="m293.894 465.127h36c2.209 0 4-1.791 4-4v-17c0-2.209-1.791-4-4-4h-36c-2.209 0-4 1.791-4 4v17c0 2.209 1.79 4 4 4z" fill="#fed402"/></g><g/><g/><g/><g/><g/><g/><g/><g/><g/><g/><g/><g/><g/><g/><g/></svg>