<svg id="Cybersecurity_Audit" viewBox="0 0 64 64" xmlns="http://www.w3.org/2000/svg" data-name="Cybersecurity Audit"><path d="m53 2h-42c-3.31 0-6 2.69-6 6v34c0 3.31 2.69 6 6 6h3.06c.55 0 1-.45 1-1s-.45-1-1-1h-3.06c-2.21 0-4-1.79-4-4v-34c0-2.21 1.79-4 4-4h42c2.21 0 4 1.79 4 4v34c0 2.21-1.79 4-4 4h-3.06c-.55 0-1 .45-1 1s.45 1 1 1h3.06c3.31 0 6-2.69 6-6v-34c0-3.31-2.69-6-6-6z"/><path d="m12.94 18.35 2.06-5.5 2.06 5.5c.15.4.53.65.94.65.12 0 .24-.02.35-.06.52-.19.78-.77.59-1.29l-3-8c-.15-.39-.52-.65-.94-.65s-.79.26-.94.65l-3 8c-.19.52.07 1.09.59 1.29.52.19 1.09-.07 1.29-.58z"/><path d="m22 9c-.55 0-1 .45-1 1v5c0 2.21 1.79 4 4 4s4-1.79 4-4v-5c0-.55-.45-1-1-1s-1 .45-1 1v5c0 1.1-.9 2-2 2s-2-.9-2-2v-5c0-.55-.45-1-1-1z"/><path d="m34 19c2.76 0 5-2.24 5-5s-2.24-5-5-5h-2c-.55 0-1 .45-1 1v8c0 .55.45 1 1 1zm-1-8h1c1.65 0 3 1.35 3 3s-1.35 3-3 3h-1z"/><path d="m43 18v-8c0-.55-.45-1-1-1s-1 .45-1 1v8c0 .55.45 1 1 1s1-.45 1-1z"/><path d="m49 19c.55 0 1-.45 1-1v-7h2c.55 0 1-.45 1-1s-.45-1-1-1h-6c-.55 0-1 .45-1 1s.45 1 1 1h2v7c0 .55.45 1 1 1z"/><path d="m13 24h38c.55 0 1-.45 1-1s-.45-1-1-1h-38c-.55 0-1 .45-1 1s.45 1 1 1z"/><path d="m46.33 33.02-14-4.97c-.22-.08-.45-.08-.67 0l-14 4.97c-.4.14-.67.52-.67.94v11.39c0 7.98 4.63 13.47 13.76 16.3l.95.29c.1.03.2.04.3.04s.2-.01.3-.04l.95-.29c9.13-2.84 13.76-8.32 13.76-16.3v-11.39c0-.42-.27-.8-.67-.94zm-1.33 12.33c0 7-4.15 11.85-12.35 14.39l-.65.2-.65-.2c-8.19-2.55-12.35-7.39-12.35-14.39v-10.69l13-4.61 13 4.61z"/><path d="m31.66 32.06-10 3.65c-.39.14-.66.52-.66.94v8.67c0 6.2 3.5 10.33 10.7 12.63.1.03.2.05.3.05s.21-.02.3-.05c7.2-2.3 10.7-6.44 10.7-12.63v-8.67c0-.42-.26-.79-.66-.94l-10-3.65c-.22-.08-.46-.08-.69 0zm9.34 5.29v7.97c0 5.28-2.78 8.56-9 10.63-6.22-2.07-9-5.35-9-10.63v-7.97l9-3.29z"/><path d="m27.72 43.81c-.38-.4-1.01-.42-1.41-.03-.4.38-.42 1.01-.03 1.41l3.33 3.5c.19.2.45.31.72.31s.54-.11.72-.31l6.67-7c.38-.4.37-1.03-.03-1.41s-1.03-.36-1.41.04l-5.94 6.24-2.61-2.74z"/></svg>