<svg id="Layer_1" enable-background="new 0 0 512 512" viewBox="0 0 512 512" xmlns="http://www.w3.org/2000/svg"><g><path clip-rule="evenodd" d="m358.7 290.3c21.1-2.2 41.9 10.5 48.9 31.5 39.5-3.5 73.4 27.5 73.4 67 0 36.5-29 66.1-65.2 67.3h-212.5c-37.2 0-67.3-30.1-67.3-67.3 0-27.4 16.4-50.9 39.9-61.5-7.9-56.2 35.7-106.5 92.6-106.5 43.2.1 79.6 29.6 90.2 69.5zm-327.7-234.5h312.3v120.5c-104.1 0-208.2 0-312.3 0 0-40.2 0-80.4 0-120.5z" fill="#d2e5f6" fill-rule="evenodd"/><path d="m249.4 400.1c-1.6 2.9-5.2 4-8.1 2.4s-4-5.2-2.4-8.1l52-95c2.3-4.2 8.5-4.3 10.7.4l47.1 93.8c2.6 5.3-3.2 10.9-8.4 7.8l-58-33.4c-2.8-1.6-3.8-5.3-2.2-8.2s5.3-3.8 8.1-2.2l40.8 23.6-33.1-66zm113.7-116c20.9-.1 40.1 12.2 48.5 31.5 40.9-1.4 75.4 31.9 75.4 73.3 0 39.6-31.5 72.1-71 73.2-.1 0-.2 0-.3 0l-212.4.1c-28.2 0-53.1-16-65.4-40.2h-106.9c-3.3 0-6-2.7-6-6v-360.2c0-3.3 2.7-6 6-6h312.3c3.3 0 6 2.7 6 6v200.8c5.9 8.3 10.6 17.5 13.8 27.5zm-230 125.9c-10.2-33.8 5.3-69.9 36.3-86.1-5.6-58.4 40.3-109 99-109 26.4 0 50.8 10.4 68.9 27.8v-60.4h-300.3v227.7zm252.4-107.4c-7.6-4.9-16.8-7.3-26.1-6.3-2.9.4-5.8-1.5-6.5-4.4-10-37.8-44.5-64.9-84.6-64.9-53.2 0-94 47.1-86.6 99.7.4 2.6-1 5.2-3.5 6.3-39.1 17.4-48.8 68.9-18.3 99.3 11.1 11.1 26.4 17.9 43.4 17.9h212.4c16.5-.5 31.3-7.6 42.1-18.7 24-24.8 22.8-64.6-2.7-87.9-12.4-11.4-29.4-17.4-46.9-15.8-2.7.2-5.3-1.4-6.2-4.1-3.1-9-9-16.3-16.5-21.1zm-233.5-165.4c2.6 2 3.1 5.8 1.1 8.4s-5.8 3.1-8.4 1.1l-33.8-25.9c-3.2-2.5-3.1-7.2.1-9.6l33.8-25.9c2.6-2 6.4-1.5 8.4 1.1s1.5 6.4-1.1 8.4l-27.8 21.2zm47-53.8c1.7-2.9 5.3-3.8 8.2-2.2 2.9 1.7 3.8 5.3 2.2 8.2l-34.2 59.2c-1.6 2.9-5.3 3.8-8.2 2.2-2.9-1.7-3.9-5.3-2.2-8.2zm30.6 63.3c-2.6 2-6.4 1.5-8.4-1.1s-1.5-6.4 1.1-8.4l27.6-21.2-27.6-21.2c-2.6-2-3.1-5.8-1.1-8.4s5.8-3.1 8.4-1.1l33.8 25.9c3.1 2.4 3.3 7.1.1 9.6zm-160.6 187.6c-3.3 0-6-2.7-6-6s2.7-6 6-6h44.3c3.3 0 6 2.7 6 6s-2.7 6-6 6zm0-37.5c-3.3 0-6-2.7-6-6s2.7-6 6-6h88.6c3.3 0 6 2.7 6 6s-2.7 6-6 6zm0-37.5c-3.3 0-6-2.7-6-6s2.7-6 6-6h88.6c3.3 0 6 2.7 6 6s-2.7 6-6 6zm0-37.5c-3.3 0-6-2.7-6-6s2.7-6 6-6h88.6c3.3 0 6 2.7 6 6s-2.7 6-6 6zm268.3-160h-300.3v108.5h300.3z" fill="#4861ad"/></g></svg>