<svg id="Capa_1" enable-background="new 0 0 512 512" height="512" viewBox="0 0 512 512" width="512" xmlns="http://www.w3.org/2000/svg"><g><g><g><path d="m437 0h-332v30c8.27 0 15 6.73 15 15v60h299.5l31.5-15h61v-15c0-41.35-33.64-75-75-75z" fill="#d5e8fe"/></g></g><path d="m512 75v15h-61l-31.5 15h-103.5v-105h121c41.36 0 75 33.65 75 75z" fill="#b5dbff"/><g><g><path d="m150 90v-45c0-24.81-20.19-45-45-45s-45 20.19-45 45v317l-15 13.33v31.67c0 8.27-6.73 15-15 15v30h346c41.36 0 75-33.65 75-75v-287z" fill="#edf5ff"/></g></g><path d="m451 90v287c0 41.35-33.64 75-75 75h-60v-362z" fill="#d5e8fe"/><g><g><path d="m0 422v-60h60v60c0 16.569-13.431 30-30 30-16.569 0-30-13.431-30-30z" fill="#d5e8fe"/></g></g><path d="m361 398.97v113.03l-45-27.43-45 27.43v-113.03z" fill="#e6455f"/><path d="m361 398.97v113.03l-45-27.43v-85.6z" fill="#cc3d3d"/><g><path d="m151 152h210v30h-210z" fill="#5c6699"/></g><g><path d="m151 212h210v30h-210z" fill="#5c6699"/></g><path d="m316 152h45v30h-45z" fill="#404a80"/><path d="m316 212h45v30h-45z" fill="#404a80"/><g><path d="m151 272h60v30h-60z" fill="#5c6699"/></g><g><path d="m151 332h60v30h-60z" fill="#5c6699"/></g><g><path d="m316 272c-41.35 0-75 33.65-75 75s33.65 75 75 75c41.36 0 75-33.65 75-75s-33.64-75-75-75z" fill="#f69"/><path d="m391 347c0 41.35-33.64 75-75 75v-150c41.36 0 75 33.65 75 75z" fill="#e6455f"/></g><g><path d="m301 332h30v30h-30z" fill="#e6455f"/></g><path d="m316 332h15v30h-15z" fill="#cc3d3d"/></g></svg>