<svg id="Layer_1" height="512" viewBox="0 0 216.8763 226.4819" width="512" xmlns="http://www.w3.org/2000/svg"><g><path d="m174.0398 6.0157c-1.8828-3.9956-6.6514-5.709-10.6475-3.8252-6.4495 3.0406-12.1782 7.2928-17.1531 11.9666 9.6302-3.8462 19.2861-6.1802 28.2935-6.7733-.1226-.4621-.2818-.9203-.4929-1.3681z"/><path d="m137.5857 53.044c.0621-.1363 3.3-7.0873 9.1062-15.1328-1.7556.8985-3.5009 1.8466-5.2273 2.8492-9.0735 5.27-16.9862 11.569-23.1961 18.1537l12.8055-1.2305c2.8388-.2729 5.3222-2.0468 6.5117-4.6396z"/><path d="m31.9399 213.9868c0 6.8301 5.537 12.3633 12.3652 12.3633 6.8262 0 12.3633-5.5332 12.3633-12.3633v-81.9228l-24.7285 14.3614z"/><path d="m45.3161 110.6339c-3.8727-2.9606-8.4118-6.201-13.3762-9.5015v17.2701z"/><path d="m84.529 115.8835-5.8188 3.3793c.0939.72.1365 1.4272.1365 2.127 0 5.6797-4.6201 10.2998-10.2998 10.2998-1.1258 0-2.21-.1943-3.2307-.5355l17.9759 85.5058c1.4052 6.684 7.9622 10.9597 14.6442 9.5549 6.6802-1.4044 10.9604-7.9584 9.5553-14.6423l-20.5181-97.5985c-.7214.7289-1.5322 1.3798-2.4445 1.9095z"/><path d="m73.4905 20.0448c1.4014-1.6758 3.3706-2.7041 5.5454-2.8975.2451-.0215.4888-.0322.7305-.0322 3.3422 0 6.2073 1.9748 7.4731 4.8743l3.2603-.2901c.8072-3.3065 3.6378-5.8954 7.2119-6.2141.2461-.0215.4888-.0322.7305-.0322 1.2848 0 2.4979.2957 3.5793.819-2.2535-7.7928-8.6516-14.0989-17.154-15.8202-12.1787-2.4656-24.0514 5.4083-26.5172 17.588-.4479 2.2123-.5504 4.4137-.3521 6.5512l13.8226-1.2298c.2917-1.2048.8508-2.3378 1.6697-3.3164z"/><path d="m101.094 31.3528c-.6192.2118-1.2646.3591-1.9332.4186-.2451.0215-.4888.0322-.73.0322-.0005 0-.0005 0-.0005 0-4.2607 0-7.7588-3.2031-8.1367-7.4502-.0075-.0842-.0047-.1667-.0096-.2505l-2.4149.2148c.0099.0834.0264.1644.0339.2485.3994 4.4883-2.9282 8.4668-7.418 8.8672-.2456.0215-.4888.0322-.73.0322-.0005 0-.0005 0-.001 0-4.2607 0-7.7588-3.2031-8.1367-7.4512-.0074-.0836-.0051-.1664-.01-.2499l-13.267 1.1805c1.7361 8.606 8.4536 15.7607 17.598 17.612 10.6469 2.1554 21.0562-3.5897 25.1557-13.2042z"/><path d="m98.9572 29.4804c3.2314-.2875 5.6188-3.1402 5.3312-6.3726-.2875-3.2314-3.1411-5.6187-6.3726-5.3312-3.2313.2875-5.6187 3.1411-5.3312 6.3726.2876 3.2323 3.1413 5.6187 6.3726 5.3312z"/><path d="m79.2397 19.4383c-3.2313.2875-5.6188 3.1411-5.3312 6.3725.2876 3.2324 3.1412 5.6188 6.3726 5.3312 3.2314-.2875 5.6188-3.1402 5.3312-6.3725-.2876-3.2314-3.1412-5.6187-6.3726-5.3312z"/><path d="m58.3204 122.6271c-1.0334-1.9259-4.8406-5.5533-10.4521-10.0066l-43.5102 25.2698c-4.1797 2.4277-5.6006 7.7842-3.1729 11.9639l.3662.6299c2.4277 4.1807 7.7842 5.6006 11.9639 3.1729l46.275-26.8749c-.7672-1.2363-1.2875-2.6421-1.4699-4.155z"/><path d="m209.99 66.2848c7.6211-12.6064 8.9658-24.46 3.7881-33.3769l-5.4629-9.4053c-5.1787-8.915-16.1631-13.625-30.8672-13.251-14.1836.3584-30.3301 5.3965-45.4639 14.1855-15.1338 8.79-27.5107 20.3174-34.8506 32.46-7.6211 12.6074-8.9658 24.4609-3.7871 33.3779.0811.1396.1758.2686.2588.4062l-11.3828 6.6113c-2.5566-1.2959-5.6943-1.3164-8.3574.2295l-7.0798 4.1118c6.6544 6.0103 9.8577 10.5857 11.2088 14.576l5.0283-2.9202c2.6631-1.5469 4.1992-4.2832 4.3408-7.1455l11.3721-6.6045c.0264.0459.0469.0938.0732.1396 4.9893 8.5898 15.3428 13.2715 29.2607 13.2715.5303 0 1.0674-.0068 1.6074-.0205 14.1836-.3584 30.3301-5.3965 45.4639-14.1855 15.1338-8.7899 27.5097-20.3173 34.8496-32.4599zm-42.8233 18.7305c-26.2842 15.2656-54.0527 17.8232-66.0078 7.0107-3.4678-15.7422 12.5156-38.5947 38.7988-53.8594 15.5527-9.0332 31.6279-13.6201 44.6396-13.6201 8.9648 0 16.4639 2.1885 21.3457 6.5908 1.4219 6.5625-.5039 14.5713-5.6934 23.1563-6.9129 11.4365-18.662 22.3467-33.0829 30.7217z"/><path d="m164.6703 76.7091c-22.2139 14.3024-46.6022 16.325-55.844 4.9962.2619.5294.5429 1.0488.8659 1.5505 8.3121 12.91 33.7861 11.3127 56.8966-3.567 23.1113-14.8802 35.1087-37.4088 26.7966-50.3188-.2539-.3943-.541-.7602-.8286-1.1253-.0783-.0994-.1456-.2084-.2256-.3063.0471.0952.0837.1949.1289.291 6.1778 13.1248-5.7356 34.2801-27.7898 48.4797z"/><path d="m20.8605 91.4405c19.2236 11.4375 37.5723 25.5762 39.709 30.5586.3115 4.1338 3.7646 7.3906 7.9775 7.3906 4.418 0 8-3.582 8-8 0-5.667-3.0439-13.1006-25.125-28.9932-6.3545-4.5723-12.6465-8.6572-16.9365-11.3564 3.5756-10.5573 6.83-16.958 9.6102-20.9083l2.0522 1.1183c-2.5158 3.4877-5.5334 9.2301-8.8949 18.8193 4.1484 2.6387 9.8018 6.3516 15.5127 10.46 4.6262 3.3299 8.4606 6.3122 11.6392 9.0181l7.9532-4.6191c1.79-1.0391 3.8242-1.5879 5.8838-1.5879 1.2725 0 2.5459.21 3.7539.6143l6.1982-3.5992.5944-2.8273c-3.282-9.2267-1.3073-20.4626 5.7778-32.1828 2.2663-3.7491 5.0009-7.4362 8.123-11.0082l-13.3564 1.2834c-2.7836 1.0828-5.7868 1.6882-8.9049 1.6882-1.6504 0-3.3145-.168-4.9453-.498-4.6666-.9442-8.8638-3.16-12.2176-6.3785l-11.4465-2.4064c-.4868-.1024-.972-.1519-1.4517-.1609-.0278-.0023-.0558-.0027-.0836-.0046-.0098-.0001-.0197-.0008-.0295-.0009-1.0078-.0677-2.0448.0516-3.0623.3909-5.5399 1.8466-11.3144 5.1801-17.1809 14.2067-4.2071 6.4732-8.4614 15.8687-12.7107 29.7689-1.077 3.524.3937 7.3297 3.5607 9.2144z"/></g></svg>