<?xml version="1.0" encoding="UTF-8"?>
<svg xmlns="http://www.w3.org/2000/svg" viewBox="0 0 512 512" width="512" height="512"><g id="OUTLINE"><rect x="48" y="48" width="16" height="16"/><path d="M456,64H304V56a40.04521,40.04521,0,0,0-40-40H56A40.04521,40.04521,0,0,0,16,56V232a40.04521,40.04521,0,0,0,40,40H208v8a40.0261,40.0261,0,0,0,.65417,7.15839A39.95365,39.95365,0,0,0,200,312v10.6665A39.95789,39.95789,0,0,0,210.18408,349.332L222.11182,338.668A23.97885,23.97885,0,0,1,216,322.6665V312a24.00441,24.00441,0,0,1,.98694-6.77252A39.93567,39.93567,0,0,0,248,320h16v2.6665a23.93649,23.93649,0,0,1-14.76953,22.15381L193.08936,368.2124A55.98485,55.98485,0,0,0,161.502,402.19629l-17.09131,51.27392,15.17872,5.05958,17.0913-51.27393a39.98838,39.98838,0,0,1,22.563-24.27393L240,366.00018l40.75635,16.98175A39.97593,39.97593,0,0,1,300.05518,400H248a7.99977,7.99977,0,0,0-8,8v3.05591l-20.42236-10.21118A7.99974,7.99974,0,0,0,208,408v48a7.99971,7.99971,0,0,0,11.57764,7.15527L240,452.94409V456a7.99977,7.99977,0,0,0,8,8h80a7.99977,7.99977,0,0,0,8-8V408a7.99977,7.99977,0,0,0-8-8H317.69958a55.97287,55.97287,0,0,0-30.78942-31.7876l-26.615-11.08941A39.86947,39.86947,0,0,0,280,322.6665V320h72V456a24.02687,24.02687,0,0,1-24,24H152a24.02687,24.02687,0,0,1-24-24V288H112V456a40.04521,40.04521,0,0,0,40,40H360a40.04521,40.04521,0,0,0,40-40V320h56a40.04521,40.04521,0,0,0,40-40V104A40.04521,40.04521,0,0,0,456,64ZM240,435.05585l-16,7.99981V420.94434l16,7.99981ZM320,416v32H256V416ZM264,32a24.0275,24.0275,0,0,1,24,24v8H272V56a39.79083,39.79083,0,0,0-8.02185-24ZM208,224H160V192h48Zm0-120v51.37152a55.97614,55.97614,0,0,0-17.08984-11.15912l-26.615-11.08941A39.86947,39.86947,0,0,0,184,98.6665V88a40,40,0,0,0-80,0V98.6665A39.957,39.957,0,0,0,114.18408,125.332L126.11182,114.668A23.97885,23.97885,0,0,1,120,98.6665V88a24,24,0,0,1,48,0V98.6665a23.93649,23.93649,0,0,1-14.76953,22.15381L97.08936,144.2124a55.98485,55.98485,0,0,0-31.58741,33.98389L48.41064,229.47021l15.17872,5.05958,17.0913-51.27393a39.987,39.987,0,0,1,22.563-24.27393L144,142.00018l40.75635,16.98175A39.97593,39.97593,0,0,1,204.05518,176H152a7.99977,7.99977,0,0,0-8,8v3.05591l-20.42236-10.21118A7.99974,7.99974,0,0,0,112,184v48a7.99971,7.99971,0,0,0,11.57764,7.15527L144,228.94409V232a7.99977,7.99977,0,0,0,8,8h56v16H56a24.02687,24.02687,0,0,1-24-24V56A24.02687,24.02687,0,0,1,56,32H232a24.02687,24.02687,0,0,1,24,24v8h-8A40.04521,40.04521,0,0,0,208,104ZM144,204.94415v6.1117l-16,7.99981V196.94434ZM384,456a24.0275,24.0275,0,0,1-24,24h-.02185A39.79083,39.79083,0,0,0,368,456V320h16Zm64-176a24.02687,24.02687,0,0,1-24,24H248a24.02687,24.02687,0,0,1-24-24V104a24.02687,24.02687,0,0,1,24-24H424a24.02687,24.02687,0,0,1,24,24Zm32,0a24.02687,24.02687,0,0,1-24,24h-.02185A39.79083,39.79083,0,0,0,464,280V104a39.79083,39.79083,0,0,0-8.02185-24H456a24.02687,24.02687,0,0,1,24,24Z"/><rect x="240" y="96" width="16" height="16"/><path d="M424,224H413.69958a55.97287,55.97287,0,0,0-30.78942-31.7876l-26.615-11.08941A39.86947,39.86947,0,0,0,376,146.6665V136a40,40,0,0,0-80,0v10.6665A39.957,39.957,0,0,0,306.18408,173.332L318.11182,162.668A23.97885,23.97885,0,0,1,312,146.6665V136a24,24,0,0,1,48,0v10.6665a23.93649,23.93649,0,0,1-14.76953,22.15381L289.08936,192.2124A55.98485,55.98485,0,0,0,257.502,226.19629l-17.09131,51.27392,15.17872,5.05958,17.0913-51.27393a39.987,39.987,0,0,1,22.563-24.27393L336,190.00018l40.75635,16.98175A39.97593,39.97593,0,0,1,396.05518,224H344a7.99977,7.99977,0,0,0-8,8v3.05591l-20.42236-10.21118A7.99974,7.99974,0,0,0,304,232v48a7.99971,7.99971,0,0,0,11.57764,7.15527L336,276.94409V280a7.99977,7.99977,0,0,0,8,8h80a7.99977,7.99977,0,0,0,8-8V232A7.99977,7.99977,0,0,0,424,224Zm-88,35.05585-16,7.99981V244.94434l16,7.99981ZM416,272H352V240h64Z"/><rect x="424" y="344" width="16" height="16"/><rect x="424" y="376" width="16" height="72"/><rect x="72" y="464" width="16" height="16"/><rect x="72" y="376" width="16" height="72"/></g></svg>
