<svg id="Capa_1" enable-background="new 0 0 512 512" viewBox="0 0 512 512" xmlns="http://www.w3.org/2000/svg"><g><circle cx="256" cy="120" fill="#6ed5a1" r="104"/><path d="m318.456 36.835c15.621 18.194 25.061 41.851 25.061 67.712 0 57.438-46.562 104-104 104-23.438 0-45.065-7.754-62.456-20.835 19.073 22.215 47.363 36.288 78.939 36.288 57.438 0 104-46.562 104-104 0-34-16.315-64.188-41.544-83.165z" fill="#46cc8d"/><path d="m512 460c0 19.882-42.981 36-96 36s-96-16.118-96-36v-192c0 19.882 192 19.882 192 0z" fill="#b3dafe"/><ellipse cx="416" cy="268" fill="#d8ecfe" rx="96" ry="36"/><g fill="#60b7ff"><path d="m400.008 343.166c-.186 0-.373-.007-.562-.021-30.812-2.214-46.93-9.846-51.136-12.132-3.749-2.038-5.136-6.729-3.099-10.478 2.038-3.749 6.727-5.137 10.478-3.099 6.916 3.759 22.816 8.711 44.864 10.296 4.257.306 7.459 4.004 7.152 8.26-.291 4.069-3.682 7.174-7.697 7.174z"/><path d="m400.008 407.177c-.186 0-.373-.007-.562-.021-30.812-2.214-46.93-9.846-51.136-12.132-3.749-2.038-5.136-6.729-3.099-10.478 2.038-3.75 6.727-5.137 10.478-3.099 6.916 3.759 22.816 8.711 44.864 10.296 4.257.306 7.459 4.004 7.152 8.26-.291 4.069-3.682 7.174-7.697 7.174z"/><path d="m400.008 471.094c-.186 0-.373-.007-.562-.021-30.81-2.214-46.929-9.845-51.135-12.131-3.749-2.038-5.137-6.729-3.1-10.478 2.038-3.75 6.728-5.137 10.478-3.1 6.917 3.759 22.817 8.711 44.865 10.296 4.257.306 7.459 4.004 7.152 8.26-.292 4.068-3.683 7.174-7.698 7.174z"/></g><g fill="#8ac9fe"><path d="m512 388.225c0 9.477-10.249 18.755-28.118 25.456-18.132 6.8-42.24 10.544-67.882 10.544s-49.75-3.744-67.882-10.544c-17.869-6.701-28.118-15.979-28.118-25.456v27.741c5.957 4.655 13.563 8.76 22.692 12.183 19.824 7.434 45.859 11.528 73.308 11.528s53.484-4.094 73.308-11.528c9.129-3.423 16.735-7.529 22.692-12.183z"/><path d="m342.692 364.15c19.824 7.434 45.859 11.528 73.308 11.528s53.484-4.094 73.308-11.528c9.129-3.423 16.735-7.529 22.692-12.183v-27.741c0 9.477-10.249 18.755-28.118 25.456-18.132 6.8-42.24 10.544-67.882 10.544s-49.75-3.744-67.882-10.544c-17.869-6.702-28.118-15.98-28.118-25.457v27.741c5.957 4.655 13.563 8.761 22.692 12.184z"/></g><g><g><g><g><circle cx="480" cy="324.572" fill="#26a6fe" r="7.726"/></g></g></g></g><g><g><g><g><circle cx="448" cy="333.547" fill="#26a6fe" r="7.726"/></g></g></g></g><g><g><g><g><circle cx="480" cy="388.583" fill="#26a6fe" r="7.726"/></g></g></g></g><g><g><g><g><circle cx="448" cy="397.558" fill="#26a6fe" r="7.726"/></g></g></g></g><g><g><g><g><circle cx="480" cy="452.499" fill="#26a6fe" r="7.726"/></g></g></g></g><g><g><g><g><circle cx="448" cy="461.474" fill="#26a6fe" r="7.726"/></g></g></g></g><path d="m445.329 200.773h-12.043c-.711 0-1.288-.577-1.288-1.288l.002-61.73c0-17.069-13.837-30.906-30.905-30.906h-290.189c-17.069 0-30.906 13.837-30.906 30.906l.001 118.245h31.997v-112c0-2.845 2.306-5.151 5.151-5.151h277.701c2.845 0 5.151 2.306 5.151 5.151v55.486c0 .711-.577 1.288-1.288 1.288h-12.043c-1.08 0-1.68 1.249-1.005 2.092l29.329 36.651c.515.644 1.495.644 2.011 0l29.329-36.651c.675-.843.075-2.093-1.005-2.093z" fill="#26a6fe"/><path d="m192 460c0 19.882-42.981 36-96 36s-96-16.118-96-36v-192c0 19.882 192 19.882 192 0z" fill="#b3dafe"/><ellipse cx="96" cy="268" fill="#d8ecfe" rx="96" ry="36"/><path d="m80.008 343.166c-.186 0-.373-.007-.562-.021-30.812-2.214-46.93-9.846-51.136-12.132-3.749-2.038-5.136-6.729-3.099-10.478 2.038-3.749 6.727-5.137 10.478-3.099 6.916 3.759 22.816 8.711 44.864 10.296 4.257.306 7.459 4.004 7.152 8.26-.291 4.069-3.682 7.174-7.697 7.174z" fill="#60b7ff"/><path d="m80.008 407.177c-.186 0-.373-.007-.562-.021-30.812-2.214-46.93-9.846-51.136-12.132-3.749-2.038-5.136-6.729-3.099-10.478 2.038-3.75 6.727-5.137 10.478-3.099 6.916 3.759 22.816 8.711 44.864 10.296 4.257.306 7.459 4.004 7.152 8.26-.291 4.069-3.682 7.174-7.697 7.174z" fill="#60b7ff"/><path d="m80.008 471.094c-.186 0-.373-.007-.562-.021-30.81-2.214-46.929-9.845-51.135-12.131-3.749-2.038-5.137-6.729-3.1-10.478 2.038-3.75 6.728-5.137 10.478-3.1 6.917 3.759 22.817 8.711 44.865 10.296 4.257.306 7.459 4.004 7.152 8.26-.292 4.068-3.683 7.174-7.698 7.174z" fill="#60b7ff"/><g fill="#8ac9fe"><path d="m192 388.225c0 9.477-10.248 18.755-28.118 25.456-18.132 6.8-42.24 10.544-67.882 10.544s-49.75-3.744-67.882-10.544c-17.87-6.701-28.118-15.979-28.118-25.456v27.741c5.957 4.655 13.563 8.76 22.692 12.183 19.824 7.434 45.859 11.528 73.308 11.528s53.484-4.094 73.308-11.528c9.129-3.423 16.735-7.529 22.692-12.183z"/><path d="m22.692 364.15c19.824 7.434 45.859 11.528 73.308 11.528s53.484-4.094 73.308-11.528c9.129-3.423 16.735-7.529 22.692-12.183v-27.741c0 9.477-10.248 18.755-28.118 25.456-18.132 6.8-42.24 10.544-67.882 10.544s-49.75-3.744-67.882-10.544c-17.87-6.702-28.118-15.98-28.118-25.457v27.741c5.957 4.655 13.563 8.761 22.692 12.184z"/></g><g><g><g><g><circle cx="160" cy="324.572" fill="#26a6fe" r="7.726"/></g></g></g></g><g><g><g><g><circle cx="128" cy="333.547" fill="#26a6fe" r="7.726"/></g></g></g></g><g><g><g><g><circle cx="160" cy="388.583" fill="#26a6fe" r="7.726"/></g></g></g></g><g><g><g><g><circle cx="128" cy="397.558" fill="#26a6fe" r="7.726"/></g></g></g></g><g><g><g><g><circle cx="160" cy="452.499" fill="#26a6fe" r="7.726"/></g></g></g></g><g><g><g><g><circle cx="128" cy="461.474" fill="#26a6fe" r="7.726"/></g></g></g></g></g><g/><g/><g/><g/><g/><g/><g/><g/><g/><g/><g/><g/><g/><g/><g/></svg>