<svg height="512" viewBox="0 0 64 64" width="512" xmlns="http://www.w3.org/2000/svg"><g id="Icons"><g><g><path d="m38 19.471v-3.471h-2l-4-6h-24v16h32.46c-1.549-1.796-2.46-4.107-2.46-6.529z" fill="#be7800"/></g><g><path d="m38.035 20h-26.035v6h28.46c-1.435-1.664-2.304-3.771-2.425-6z" fill="#f0f0f0"/></g><g><path d="m12 20h4v6h-4z" fill="#d2d2d2"/></g><g><path d="m40 6h4.111c1.242 0 2.467-.289 3.578-.845l2.311-1.155 2.311 1.155c1.111.556 2.336.845 3.578.845h4.111v13.47c0 2.81-1.474 5.414-3.884 6.86l-6.116 3.67-6.116-3.67c-2.41-1.445-3.884-4.049-3.884-6.86z" fill="#3cc8b4"/></g><g><path d="m45.884 26.33c-2.41-1.445-3.884-4.049-3.884-6.86v-13.47h-2v13.47c0 2.81 1.474 5.414 3.884 6.86l6.116 3.67 1-.6z" fill="#1eaa96"/></g><g><path d="m6 52h24v2h-24z" fill="#288cb4"/></g><g><path d="m31 60h-26c-.552 0-1-.448-1-1v-4c0-.552.448-1 1-1h26c.552 0 1 .448 1 1v4c0 .552-.448 1-1 1z" fill="#64c8f0"/></g><g><path d="m31 52h-26c-.552 0-1-.448-1-1v-4c0-.552.448-1 1-1h26c.552 0 1 .448 1 1v4c0 .552-.448 1-1 1z" fill="#64c8f0"/></g><g><path d="m8 51v-4c0-.552.448-1 1-1h-4c-.552 0-1 .448-1 1v4c0 .552.448 1 1 1h4c-.552 0-1-.448-1-1z" fill="#46aad2"/></g><g><path d="m6 44h24v2h-24z" fill="#288cb4"/></g><g><path d="m31 44h-26c-.552 0-1-.448-1-1v-4c0-.552.448-1 1-1h26c.552 0 1 .448 1 1v4c0 .552-.448 1-1 1z" fill="#64c8f0"/></g><g><path d="m50 32.333-7.145-4.287c-.917-.55-1.712-1.253-2.396-2.045h-32.459v10h23c1.654 0 3 1.346 3 3v4c0 .768-.29 1.469-.766 2 .476.53.766 1.231.766 1.999v4c0 .768-.29 1.469-.766 2 .476.531.766 1.232.766 2v4c0 .352-.072.686-.184 1h22.184v-31.268z" fill="#fab400"/></g><g><path d="m8 26h4v10h-4z" fill="#dc9600"/></g><g><path d="m8 43v-4c0-.552.448-1 1-1h-4c-.552 0-1 .448-1 1v4c0 .552.448 1 1 1h4c-.552 0-1-.448-1-1z" fill="#46aad2"/></g><g><path d="m8 59v-4c0-.552.448-1 1-1h-4c-.552 0-1 .448-1 1v4c0 .552.448 1 1 1h4c-.552 0-1-.448-1-1z" fill="#46aad2"/></g><g><path d="m11 42c-.552 0-1-.448-1-1 0-.552.448-1 1-1 .552 0 1 .448 1 1 0 .552-.448 1-1 1z" fill="#fa6450"/></g><g><path d="m11 50c-.552 0-1-.448-1-1 0-.552.448-1 1-1 .552 0 1 .448 1 1 0 .552-.448 1-1 1z" fill="#fa6450"/></g><g><path d="m11 58c-.552 0-1-.448-1-1 0-.552.448-1 1-1 .552 0 1 .448 1 1 0 .552-.448 1-1 1z" fill="#fa6450"/></g><g><path d="m55 24h-10c-.552 0-1-.448-1-1v-8c0-.552.448-1 1-1h10c.552 0 1 .448 1 1v8c0 .552-.448 1-1 1z" fill="#fab400"/></g><g><path d="m46 23v-8c0-.552.448-1 1-1h-2c-.552 0-1 .448-1 1v8c0 .552.448 1 1 1h2c-.552 0-1-.448-1-1z" fill="#dc9600"/></g><g><path d="m47 14v-3c0-1.105.895-2 2-2h2c1.105 0 2 .895 2 2v3h1v-3c0-1.657-1.343-3-3-3h-2c-1.657 0-3 1.343-3 3v3z" fill="#505050"/></g><g><path d="m52 18c0-1.105-.895-2-2-2s-2 .895-2 2c0 .738.405 1.376 1 1.723v1.277c0 .552.448 1 1 1s1-.448 1-1v-1.277c.595-.347 1-.985 1-1.723z" fill="#be7800"/></g></g></g></svg>