<svg id="Icons" viewBox="0 0 60 60" xmlns="http://www.w3.org/2000/svg"><path d="m39.633 35.777c-.158 0-.314-.076-.411-.215-.147-.214-.107-.505.093-.671l1.755-1.447-1.789 1.032c-.219.13-.505.069-.655-.14-.15-.208-.119-.496.073-.666l.848-.756-.266.153c-.169.099-.382.089-.541-.026-.16-.114-.237-.312-.199-.504l.336-1.688c-.113-.037-.214-.114-.278-.226-.139-.239-.057-.545.183-.683l.509-.294c.169-.099.382-.089.541.026.16.114.237.312.199.504l-.293 1.473 3.545-2.046c.22-.128.505-.068.655.14s.119.496-.073.666l-.849.756 2.752-1.588c.224-.131.513-.065.661.147.147.214.107.505-.093.671l-1.754 1.446 2.145-1.237c.225-.132.513-.065.661.147.148.214.107.506-.094.671l-.498.411c.206-.085.447-.022.586.159.152.2.133.481-.046.659l-.383.379c.131-.014.263.031.365.121.161.14.216.365.137.563l-.268.672c.1.04.187.112.244.213.139.239.057.545-.183.683l-.695.401c-.185.105-.417.086-.577-.055-.161-.14-.216-.365-.137-.563l.152-.382-1.747 1.009c-.217.126-.495.071-.647-.129s-.133-.481.046-.659l.246-.244-1.802 1.04c-.224.132-.513.065-.661-.147-.148-.214-.107-.506.094-.671l.479-.395-2.115 1.221c-.078.046-.165.067-.25.067z" fill="#ced7dd"/><path d="m16.356 59.468c-.157 0-.311-.074-.408-.211-.149-.21-.113-.5.082-.668l3.568-3.07-6.61 3.816c-.23.134-.526.063-.67-.162-.145-.224-.088-.521.129-.677l2.909-2.083-4.748 2.741c-.228.134-.522.064-.669-.159-.145-.223-.091-.521.124-.677l6.138-4.489-7.312 4.221c-.23.136-.527.062-.672-.164-.144-.226-.084-.524.135-.678l6.006-4.21-6.06 3.498c-.239.138-.545.057-.683-.183-.139-.239-.057-.545.183-.683l15.921-9.192c.23-.136.527-.062.672.164.144.226.084.524-.135.678l-6.005 4.209 5.468-3.156c.229-.134.523-.062.669.159.145.223.091.521-.124.677l-6.141 4.492 5.596-3.23c.229-.136.526-.063.67.162.145.224.088.521-.129.677l-2.909 2.083 2.368-1.367c.22-.131.507-.068.658.144.149.21.113.5-.082.668l-3.568 3.069 2.992-1.727c.209-.123.477-.075.633.11s.156.457 0 .643l-1.76 2.107.924-.533c.238-.14.545-.058.683.183.139.239.057.545-.183.683l-3.362 1.941c-.209.122-.477.075-.633-.11s-.156-.457 0-.643l1.76-2.107-5.175 2.987c-.078.046-.165.067-.25.067z" fill="#ea4458"/><path d="m30.112 39.908c-.152 0-.302-.069-.398-.198-.152-.201-.131-.484.05-.66l2.232-2.168-4.766 2.751c-.223.129-.51.068-.658-.145-.149-.211-.113-.501.084-.669l1.839-1.566-3.827 2.209c-.24.139-.546.056-.683-.183-.139-.239-.057-.545.183-.683l8.571-4.948c.221-.13.508-.068.658.145.149.211.113.501-.084.669l-1.838 1.565 3.507-2.024c.216-.128.497-.071.648.131.152.201.131.484-.05.66l-2.232 2.168 4.376-2.526c.238-.139.545-.058.683.183.139.239.057.545-.183.683l-7.862 4.54c-.078.046-.164.067-.25.067z" fill="#ea4458"/><path d="m6.024 59.468c-.143 0-.284-.062-.382-.177-.156-.185-.158-.455-.004-.642l.188-.228-1.386.8c-.234.136-.532.061-.675-.169-.143-.229-.077-.529.147-.68l7.023-4.69-7.558 4.363c-.232.137-.53.062-.674-.167-.143-.228-.08-.527.143-.679l9.61-6.536-9.178 5.299c-.233.137-.53.062-.674-.167-.143-.229-.079-.528.144-.68l9.401-6.367-8.871 5.121c-.236.136-.532.061-.675-.169-.143-.229-.077-.529.147-.68l8.263-5.521-7.735 4.465c-.236.137-.532.06-.676-.17-.142-.23-.075-.531.151-.681l12.88-8.475-12.355 7.133c-.236.136-.533.062-.676-.17-.142-.229-.075-.531.15-.68l10.54-6.961-10.015 5.781c-.236.137-.534.06-.676-.171-.143-.231-.074-.533.153-.681l6.367-4.14-5.845 3.374c-.233.137-.529.062-.673-.165s-.082-.526.139-.679l9.083-6.273-8.549 4.936c-.233.136-.53.062-.674-.167-.143-.229-.079-.528.144-.68l5.498-3.729-4.968 2.868c-.229.134-.521.063-.667-.157s-.095-.517.117-.676l6.376-4.784-5.731 3.309c-.227.133-.518.064-.665-.153-.146-.218-.1-.512.107-.674l3.891-3.031-2.62 1.512c-.222.131-.51.066-.659-.145-.148-.212-.111-.503.086-.67l1.845-1.561c-.094-.042-.175-.112-.229-.207-.139-.239-.057-.545.183-.683l3.491-2.016c.224-.13.511-.065.659.145.148.212.111.503-.086.67l-.96.812 4.036-2.33c.227-.134.517-.063.665.153.146.218.1.512-.107.674l-3.89 3.031 6.684-3.858c.226-.135.521-.064.667.157s.095.517-.117.676l-6.374 4.782 9.729-5.616c.234-.135.531-.062.674.167s.079.528-.144.68l-5.503 3.732 7.305-4.217c.234-.135.53-.061.673.165.144.227.082.526-.139.679l-9.083 6.273 11.516-6.648c.236-.137.534-.06.676.171.143.231.074.533-.153.681l-6.369 4.141 8.046-4.645c.233-.137.532-.062.676.17.142.229.075.531-.15.68l-10.537 6.959 12.771-7.373c.235-.136.533-.06.676.17.142.23.075.531-.151.681l-12.885 8.479 6.113-3.529c.233-.137.532-.062.675.169.143.229.077.529-.147.68l-8.263 5.521 7.735-4.465c.234-.135.53-.062.674.167.143.229.079.528-.144.68l-9.396 6.363 8.865-5.118c.234-.135.53-.062.674.167.143.228.08.527-.143.679l-9.614 6.538 9.083-5.243c.233-.136.532-.062.675.169.143.229.077.529-.147.68l-15.782 10.539c.02.136-.017.277-.109.39l-.506.613c.108.039.204.114.266.222.139.239.057.545-.183.683l-1.658.957c-.078.046-.164.067-.25.067z" fill="#ea4458"/><path d="m3.704 17.075c-.152 0-.302-.07-.399-.199-.152-.202-.129-.486.053-.661l2.312-2.222-2.389 1.379c-.219.129-.504.068-.655-.14-.15-.208-.119-.496.073-.667l2.281-2.028-1.699.98c-.227.133-.519.064-.665-.154s-.099-.513.109-.674l.343-.265c-.161.015-.324-.057-.43-.191-.153-.197-.138-.477.036-.656l1.489-1.534-.689.397c-.192.113-.435.084-.596-.071-.16-.153-.2-.395-.098-.592l.759-1.464c-.042-.036-.079-.08-.108-.131-.139-.239-.057-.545.183-.683l.624-.36c.192-.111.435-.083.596.071.16.153.2.395.098.592l-.476.917 2.318-1.338c.214-.126.49-.072.645.125.153.197.138.477-.036.656l-1.488 1.533 2.828-1.633c.227-.134.519-.065.665.154s.099.514-.109.674l-.339.262c.149-.017.338.062.442.206.15.208.119.496-.073.667l-2.279 2.026 1.702-.982c.216-.128.496-.07.649.132.152.202.129.486-.053.661l-2.313 2.225 1.724-.995c.195-.116.446-.081.605.081.16.162.19.411.074.607l-.257.432c.107.038.201.113.263.22.139.239.057.545-.183.683l-1.053.608c-.197.114-.445.081-.605-.081s-.19-.411-.074-.607l.071-.119-3.625 2.092c-.078.046-.164.067-.25.067z" fill="#a0584e"/><path d="m28.209 17.201c-.115 0-.229-.04-.321-.117-.161-.136-.221-.356-.148-.555l.309-.845-1.434.827c-.212.123-.484.073-.639-.118s-.147-.467.018-.649l.5-.555-1.401.809c-.214.126-.487.072-.642-.122s-.143-.472.027-.652l1.781-1.898-3.354 1.936c-.227.133-.519.065-.665-.154-.146-.218-.099-.513.109-.674l.264-.204-1.021.589c-.228.135-.521.063-.668-.158-.146-.221-.093-.518.12-.676l.213-.158-.962.555c-.228.135-.522.063-.668-.158s-.093-.517.119-.675l1.018-.759-1.914 1.104c-.226.132-.514.065-.661-.148-.148-.214-.107-.506.095-.671l3.035-2.486-4.524 2.611c-.227.135-.522.063-.668-.158-.146-.223-.093-.519.121-.677l1.746-1.29-2.767 1.597c-.225.133-.513.065-.661-.148s-.107-.506.095-.671l4.413-3.61-6.262 3.615c-.227.134-.519.063-.664-.152-.147-.218-.101-.512.105-.674l4.529-3.552-6.25 3.608c-.228.134-.522.063-.668-.158s-.093-.519.12-.677l3.538-2.617-4.877 2.815c-.229.134-.525.062-.67-.161s-.088-.521.128-.678l2.171-1.562-3.327 1.921c-.226.133-.519.065-.665-.154s-.099-.514.109-.674l2.453-1.894-3.354 1.937c-.223.132-.509.068-.658-.145-.149-.211-.113-.501.084-.669l2.093-1.783-2.586 1.492c-.224.131-.512.067-.66-.147-.148-.213-.109-.504.091-.67l.619-.514-.612.354c-.204.12-.466.078-.624-.101-.157-.178-.169-.441-.026-.632l1.42-1.895-1.301.751c-.21.124-.479.074-.637-.115-.155-.189-.15-.463.011-.646l.349-.398c-.12 0-.237-.045-.331-.129-.16-.146-.209-.379-.12-.577l.66-1.461c-.037-.033-.07-.073-.097-.119-.138-.239-.056-.545.184-.684l.512-.295c.188-.108.424-.084.586.063.16.146.209.378.12.576l-.414.916.873-.504c.21-.123.48-.074.637.115.155.189.15.463-.011.646l-.206.235.8-.461c.205-.12.466-.077.624.101.157.178.169.441.026.632l-1.42 1.895 3.625-2.093c.224-.131.512-.067.66.147.148.213.109.504-.091.67l-.621.515 2.2-1.27c.224-.13.51-.067.658.145.149.211.113.501-.084.669l-2.091 1.781 5.082-2.934c.227-.133.519-.064.665.154s.099.514-.109.674l-2.454 1.894 5.516-3.184c.229-.136.523-.062.67.161.145.224.088.521-.128.678l-2.173 1.562 3.853-2.224c.229-.133.523-.062.668.158.146.222.093.519-.12.677l-3.537 2.616 4.733-2.732c.226-.134.518-.063.664.152.147.218.101.512-.105.674l-4.528 3.551 5.48-3.164c.225-.132.513-.065.661.148s.107.506-.095.671l-4.413 3.61 5.104-2.946c.229-.134.522-.062.668.158.146.223.093.519-.121.677l-1.747 1.291 2.164-1.249c.225-.132.513-.065.661.148s.107.506-.095.671l-3.033 2.485 3.997-2.308c.229-.133.522-.062.668.157.146.222.093.518-.119.676l-1.022.763 1.048-.604c.229-.134.523-.062.668.158.146.221.093.518-.12.676l-.218.162c.223-.109.498-.042.639.169.146.218.099.513-.109.674l-.316.245c.196-.069.42-.006.554.162.154.194.143.472-.027.652l-1.78 1.898 1.207-.697c.211-.125.483-.074.639.118.154.191.147.467-.018.649l-.521.579c.162-.055.348-.022.482.091.161.136.221.356.148.555l-.371 1.014c.142.025.271.109.348.243.139.239.057.545-.183.683l-.795.459c-.078.045-.164.067-.25.067z" fill="#b26356"/><path d="m16.097 36.465c-.147 0-.293-.065-.391-.188-.154-.193-.145-.471.023-.651l1.638-1.772-3.352 1.935c-.229.132-.521.062-.666-.155-.146-.22-.097-.515.112-.675l.053-.04-.32.185c-.222.129-.511.066-.659-.145-.148-.212-.111-.503.086-.67l1.238-1.047-1.322.763c-.204.12-.463.078-.621-.098s-.172-.438-.034-.628l1.175-1.621-.776.447c-.18.103-.402.087-.563-.043s-.226-.345-.163-.541l.229-.718c-.074-.043-.139-.104-.185-.185-.139-.239-.057-.545.183-.683l.509-.294c.18-.103.402-.087.563.043s.226.345.163.541l-.117.367 1.688-.974c.204-.119.462-.078.621.098.158.176.172.438.034.628l-1.175 1.622 4.131-2.384c.224-.13.511-.066.659.146.148.211.111.502-.086.669l-1.234 1.044 2.184-1.261c.227-.135.52-.063.666.155.146.22.097.515-.112.675l-.347.265c.16-.015.326.051.434.186.154.193.145.471-.023.651l-1.638 1.772.581-.335c.238-.141.545-.058.683.183.139.239.057.545-.183.683l-3.434 1.982c-.078.046-.164.067-.25.067z" fill="#f2a497"/><path d="m17.481 31.379c-.159 0-.316-.077-.412-.218-.148-.215-.104-.508.099-.672l2.764-2.226-5.276 3.046c-.229.134-.526.062-.67-.161-.145-.224-.088-.522.128-.678l5.884-4.228-7.764 4.481c-.235.137-.533.06-.676-.171-.142-.229-.074-.531.151-.68l2.127-1.395-2.868 1.655c-.235.136-.533.06-.676-.171-.142-.23-.074-.531.151-.68l3.471-2.274-4.071 2.35c-.235.137-.535.061-.677-.172-.142-.231-.072-.534.155-.681l2.284-1.473-2.625 1.515c-.233.137-.529.062-.673-.166s-.081-.527.141-.68l8.643-5.912-9.196 5.309c-.235.136-.533.06-.676-.171-.142-.23-.074-.531.151-.68l4.412-2.891-4.488 2.591c-.229.136-.527.062-.671-.163-.145-.225-.086-.523.132-.678l8.238-5.838-8.323 4.805c-.236.137-.534.061-.676-.171-.143-.231-.074-.533.153-.681l1.191-.775-1.355.782c-.233.136-.529.062-.673-.166s-.081-.527.141-.68l6.202-4.242-7.231 4.175c-.235.136-.534.061-.677-.172-.142-.231-.072-.533.155-.681l1.837-1.188-1.872 1.08c-.23.135-.526.062-.672-.164-.144-.226-.084-.524.135-.678l5.93-4.16-5.826 3.363c-.229.134-.526.063-.671-.162-.144-.225-.087-.522.131-.678l3.904-2.785-3.504 2.022c-.201.118-.458.08-.616-.093-.159-.171-.179-.429-.047-.621l1.282-1.884-.097.056c-.239.139-.545.056-.683-.183-.139-.239-.057-.545.183-.683l1.991-1.149c.201-.118.458-.079.616.093.159.171.179.429.047.621l-1.282 1.883 10.619-6.131c.229-.136.525-.063.671.162.144.225.087.522-.131.678l-3.91 2.79 6.638-3.832c.232-.136.527-.062.672.164.144.226.084.524-.135.678l-5.927 4.158 9.092-5.249c.235-.137.534-.061.677.172.142.231.072.533-.155.681l-1.84 1.19 1.537-.887c.234-.135.53-.061.673.166.144.228.081.527-.141.68l-6.207 4.245 6.306-3.64c.235-.137.535-.061.676.171.143.231.074.533-.153.681l-1.184.771 1.34-.773c.229-.136.527-.062.671.163.145.225.086.523-.132.678l-8.236 5.837 10.524-6.076c.235-.136.533-.061.676.171.142.23.074.531-.151.68l-4.415 2.893 5.177-2.988c.235-.136.53-.061.673.166.144.228.081.527-.141.68l-8.643 5.912 8.887-5.13c.235-.137.535-.061.677.172.142.231.072.534-.155.681l-2.285 1.474 1.775-1.024c.235-.138.533-.06.676.171.142.23.074.531-.151.68l-3.47 2.274 2.813-1.624c.234-.137.533-.06.676.171.142.229.074.531-.151.68l-2.132 1.398 1.225-.707c.228-.135.525-.063.67.161s.088.522-.128.678l-5.881 4.226 2.178-1.257c.225-.132.516-.065.662.15.148.215.104.508-.099.672l-2.762 2.225.844-.487c.237-.14.545-.057.683.183.139.239.057.545-.183.683l-6.443 3.721c-.078.046-.165.067-.25.067z" fill="#fcad9d"/><path d="m6.437 13.511c-.131 0-.261-.052-.357-.149-.159-.163-.188-.413-.07-.608l1.182-1.96c-.048-.038-.09-.086-.123-.142-.138-.239-.056-.545.184-.684l.781-.45c.197-.112.446-.079.607.084.159.162.188.413.07.607l-.843 1.398 3.073-1.773c.239-.14.545-.056.683.183.139.239.057.545-.183.683l-4.754 2.744c-.078.046-.164.067-.25.067z" fill="#fcad9d"/><path d="m43.933 59.464c-.165 0-.327-.082-.422-.232-.144-.226-.084-.525.137-.678l2.255-1.568-4.161 2.402c-.229.134-.524.062-.67-.161-.145-.223-.089-.521.127-.677l6.563-4.744-9.417 5.437c-.229.136-.528.062-.672-.164s-.084-.525.136-.679l8.323-5.81-10.938 6.314c-.236.137-.533.06-.676-.17-.142-.23-.075-.531.15-.681l6.765-4.452-8.439 4.872c-.235.136-.532.061-.675-.169s-.077-.53.147-.68l9.982-6.64-11.321 6.536c-.235.137-.534.061-.677-.171-.142-.231-.073-.533.154-.681l8.705-5.658-8.928 5.154c-.236.137-.533.06-.676-.17-.142-.23-.075-.531.151-.681l10.363-6.821-9.941 5.739c-.236.139-.536.06-.678-.173-.141-.232-.07-.535.159-.682l4.672-2.976-4.153 2.397c-.235.137-.535.059-.677-.172-.142-.232-.072-.534.156-.682l5.586-3.592-5.065 2.924c-.235.136-.533.06-.676-.17-.142-.23-.075-.532.151-.681l7.42-4.879-6.896 3.98c-.235.136-.533.06-.676-.17-.142-.229-.075-.531.15-.68l6.204-4.092-5.679 3.278c-.23.136-.527.062-.671-.163-.145-.225-.086-.523.132-.678l8.689-6.157-8.15 4.706c-.228.135-.521.063-.668-.158-.146-.223-.093-.519.121-.677l6.553-4.84-5.931 3.424c-.233.136-.53.062-.674-.167-.143-.228-.08-.528.143-.68l.628-.426c-.185.026-.388-.052-.499-.224-.144-.225-.087-.522.131-.678l.981-.7c-.182.021-.369-.05-.48-.209-.148-.213-.109-.504.09-.67l1.962-1.639c-.089-.042-.166-.11-.219-.202-.139-.239-.057-.545.183-.683l3.592-2.074c.223-.131.512-.067.66.146s.109.504-.09.67l-1 .835 3.513-2.027c.229-.136.525-.063.671.162.144.225.087.522-.131.678l-.675.481 2.289-1.321c.234-.135.53-.062.674.167.143.228.08.528-.143.68l-.254.172 1.765-1.019c.229-.134.522-.062.668.158.146.223.093.519-.121.677l-6.55 4.838 9.786-5.65c.229-.135.527-.062.671.163.145.225.086.523-.132.678l-8.694 6.16 10.935-6.312c.234-.137.532-.061.676.17.142.229.075.531-.15.68l-6.205 4.092 7.228-4.172c.235-.137.533-.06.676.17.142.23.075.532-.151.681l-7.417 4.877 8.22-4.745c.235-.137.536-.059.677.172.142.232.072.534-.156.682l-5.588 3.594 5.973-3.448c.237-.137.537-.059.678.173s.07.535-.159.682l-4.677 2.979 4.857-2.804c.235-.137.533-.06.676.17.142.23.075.531-.151.681l-10.362 6.82 10.558-6.095c.235-.136.534-.06.677.171.142.231.073.533-.154.681l-8.701 5.655 8.564-4.944c.234-.138.532-.061.675.169s.077.53-.147.68l-9.983 6.64 9.557-5.517c.236-.137.533-.06.676.17.142.23.075.531-.15.681l-6.758 4.448 6.232-3.599c.23-.135.528-.062.672.164s.084.525-.136.679l-8.32 5.808 7.784-4.494c.229-.135.524-.063.67.161.145.223.089.521-.127.677l-6.566 4.747 6.023-3.478c.23-.135.528-.062.672.165.144.226.084.525-.137.678l-2.252 1.566 1.717-.991c.229-.133.522-.062.668.158.146.222.093.518-.12.676l-2.268 1.683 1.72-.992c.223-.131.512-.066.66.146.148.214.109.505-.091.671l-1.615 1.342 1.037-.598c.212-.124.485-.073.642.121.153.194.143.472-.025.652l-.828.888c.121.034.229.114.297.231.139.239.057.545-.183.683l-2.154 1.243c-.212.125-.485.074-.642-.121-.153-.194-.143-.472.025-.652l.475-.509-3.228 1.862c-.224.132-.512.066-.66-.146-.148-.214-.109-.505.091-.671l1.613-1.341-4.169 2.406c-.228.135-.521.063-.668-.158-.146-.222-.093-.518.12-.676l2.263-1.68-4.497 2.597c-.078.046-.165.067-.25.067z" fill="#e4eaef"/><path d="m53.224 22.488c-.152 0-.303-.07-.4-.2-.151-.203-.128-.487.056-.662l.717-.683-1.315.759c-.215.127-.492.072-.646-.128-.152-.198-.135-.479.042-.657l2.277-2.286-1.673.966c-.223.132-.513.067-.662-.149-.147-.214-.105-.507.097-.671l.339-.276c-.166.022-.333-.068-.435-.214-.148-.214-.107-.506.094-.671l.331-.272c-.158-.007-.319-.068-.419-.207-.15-.208-.119-.496.072-.666l.427-.38c-.133.025-.271-.004-.384-.084-.16-.114-.238-.311-.201-.503l.333-1.71c-.112-.037-.211-.114-.275-.225-.138-.239-.056-.545.184-.684l.5-.288c.171-.097.381-.087.541.026.159.114.237.311.2.503l-.291 1.491 3.018-1.742c.221-.129.506-.067.655.14.15.208.119.496-.072.666l-.324.289.501-.289c.225-.132.513-.065.661.147.148.214.107.506-.094.671l-.189.156c.181-.031.382.044.496.21.147.214.105.507-.097.671l-.339.276c.157-.027.317.061.42.194.152.198.135.479-.042.657l-2.277 2.286 1.673-.966c.216-.128.497-.07.65.133.151.203.128.487-.056.662l-.717.684.122-.07c.239-.14.545-.057.683.183.139.239.057.545-.183.683l-3.746 2.163c-.078.046-.164.067-.25.067z" fill="#ced7dd"/><path d="m31.546 22.47c-.144 0-.285-.062-.383-.178-.156-.186-.156-.457 0-.643l.641-.769-1.821 1.052c-.213.125-.488.073-.642-.122-.154-.193-.143-.472.026-.652l1.947-2.079-2.033 1.174c-.224.132-.514.065-.662-.149-.147-.215-.105-.507.097-.671l.339-.276c-.151.021-.317-.061-.421-.195-.152-.2-.133-.482.046-.659l2.183-2.158-1.581.912c-.222.129-.509.068-.658-.145-.149-.211-.112-.502.084-.669l.328-.278h-.004c-.142 0-.281-.061-.379-.174-.157-.183-.162-.45-.012-.638l.544-.682c-.123-.033-.232-.113-.301-.232-.139-.239-.057-.545.183-.683l1.656-.956c.206-.122.472-.075.629.106.157.183.162.45.012.638l-.29.363 1.963-1.133c.221-.13.508-.068.658.145.149.211.112.502-.084.669l-.053.045.166-.096c.215-.128.494-.071.647.129.152.2.133.482-.046.659l-2.183 2.158 1.588-.916c.225-.132.515-.066.662.149s.105.507-.097.671l-.337.274c.139-.014.313.058.417.188.154.194.143.472-.026.652l-1.947 2.078 1.339-.772c.209-.123.477-.075.633.11s.156.457 0 .643l-.642.769.013-.007c.238-.14.545-.058.683.183.139.239.057.545-.183.683l-2.449 1.414c-.078.046-.164.067-.25.067z" fill="#ced7dd"/><path d="m42.535 31.457c-.164 0-.325-.081-.421-.229-.144-.225-.087-.522.131-.678l1.764-1.259-3.281 1.895c-.23.137-.529.062-.673-.166s-.081-.527.141-.68l1.604-1.096-2.646 1.527c-.232.137-.529.062-.673-.166s-.081-.527.141-.679l3.334-2.283-4.272 2.466c-.235.135-.534.061-.675-.17-.143-.229-.076-.53.148-.68l1.879-1.243-2.404 1.388c-.232.137-.53.062-.674-.167-.143-.229-.079-.529.144-.68l4.98-3.37-5.53 3.192c-.23.135-.527.062-.672-.164-.144-.225-.085-.523.135-.678l8.482-5.962-9.034 5.216c-.234.137-.535.06-.677-.173-.142-.231-.072-.533.156-.681l1.1-.706-1.031.595c-.235.135-.534.061-.675-.169-.143-.23-.076-.531.148-.681l5.702-3.779-5.616 3.242c-.23.136-.528.062-.672-.165-.144-.226-.084-.525.137-.678l9.583-6.665-9.337 5.391c-.233.136-.529.062-.673-.166-.144-.227-.082-.526.14-.679l8.473-5.818-7.939 4.584c-.235.137-.532.06-.676-.171-.142-.23-.074-.531.151-.68l3.639-2.385-3.114 1.798c-.233.136-.529.062-.673-.166s-.081-.527.141-.68l6.65-4.549-6.118 3.532c-.23.136-.529.062-.673-.166s-.081-.527.141-.679l5.63-3.857-5.098 2.942c-.233.136-.529.062-.673-.165s-.082-.526.139-.679l4.822-3.33-4.288 2.475c-.227.134-.523.064-.668-.159-.146-.222-.092-.519.121-.676l5.763-4.248-4.975 2.872c-.227.133-.518.064-.664-.152-.147-.218-.101-.512.105-.674l4.377-3.428-2.838 1.639c-.225.132-.513.065-.661-.148s-.107-.507.095-.671l2.083-1.704c-.088-.042-.164-.109-.216-.2-.139-.239-.057-.545.183-.683l3.826-2.209c.224-.132.514-.065.661.148.148.214.107.507-.095.671l-1.032.845 3.64-2.102c.227-.133.519-.064.664.152.147.218.101.512-.105.674l-4.38 3.43 6.584-3.801c.229-.134.524-.063.668.159.146.222.092.519-.121.676l-5.763 4.248 7.243-4.182c.234-.136.53-.061.673.165.144.227.082.526-.139.679l-4.824 3.332 5.622-3.245c.234-.135.53-.061.673.166.144.228.081.527-.141.679l-5.62 3.851 6.224-3.593c.234-.135.53-.062.673.166.144.228.081.527-.141.68l-6.659 4.555 7.099-4.098c.236-.136.533-.06.676.171.142.23.074.531-.151.68l-3.633 2.381 3.694-2.133c.234-.135.53-.061.673.166.144.227.082.526-.14.679l-8.472 5.817 8.554-4.938c.23-.136.528-.062.672.165.144.226.084.525-.137.678l-9.584 6.665 9.34-5.392c.234-.137.532-.062.675.169s.076.531-.148.681l-5.703 3.78 5.189-2.996c.235-.137.536-.06.677.173.142.231.072.533-.156.681l-1.095.703.574-.331c.23-.136.527-.062.672.164.144.225.085.523-.135.678l-8.483 5.962 7.946-4.587c.234-.135.531-.06.674.167.143.229.079.529-.144.68l-4.977 3.367 4.446-2.566c.234-.138.533-.062.675.17.143.229.076.53-.148.68l-1.892 1.252 1.365-.788c.234-.135.53-.061.673.166.144.228.081.527-.141.679l-3.329 2.28 2.788-1.609c.234-.135.53-.062.673.166.144.228.081.527-.141.68l-1.593 1.088.858-.495c.228-.136.525-.063.671.162.144.225.087.522-.131.678l-1.772 1.265.729-.42c.227-.133.52-.064.666.155s.098.514-.112.674l-1.375 1.055c.168-.021.362.081.458.249.139.239.057.545-.183.683l-6.094 3.519c-.227.133-.52.064-.666-.155s-.098-.514.112-.674l1.045-.801-3.071 1.772c-.078.046-.165.067-.25.067z" fill="#e4eaef"/><path d="m38.466 18.392c-.127 0-.253-.049-.35-.143-.16-.156-.196-.4-.089-.597l.982-1.803-1.687.974c-.208.121-.474.076-.63-.107s-.16-.451-.01-.639l.491-.609c-.119-.035-.226-.113-.292-.229-.139-.239-.057-.545.183-.683l1.657-.956c.207-.122.473-.076.63.107.156.183.16.451.01.639l-.22.273.908-.524c.193-.113.438-.082.6.075.16.156.196.4.089.597l-.982 1.802.897-.518c.239-.14.545-.057.683.183.139.239.057.545-.183.683l-2.438 1.408c-.078.046-.164.067-.25.067z" fill="#50d6bf"/><path d="m46.866 18.459c-.127 0-.253-.048-.349-.142-.16-.155-.197-.398-.092-.596l.863-1.602-1.853 1.069c-.199.117-.454.08-.613-.089s-.182-.424-.055-.618l.66-1.007c-.204.051-.434-.041-.546-.237-.139-.239-.057-.545.183-.683l1.657-.956c.2-.116.455-.079.613.089.159.169.182.424.055.618l-.633.966 1.557-.898c.193-.113.438-.083.599.074.16.155.197.398.092.596l-.863 1.602.378-.218c.238-.139.545-.058.683.183.139.239.057.545-.183.683l-1.903 1.099c-.078.046-.164.067-.25.067z" fill="#50d6bf"/><path d="m41.508 26.47c-.154 0-.307-.072-.403-.205-.151-.206-.122-.492.066-.664l.914-.834-2.07 1.194c-.218.128-.5.07-.65-.134-.152-.203-.127-.487.057-.662l.61-.577-.671.387c-.189.107-.424.084-.586-.062-.16-.146-.209-.379-.12-.577l.517-1.144c-.201.035-.413-.055-.521-.242-.139-.239-.057-.545.183-.683l1.161-.67c.188-.108.423-.084.586.062.16.146.209.379.12.577l-.495 1.097 3.006-1.735c.217-.127.499-.07.65.134.152.203.128.487-.057.662l-.61.578 2.38-1.374c.219-.127.503-.068.653.138.151.206.122.492-.066.664l-.914.834 1.453-.838c.197-.116.448-.082.608.084.159.163.188.414.068.609l-.897 1.466c.229-.102.507-.018.637.207.139.239.057.545-.183.683l-1.654.956c-.197.115-.448.081-.608-.084-.159-.163-.188-.414-.068-.609l.896-1.463-3.74 2.158c-.078.046-.164.067-.25.067z" fill="#2b56af"/><path d="m36.972 47.47c-.161 0-.319-.078-.416-.222-.146-.22-.098-.515.111-.675l1.716-1.318-2.944 1.699c-.218.129-.505.068-.655-.14s-.118-.496.073-.667l2.511-2.231-2.087 1.204c-.203.119-.462.078-.621-.098-.158-.176-.172-.438-.034-.628l1.258-1.736-.019.011c-.239.138-.546.057-.683-.183-.139-.239-.057-.545.183-.683l2.05-1.184c.204-.119.462-.078.621.098.158.176.172.438.034.628l-1.259 1.736 4.305-2.484c.221-.128.505-.067.655.14.15.208.118.496-.073.667l-2.51 2.231 5.263-3.038c.226-.133.518-.065.666.154.146.22.098.515-.111.675l-1.718 1.319 3.724-2.148c.225-.133.516-.065.664.151.146.217.102.511-.104.673l-2.153 1.706 3.751-2.165c.226-.134.521-.064.667.157s.095.517-.117.676l-.767.575 1.123-.648c.227-.133.519-.064.665.154s.099.513-.109.674l-.362.28.304-.175c.222-.13.508-.066.657.143.149.21.115.5-.08.668l-.508.439.078-.045c.207-.123.474-.076.632.109.156.185.158.454.004.642l-.491.596c.205-.041.427.047.538.239.139.239.057.545-.183.683l-2.204 1.272c-.209.121-.476.074-.632-.109-.156-.185-.158-.454-.004-.642l.448-.543-2.243 1.294c-.222.13-.508.067-.657-.143s-.115-.5.08-.668l.508-.439-2.166 1.25c-.227.133-.519.064-.665-.154s-.099-.513.109-.674l.362-.28-1.921 1.108c-.229.133-.521.063-.667-.157-.146-.221-.095-.517.117-.676l.768-.575-2.44 1.408c-.227.132-.517.065-.664-.151-.146-.217-.102-.511.104-.673l2.153-1.706-4.384 2.53c-.078.046-.165.067-.25.067z" fill="#50d6bf"/><path d="m49.77 38.623c-.136 0-.271-.056-.368-.162-.158-.172-.176-.432-.042-.624l.866-1.243-1.75 1.01c-.203.119-.46.079-.619-.096-.158-.173-.175-.433-.04-.625l.911-1.294-.854.492c-.196.115-.445.081-.605-.081-.16-.161-.19-.41-.075-.605l.644-1.09c-.104-.039-.194-.113-.254-.217-.139-.239-.057-.545.183-.683l1.028-.594c.196-.116.444-.082.605.081.16.161.19.41.075.605l-.452.766 1.17-.675c.202-.119.46-.079.619.096.158.173.175.433.04.625l-.911 1.294 1.727-.997c.201-.118.459-.079.618.095.158.172.176.432.042.624l-.866 1.244 1.232-.711c.238-.141.545-.058.683.183.139.239.057.545-.183.683l-3.174 1.832c-.078.046-.164.067-.25.067z" fill="#fcad9d"/><g fill="#262626"><path d="m47.728 30.473c3.336-1.372 5.63-4.402 5.955-8.034 4.283.68 4.29-3.451 4.042-6.536.471-2.577-1.765-3.744-4.074-3.329.094-8.041-9.902-12.623-16.335-8.243-2.886 1.792-4.775 4.834-5.009 8.321-.889-.013-1.804-.015-2.58.418.111-2.47-.19-6.138-3.29-6.446.153-.054-.434-1.067-.237-.601-4.724-8.253-15.319.51-21.377-5.063-3.169-1.367-2.988 5.217-1.498 6.652-1.304 3.981-2.904 14.242 2.248 15.777.489 3.532 2.787 5.978 5.701 7.214-.002.383-.013.778-.015 1.174-5.729.692-9.792 5.441-8.984 11.291.768 4.51-3.215 21.479 5.929 15.119 2.119 1.914 5.585 1.098 8.213 1.232 2.895-.024 8.101.438 8.308-3.687.22-5.399-.08-10.835 0-16.239 1.878.133 3.755.266 5.633.399-1.491 3.621-2.009 14.204-.123 17.551 2.59 1.874 6.254 1.537 9.316 1.869 5.262-.488 16.042 2.035 17.174-5.055-.48-5.797 1.815-13.085-3.237-17.372 1.184-1.721-4.482-5.411-5.761-3.764v-2.648zm-6.471 4.153c-.515 0-1.022.01-1.526.028v-3.555c2.157.473 4.484.37 6.542-.156v3.633c-1.67-.042-3.361.049-5.016.049zm-20.527-4.115c2.826-1.248 5.075-4.063 5.698-7.167 1.124-.238 1.879-.901 2.376-1.782.822.966 2.296.818 3.498.777.124 3.64 2.426 7.191 5.967 8.331v3.726c-5.843-.923-11.686-1.845-17.529-2.768.006-.374-.004-.749-.011-1.117zm33.166-17.091c3.263-.5 2.219 3.487 2.379 5.489.348 1.871-.619 3.083-2.549 2.671.041-2.716.018-5.446-.025-8.161h.195zm-16.623-8.1c.128 1.193-.686 5.642 1.454 3.598 0-1.521 0-3.041 0-4.561 1.066-.577 2.326-.932 3.549-.978.321 1.053-.813 4.219.777 3.819 1.383-.373.388-2.631.672-3.766 1.246.148 2.455.557 3.551 1.177v4.585c2.173.586 1.288-2.273 1.449-3.59 5.259 4.303 5.729 21.356-1.306 24.255-.354-.086-.881.046-1.1.395-2.086.584-4.504.559-6.633-.151-.108-.234-.44-.309-.694-.241-7.457-2.654-7.091-20.14-1.718-24.543zm-7.141 8.361c.517-.637 1.41-.25 2.143-.349.003 2.777-.006 5.562.003 8.337-3.741.715-2.724-5.903-2.146-7.989zm-22.607-10.118c5.78 1.421 13.357-3.489 17.215 2.88.355.48.507.767 1.011.987 2.763.714 2.588 4.274 2.604 6.62-.819-.642-2.12-.891-3.072-.497-2.43-.865-1.296-6.14-3.272-4.851-5.723 2.076-20.231 2.961-18.059-6.628.982.867 2.306 1.266 3.573 1.489zm-1.902 9.862c-.69.064-1.343.287-1.899.682 0-1.825-.059-3.705.501-5.447.728.68 1.626 1.198 2.648 1.483-.705.973-1.067 2.118-1.251 3.282zm-2.221-12.022c-.071-.048-.063-.104 0 0zm3.573 21.278c-1.998-.94-2.82-1.124-3.123-3.752-.235-1.709-.358-4.632 2.181-4.393 1.737-.162.919-3.012 2.176-4.037 4.512.548 9.227 1.012 13.63-.391.988 7.405 5.749 2.091 6.426 6.718-.001 1.818.026 5.381-2.459 5.483-.319.013-.771.247-.791.611-1.107 10.016-17.169 9.825-18.039-.24zm12.312 8.371c.275 1.791-.55 4.22-2.221 4.56-2.644.591-4.748-1.97-4.355-4.511 2.125.584 4.447.581 6.576-.049zm4.992 7.525c-2.756 1.292.258 15.219-1.374 18.753-2.369 2.285-6.609.888-9.669 1.19-7.047.851-3.843-8.135-4.512-12.373 0-.447 0-.894 0-1.341 0-.224-1.449-.022-1.449.388 0 3.571.002 7.143 0 10.713 0 1.393-.072 2.854-1.922 2.67-3.086-.948-1.099-5.624-1.628-8.075.064-6.723-1.768-17.095 7.565-17.948.176 5.161 8.813 4.817 9.379.041 5.254.83 10.507 1.659 15.761 2.489-2.197.514-4.354 2.054-5.566 3.961-2.195-.155-4.39-.311-6.586-.466zm30.997 6.428c-.697 3.693 1.767 10.336-1.661 12.632-6.587 1.428-13.713 1.383-20.334.095-4.656-1.771-1.806-8.275-2.557-12.121-1.045-10.015 8.5-11.161 16.134-10.166-.177 2.942 3.694 4.336 5.74 2.423 1.923 1.93 2.678 4.381 2.678 7.137zm-6.88-10.31c.075-.326.2-.65.381-.932 1.17.637 2.612 1.54 3.409 2.427-.63 2.762-4.6 1.137-3.791-1.495z"/><path d="m39.484 18.444c2.474-.339 3.114-3.979.605-4.804-4.244-1.462-5.289 5.647-.605 4.804zm-1.538-3.351c1.65-2.207 3.647 2.338 1.061 2.382-1.059-.167-1.606-1.479-1.061-2.382z"/><path d="m47.499 18.29c2.37-.3 3.134-3.787.648-4.543-4.215-1.39-5.4 5.514-.648 4.543zm-1.546-3.314c.298-.577.922-.58.928-.576 1.446.229 1.917 2.413.646 3.164-1.32.316-2.252-1.55-1.574-2.587z"/><path d="m39.008 22.074c-1.663 1.158-.573 4.37 1.524 4.226 2.933.293 8.977.171 6.82-4.291-2.545-.577-5.77-.553-8.344.065zm6.349.226c1.418.041 1.09 2.486.363 3.201-2.41.602-7.293.675-5.809-3.201h5.445z"/><path d="m48.082 40.609c-4.848.506-15.038-2.471-13.807 5.585.941 2.634 12.566.616 15.716 1.17 3.582-.814 1.617-7.305-1.91-6.755zm-11.356 6c-2.095.118-1.005-5.678 1.168-5.218 3.751.796 11.801-2.434 12.382 3.031 0 .207.142 2.096-.158 2.187h-13.391z"/><path d="m49.288 50.612c-2.572.276-5.611-.581-7.959.385-.603.788 10.619.631 7.959-.385z"/><path d="m36.7 51.344c.578-.041 1.982.187 1.978-.606-.493-.357-3.322.144-1.978.606z"/><path d="m49.47 54.703c-2.639.192-5.488-.408-8.025.274-.874.609 9.506.59 8.025-.274z"/><path d="m38.42 54.52c-.616-.123-2.69-.164-1.981.892.607.349 3.13.071 1.981-.892z"/></g></svg>