<svg id="Layer_1" enable-background="new 0 0 512 512" viewBox="0 0 512 512" xmlns="http://www.w3.org/2000/svg"><g clip-rule="evenodd" fill-rule="evenodd"><g><path d="m204.77 22.993h238.23c4.418 0 8 3.582 8 8v96.235h-16v-88.235h-230.23z" fill="#b3d1d6"/><circle cx="443" cy="30.993" fill="#64b4f5" r="21.994"/><path d="m454.424 12.195c6.338 3.86 10.57 10.835 10.57 18.798 0 12.147-9.847 21.994-21.994 21.994-7.009 0-13.253-3.279-17.28-8.387 3.33 2.028 7.24 3.196 11.424 3.196 12.147 0 21.994-9.847 21.994-21.994 0-5.137-1.762-9.863-4.714-13.607z" fill="#42a4f4"/></g><g><path d="m100.937 140.488 7.921 195.462h-58.536l7.921-195.462zm250.106 0 7.921 195.462h-58.536l7.921-195.462zm-83.369 0c2.641 65.154 5.281 130.308 7.921 195.462-19.512 0-39.024 0-58.536 0 2.64-65.154 5.281-130.308 7.921-195.462zm-83.368 0c2.64 65.154 5.281 130.308 7.921 195.462-19.512 0-39.024 0-58.536 0 2.64-65.154 5.281-130.308 7.921-195.462z" fill="#8c9ba7"/><path d="m100.937 140.488 7.921 195.462h-11.927l-7.921-195.462zm250.106 0 7.921 195.462h-11.927l-7.921-195.462zm-83.369 0c2.641 65.154 5.281 130.308 7.921 195.462-3.976 0-7.951 0-11.927 0-2.641-65.154-5.281-130.308-7.921-195.462zm-83.368 0c2.64 65.154 5.281 130.308 7.921 195.462-3.976 0-7.951 0-11.927 0-2.64-65.154-5.281-130.308-7.921-195.462z" fill="#7a8b97"/><path d="m40.052 334.885h329.182l15.842 38.039h-360.866z" fill="#7a8b97"/><path d="m24.21 371.234h15.474l10.865-24.931h323.661l-4.976-11.418h-329.182z" fill="#6a7c86"/><path d="m16.919 360.567h375.448l7.921 24.715h-391.29z" fill="#8c9ba7"/><path d="m396.98 374.96 3.308 10.322h-391.29l3.308-10.322z" fill="#7a8b97"/><path d="m28.17 118.642h352.946l-15.842 36.349h-321.262z" fill="#7a8b97"/><path d="m28.17 118.642h15.474l10.866 24.931h315.74l-4.976 11.418h-321.262z" fill="#6a7c86"/><path d="m204.643 8.999 195.645 102.306-7.921 17.461h-375.448l-7.921-17.461z" fill="#8c9ba7"/><path d="m204.643 8.999 195.645 102.306-7.921 17.461h-15.842l7.921-17.461-187.724-98.164z" fill="#7a8b97"/><ellipse cx="204.643" cy="73.371" fill="#eef3f6" rx="28.4" ry="28.4" transform="matrix(.707 -.707 .707 .707 8.058 166.194)"/><path d="m204.643 44.971c9.246 0 17.459 4.42 22.645 11.261-4.332-2.675-9.435-4.22-14.901-4.22-15.685 0-28.399 12.715-28.399 28.4 0 6.439 2.144 12.376 5.755 17.139-8.1-5.002-13.499-13.96-13.499-24.18 0-15.685 12.714-28.4 28.399-28.4z" fill="#dcdcdc"/></g><g><path d="m503.002 132.42c0-11.759-10.4-21.378-23.114-21.378h-193.992c-12.714 0-23.114 9.618-23.114 21.378v349.204c0 11.759 10.4 21.378 23.114 21.378h193.992c12.714 0 23.114-9.619 23.114-21.378z" fill="#64b4f5"/><path d="m503.002 132.42c0-9.605-6.939-17.781-16.41-20.454.353 1.478.541 3.012.541 4.585v349.204c0 11.759-10.4 21.378-23.114 21.378h-193.992c-2.329 0-4.581-.324-6.705-.924 2.284 9.575 11.56 16.793 22.574 16.793h193.992c12.714 0 23.114-9.618 23.114-21.378z" fill="#42a4f4"/><path d="m366.033 140.587c-3.506 0-6.348-2.842-6.348-6.348 0-3.505 2.842-6.347 6.348-6.347h33.717c3.506 0 6.348 2.842 6.348 6.347 0 3.506-2.842 6.348-6.348 6.348z" fill="#e5f7ff"/><path d="m396.059 455.545h-26.334c-6.2 0-11.272 5.073-11.272 11.273 0 6.2 5.073 11.273 11.272 11.273h26.334c6.2 0 11.272-5.073 11.272-11.273 0-6.2-5.072-11.273-11.272-11.273z" fill="#e5f7ff"/><path d="m375.066 455.545h-5.341c-6.2 0-11.272 5.073-11.272 11.273s5.073 11.273 11.272 11.273h5.341c-6.2 0-11.273-5.073-11.273-11.273s5.072-11.273 11.273-11.273z" fill="#e1e2e2"/><path d="m262.782 157.441h240.22v273.194h-240.22z" fill="#e5f7ff"/><path d="m487.133 157.441h15.869v273.194h-15.869z" fill="#cff0ff"/></g><g><path d="m284.736 276.898c-3.124 3.124-8.189 3.124-11.312 0-3.124-3.124-3.124-8.189 0-11.312 27.468-27.468 63.468-41.202 99.468-41.202s72.001 13.734 99.469 41.202c3.124 3.124 3.124 8.189 0 11.312-3.124 3.124-8.189 3.124-11.312 0-24.343-24.343-56.25-36.514-88.156-36.514-31.907-.001-63.814 12.171-88.157 36.514zm61.569 80.209c0-7.341 2.976-13.988 7.788-18.799 4.811-4.812 11.458-7.788 18.799-7.788s13.988 2.976 18.799 7.788c4.812 4.812 7.788 11.459 7.788 18.799 0 7.341-2.976 13.988-7.788 18.799-4.811 4.812-11.458 7.788-18.799 7.788s-13.988-2.976-18.8-7.788c-4.811-4.811-7.787-11.458-7.787-18.799zm19.1-7.487c-1.916 1.915-3.101 4.563-3.101 7.487s1.185 5.572 3.1 7.487 4.563 3.1 7.487 3.1 5.572-1.185 7.487-3.101c1.916-1.915 3.1-4.563 3.1-7.487s-1.185-5.572-3.1-7.487-4.563-3.1-7.487-3.1c-2.923.001-5.571 1.185-7.486 3.101zm-30.636-22.689c-3.124 3.124-8.189 3.124-11.312 0-3.124-3.124-3.124-8.189 0-11.312 13.652-13.652 31.544-20.478 49.435-20.478 17.892 0 35.784 6.826 49.435 20.477 3.124 3.124 3.124 8.189 0 11.313s-8.189 3.124-11.312 0c-10.527-10.527-24.325-15.79-38.123-15.79s-27.596 5.263-38.123 15.79zm-25.016-25.017c17.435-17.435 40.287-26.152 63.139-26.152s45.705 8.718 63.14 26.152c3.124 3.124 8.189 3.124 11.312 0 3.124-3.124 3.124-8.189 0-11.312-20.56-20.559-47.506-30.84-74.452-30.84s-53.892 10.28-74.452 30.84c-3.124 3.124-3.124 8.189 0 11.312 3.124 3.124 8.189 3.124 11.313 0z" fill="#cff0ff"/><path d="m294.736 266.898c-3.124 3.124-8.189 3.124-11.312 0-3.124-3.124-3.124-8.189 0-11.312 27.468-27.468 63.469-41.202 99.469-41.202s72.001 13.734 99.469 41.202c3.124 3.124 3.124 8.189 0 11.312-3.124 3.124-8.189 3.124-11.312 0-24.343-24.343-56.25-36.514-88.156-36.514s-63.815 12.171-88.158 36.514zm61.569 80.209c0-7.341 2.976-13.988 7.788-18.799 4.812-4.812 11.458-7.788 18.799-7.788s13.988 2.976 18.799 7.788c4.812 4.812 7.788 11.458 7.788 18.799s-2.976 13.988-7.788 18.799c-4.811 4.811-11.458 7.788-18.799 7.788s-13.988-2.976-18.8-7.788c-4.811-4.811-7.787-11.458-7.787-18.799zm19.1-7.487c-1.916 1.915-3.1 4.563-3.1 7.487s1.185 5.572 3.1 7.487 4.563 3.1 7.487 3.1 5.572-1.185 7.487-3.1c1.916-1.915 3.101-4.563 3.101-7.487s-1.185-5.572-3.101-7.487c-1.915-1.915-4.563-3.1-7.487-3.1s-5.571 1.184-7.487 3.1zm-30.636-22.689c-3.124 3.124-8.189 3.124-11.312 0-3.124-3.124-3.124-8.189 0-11.312 13.652-13.652 31.544-20.478 49.435-20.478s35.783 6.826 49.435 20.478c3.124 3.124 3.124 8.189 0 11.313s-8.189 3.124-11.312 0c-10.527-10.527-24.325-15.79-38.123-15.79-13.798-.001-27.596 5.262-38.123 15.789zm-25.016-25.017c17.435-17.435 40.287-26.152 63.139-26.152s45.705 8.718 63.139 26.152c3.124 3.124 8.189 3.124 11.312 0 3.124-3.124 3.124-8.189 0-11.312-20.56-20.559-47.506-30.84-74.452-30.84s-53.892 10.281-74.452 30.84c-3.124 3.124-3.124 8.189 0 11.312 3.125 3.124 8.19 3.124 11.314 0z" fill="#ffd92d"/></g></g></svg>