<svg xmlns="http://www.w3.org/2000/svg" version="1.1" xmlns:xlink="http://www.w3.org/1999/xlink" width="512" height="512" x="0" y="0" viewBox="0 0 256 256" style="enable-background:new 0 0 512 512" xml:space="preserve" class=""><g><path d="M30.745 70.406h8.682v5.5h-8.682zM61.399 70.406h53.66v5.5h-53.66zM46.033 70.406h8.682v5.5h-8.682zM37.166 51.123h53.66v5.5h-53.66zM21.8 51.123h8.681v5.5H21.8zM162.428 52.36l33.279 29.003c.71-.245 1.431-.46 2.165-.646l-26.525-33.032a7.56 7.56 0 0 0-5.242-2.39 7.553 7.553 0 0 0-5.469 2.016 7.566 7.566 0 0 0-2.014 3.067 12.003 12.003 0 0 1 3.688 1.886c.04.03.08.062.118.095zM150.334 67.813l36.15 19.044a26.638 26.638 0 0 1 4.815-3.499L159.598 55.73a7.559 7.559 0 0 0-5.582-1.427 7.564 7.564 0 0 0-5.027 2.947 7.567 7.567 0 0 0-1.47 5.64 7.564 7.564 0 0 0 2.815 4.923zM80.015 96.94c-1.654 1.225-3.082 3.591-2.158 6.572l4.945 11.482a31.468 31.468 0 0 1 10.8-12.81l-6.66-5.383c-2.586-1.764-5.271-1.087-6.927.14z" fill="#000000" opacity="1" data-original="#000000" class=""></path><path d="m183.516 133.483 12.813-5.447a2.2 2.2 0 0 1 1.973-.395c2.564.73 5.218.988 7.883.766 12.068-1.004 29.74-12.405 28.728-24.556-1.011-12.15-20.318-20.475-32.392-19.468-9.293.773-17.14 7.349-19.524 16.362a2.2 2.2 0 0 1-2.126 1.637c-.014 0-69.309-1.257-69.639-1.257-14.818 0-26.873 12.054-26.873 26.872 0 4.286.987 8.39 2.932 12.2a2.2 2.2 0 0 1-.953 2.957l-20.355 10.469a1.366 1.366 0 0 1-.05.025c-.971.523-12.495 8.028-19.689 12.739-2.71 3.062-2.515 7.76.48 10.583 5.437 5 11.002-.54 11.126-.625l20.06-13.652a2.2 2.2 0 0 1 1.067-.375l41.427-3.217 36.705-17.295a2.2 2.2 0 0 1 1.965.046l38.763 20.478c5.082 2.55 8.966-.672 10.289-3.176 2.712-5.25-1.377-9.339-3.175-10.29l-21.602-11.411c-2.245-1.752-.614-3.638.167-3.97zM89.73 184.627h8.681v5.5H89.73zM120.383 184.627h53.66v5.5h-53.66zM105.017 184.627h8.681v5.5h-8.681zM46.847 203.91h8.681v5.5h-8.681zM77.5 203.91h53.661v5.5H77.5zM62.135 203.91h8.681v5.5h-8.681z" fill="#000000" opacity="1" data-original="#000000" class=""></path></g></svg>