<svg id="Layer_1" enable-background="new 0 0 24 24" viewBox="0 0 24 24" xmlns="http://www.w3.org/2000/svg"><path d="m23.942 8.677-3.188-1.841c-.036-.02-.079-.02-.115 0l-1.933 1.117c-.957-1.03-2.136-1.83-3.448-2.338v-3.131c0-.041-.021-.079-.057-.1l-3.188-1.84c-.035-.021-.08-.021-.115 0l-3.189 1.841c-.036.021-.057.059-.057.1v3.115c-1.31.495-2.491 1.281-3.452 2.3l-1.839-1.064c-.036-.02-.079-.02-.115 0l-3.188 1.841c-.036.02-.058.059-.058.1v3.681c0 .041.022.079.058.1l2.636 1.521v.155c.008 3.883 2.436 7.349 6.083 8.682.017.015.038.024.061.025h.006c2.064.734 4.321.709 6.368-.07 1.241-.476 2.366-1.211 3.3-2.156.048.031.093.062.147.09l.007.222c0 .167.122.309.287.335l.247.037c.019.001.038.001.057 0 .146 0 .275-.094.32-.233l.073-.213c.092-.014.182-.037.269-.068l.161.158c.121.111.303.123.437.027l.2-.148c.132-.098.175-.277.1-.424l-.1-.2c.055-.076.103-.157.144-.241h.224c.168-.002.31-.126.335-.292l.037-.251c.021-.162-.076-.316-.23-.368l-.217-.073c-.014-.092-.036-.183-.065-.272l.159-.162c.112-.121.124-.305.027-.439l-.15-.2c-.101-.13-.279-.172-.427-.1l-.186.093c.529-1.181.801-2.46.8-3.754 0-.027 0-.05 0-.075l2.773-1.6c.036-.021.058-.059.058-.1v-3.687c0-.041-.021-.079-.057-.1zm-5.442-.606-1.049.606c-.036.02-.058.059-.058.1v3.612l-2.283 1.22c-.036.02-.059.058-.06.1v8.971c-.961.354-1.976.542-3 .555.006-.014.017-.025.017-.041v-15.121l3.133-1.808c.036-.021.057-.059.057-.1v-.3c1.229.49 2.336 1.243 3.243 2.206zm-9.848-2.226v.321c0 .041.021.079.057.1l3.131 1.807v15.121c0 .015.011.026.016.039-.99-.005-1.972-.174-2.906-.5v-9.022c-.001-.042-.024-.08-.06-.1l-2.283-1.22v-3.614c0-.041-.022-.08-.058-.1l-1.14-.658c.908-.954 2.016-1.696 3.243-2.174zm-5.731 8.391v-.023l.324.187c.035.021.08.021.115 0l3.134-1.81 2.226 1.19v8.866c-3.486-1.336-5.79-4.679-5.799-8.412zm17.243 3.64c-.016-.008-.028-.017-.045-.025l-.007-.225c0-.167-.122-.309-.287-.334l-.247-.037c-.165-.027-.325.07-.377.228l-.074.215c-.091.015-.18.037-.268.066l-.159-.154c-.12-.112-.303-.124-.437-.028l-.2.148c-.132.098-.174.277-.1.424l.1.2c-.055.076-.103.156-.144.24h-.229c-.166.005-.305.127-.331.291l-.037.251c-.02.163.076.319.231.374l.216.07c.014.092.036.182.065.27l-.154.157c-.117.118-.131.303-.033.437l.15.207c.07.09.18.139.294.132-.817.766-1.768 1.374-2.805 1.795v-8.798l2.226-1.19 3.127 1.81c.035.021.08.021.115 0l.184-.106c-.007 1.236-.271 2.456-.774 3.585z"/><g fill="#fff"><path d="m1.175 10.686h.875v-.24h-.875v-.714h.926v-.244h-1.221v2.258h1.272v-.245h-.977z"/><path d="m3.548 11.216c.033.184.084.365.152.539h.3c-.079-.201-.138-.409-.175-.622-.022-.199-.149-.371-.332-.452v-.014c.255-.075.428-.311.424-.576.004-.161-.06-.316-.175-.428-.188-.14-.421-.205-.654-.184-.188-.001-.376.014-.562.046v2.23h.294v-.977h.28c.264.009.383.122.448.438zm-.724-.659v-.825c.094-.023.19-.033.286-.032.309 0 .521.129.521.424 0 .258-.2.429-.512.429z"/><path d="m4.626 10.852c.078.014.156.02.235.018.255.015.504-.075.691-.249.12-.131.183-.305.175-.483.007-.179-.067-.351-.2-.47-.182-.139-.408-.206-.636-.189-.187 0-.373.015-.557.046v2.23h.29zm0-1.115c.09-.02.182-.03.274-.028.318 0 .53.148.53.442 0 .314-.212.484-.566.484-.081.003-.161-.004-.24-.023z"/><path d="m19.084 9.824c.135-.002.269.026.392.083l.06-.2c-.145-.065-.303-.095-.461-.087-.533-.027-.987.382-1.014.915-.002.034-.002.069 0 .103-.041.5.331.939.831.98.042.003.085.004.128.002.177.006.353-.026.516-.093l-.055-.2c-.128.057-.266.086-.406.083-.39.024-.725-.273-.749-.662-.002-.04-.001-.081.003-.121-.045-.396.239-.754.635-.799.04-.005.08-.006.12-.004z"/><path d="m19.849 9.672v1.917h.251v-.839h.24c.225.005.331.106.387.378.028.158.071.312.129.461h.262c-.067-.173-.117-.352-.152-.535-.019-.172-.128-.32-.285-.391v-.005c.222-.064.373-.269.368-.5.005-.14-.053-.275-.157-.369-.16-.123-.361-.18-.562-.157-.161 0-.322.014-.481.04zm.945.516c0 .221-.171.369-.438.369h-.256v-.71c.082-.016.165-.024.249-.023.265.005.445.115.445.364z"/><path d="m21.641 10.755c.014-.29.028-.613.037-.857.055.23.134.484.226.756l.313.926h.189l.346-.945c.1-.267.175-.511.244-.737h.009c-.005.244.014.567.028.839l.05.852h.244l-.124-1.94h-.313l-.345.94c-.079.214-.146.432-.2.654h-.009c-.051-.2-.116-.419-.2-.654l-.331-.94h-.318l-.138 1.94h.239z"/><path d="m10.431 3.558c.13-.003.26.024.378.078l.06-.2c-.141-.061-.294-.089-.447-.083-.518-.026-.96.373-.986.891-.002.033-.002.066 0 .099-.042.486.318.915.804.957.042.004.085.004.127.002.171.005.342-.026.5-.092l-.051-.194c-.126.055-.263.082-.4.078-.377.024-.702-.262-.726-.639-.003-.038-.002-.077.002-.116-.045-.384.229-.732.613-.778.042-.004.084-.006.126-.003z"/><path d="m12.155 5.258.336-.917c.092-.258.17-.493.235-.714h.009c0 .235.014.553.028.816l.051.829h.235l-.116-1.889h-.313l-.336.912c-.083.24-.148.447-.2.636h-.009c-.052-.215-.115-.427-.189-.636l-.322-.912h-.309l-.133 1.889h.235l.046-.811c.018-.281.032-.6.036-.834h.01c.05.221.129.466.216.733l.3.9z"/><path d="m13.832 5.1c-.155 0-.306-.043-.438-.124l-.064.207c.148.08.315.121.483.12.447 0 .659-.254.659-.544s-.161-.433-.479-.558c-.263-.1-.378-.184-.378-.364 0-.129.1-.281.36-.281.123 0 .245.03.354.088l.069-.2c-.13-.065-.274-.097-.419-.092-.298-.036-.569.177-.605.475-.001.012-.002.024-.003.036 0 .267.189.429.5.539.253.1.354.2.354.373s-.144.325-.393.325z"/></g><path d="m18.758 5.585c.012.005.026.007.039.007.048 0 .091-.03.108-.075l1.172-3.2c.022-.059-.008-.126-.067-.148s-.126.008-.148.067c0 .001 0 .001-.001.002l-1.172 3.2c-.021.06.009.125.069.147z"/><path d="m18.377 4.852c.049.041.121.035.163-.013.041-.049.035-.121-.013-.163l-.956-.813.955-.805c.049-.04.057-.112.017-.162-.04-.049-.112-.057-.162-.017-.001.001-.002.002-.003.003l-1.06.892c-.049.041-.055.113-.014.162.004.005.009.01.014.014z"/><path d="m20.2 4.839c.041.048.113.054.162.013l1.06-.9c.025-.022.04-.054.04-.088s-.015-.066-.041-.088l-1.059-.892c-.049-.039-.121-.032-.162.016-.041.049-.035.121.014.162l.956.805-.956.813c-.047.041-.053.111-.014.159z"/><path d="m19.9 18.728c-.109-.096-.243-.157-.387-.177-.431-.066-.833.229-.9.66-.005.039-.008.078-.009.117 0 .285.155.547.405.684h.006c.077.046.162.076.251.09.43.064.832-.232.896-.663.04-.268-.061-.539-.267-.715zm.04.681c-.044.304-.327.515-.631.471-.062-.009-.122-.03-.175-.063h-.005c-.18-.096-.293-.284-.293-.488.001-.028.003-.056.008-.084.046-.304.33-.512.633-.466h.001c.101.014.195.058.272.125.145.125.216.316.188.505z" fill="#fff"/></svg>