<?xml version="1.0" encoding="UTF-8"?>
<svg xmlns="http://www.w3.org/2000/svg" id="Layer_1" data-name="Layer 1" viewBox="0 0 64 64" width="512" height="512"><rect x="26" y="56" width="12" height="6" rx="1" fill="#d86163"/><circle cx="55" cy="28" r="7" fill="#adcdf7"/><circle cx="55" cy="26.25" r="1.75" fill="#ffc173"/><path d="M52,34.164V30.651a1.688,1.688,0,0,1,1.687-1.688h2.625A1.688,1.688,0,0,1,58,30.651v3.513Z" fill="#2c77d9"/><circle cx="41" cy="13" r="7" fill="#adcdf7"/><circle cx="41" cy="11.25" r="1.75" fill="#ffc173"/><path d="M38,19.164V15.651a1.688,1.688,0,0,1,1.687-1.688h2.625A1.688,1.688,0,0,1,44,15.651v3.513Z" fill="#2c77d9"/><circle cx="20" cy="9" r="7" fill="#adcdf7"/><circle cx="20" cy="7.25" r="1.75" fill="#ffc173"/><path d="M17,15.164V11.651a1.688,1.688,0,0,1,1.687-1.688h2.625A1.688,1.688,0,0,1,23,11.651v3.513Z" fill="#2c77d9"/><circle cx="9" cy="29" r="7" fill="#adcdf7"/><circle cx="9" cy="27.25" r="1.75" fill="#ffc173"/><path d="M6,35.164V31.651a1.688,1.688,0,0,1,1.687-1.688h2.625A1.688,1.688,0,0,1,12,31.651v3.513Z" fill="#2c77d9"/><path d="M55.291,40.957A1,1,0,0,0,56,40V35.931a8,8,0,1,0-2,0v3.328L33,45.65V34.535l8.555-5.7A1,1,0,0,0,42,28V20.931a8,8,0,1,0-2,0v6.534l-7,4.667V26a1,1,0,0,0-.615-.923L21,20.333v-3.4a8,8,0,1,0-2,0V21a1,1,0,0,0,.615.923L31,26.667V48.65L10,42.259V36.931a8,8,0,1,0-2,0V43a1,1,0,0,0,.709.957L31,50.741V55H27a2,2,0,0,0-2,2v1H1v2H25v1a2,2,0,0,0,2,2H37a2,2,0,0,0,2-2V60H63V58H39V57a2,2,0,0,0-2-2H33V47.741ZM51,30.65v1.81a6,6,0,1,1,8,0V30.65a2.683,2.683,0,0,0-1.959-2.574,2.75,2.75,0,1,0-4.082,0A2.683,2.683,0,0,0,51,30.65Zm4.75-4.4A.75.75,0,1,1,55,25.5.751.751,0,0,1,55.75,26.25ZM53,33.65v-3a.688.688,0,0,1,.687-.687h2.625A.688.688,0,0,1,57,30.65v3a5.889,5.889,0,0,1-4,0Zm-16-18v1.81a6,6,0,1,1,8,0V15.65a2.683,2.683,0,0,0-1.959-2.574,2.75,2.75,0,1,0-4.082,0A2.683,2.683,0,0,0,37,15.65Zm4.75-4.4A.75.75,0,1,1,41,10.5.751.751,0,0,1,41.75,11.25ZM39,18.65v-3a.688.688,0,0,1,.687-.687h2.625A.688.688,0,0,1,43,15.65v3a5.889,5.889,0,0,1-4,0Zm-23-7v1.81a6,6,0,1,1,8,0V11.65a2.683,2.683,0,0,0-1.959-2.574,2.75,2.75,0,1,0-4.082,0A2.683,2.683,0,0,0,16,11.65Zm4.75-4.4A.75.75,0,1,1,20,6.5.751.751,0,0,1,20.75,7.25ZM18,14.65v-3a.688.688,0,0,1,.687-.687h2.625A.688.688,0,0,1,22,11.65v3a5.889,5.889,0,0,1-4,0Zm-13,17v1.81a6,6,0,1,1,8,0V31.65a2.683,2.683,0,0,0-1.959-2.574,2.75,2.75,0,1,0-4.082,0A2.683,2.683,0,0,0,5,31.65Zm4.75-4.4A.75.75,0,1,1,9,26.5.751.751,0,0,1,9.75,27.25ZM7,34.65v-3a.688.688,0,0,1,.687-.687h2.625A.688.688,0,0,1,11,31.65v3a5.889,5.889,0,0,1-4,0ZM37,57v4H27V57Z"/></svg>
