<svg fill="none" height="42" viewBox="0 0 42 42" width="42" xmlns="http://www.w3.org/2000/svg"><g fill="rgb(0,0,0)"><path d="m10.8096 15.9182c0-.4142.3358-.75.75-.75h3.6521c.4142 0 .75.3358.75.75s-.3358.75-.75.75h-3.6521c-.4142 0-.75-.3358-.75-.75z"/><path d="m11.5597 20.0201c-.4142 0-.75.3358-.75.75s.3358.75.75.75h3.6521c.4142 0 .75-.3358.75-.75s-.3358-.75-.75-.75z"/><path clip-rule="evenodd" d="m8.25696 18.916h-1.47998v-.0052c-2.75867-.122-4.95777-2.3971-4.95777-5.1859 0-2.842 2.28393-5.15058 5.11649-5.19044.21165-3.37815 3.01853-6.05253 6.45-6.05253 3.4316 0 6.2384 2.67438 6.4501 6.05253 2.8325.03989 5.1164 2.34844 5.1164 5.19044 0 2.7845-2.1923 5.0569-4.945 5.1853v.0058h-1.4926v3.9106c0 .5523-.4477 1-1 1h-8.25764c-.55229 0-1-.4477-1-1zm-1.32913-1.5-.08459-.0037c-1.96037-.0867-3.52403-1.7048-3.52403-3.6874 0-2.0206 1.62399-3.6623 3.63759-3.6906l1.38909-.0195.08687-1.38654c.16244-2.5927 2.31844-4.64633 4.95294-4.64633 2.6346 0 4.7906 2.05363 4.953 4.64633l.0869 1.38654 1.3891.0195c2.0136.0284 3.6375 1.67 3.6375 3.6906 0 1.9795-1.5588 3.5957-3.5149 3.687l-.0891.0041h-1.3336v-3.8957c0-.5523-.4477-1-1-1h-8.25764c-.55229 0-1 .4477-1 1v3.8957zm10.08677 0h-7.25764v-3.3957h7.25764zm-7.25764 1.5075h7.25764v3.4031h-7.25764z" fill-rule="evenodd"/><path d="m26.0382 31.6097c0-.4142.3358-.75.75-.75h3.6521c.4143 0 .75.3358.75.75s-.3357.75-.75.75h-3.6521c-.4142 0-.75-.3358-.75-.75z"/><path d="m26.7883 35.7116c-.4142 0-.75.3358-.75.75s.3358.75.75.75h3.6522c.4142 0 .75-.3358.75-.75s-.3358-.75-.75-.75z"/><path clip-rule="evenodd" d="m33.7432 34.6076h1.4926v-.0058c2.7527-.1285 4.9451-2.4009 4.9451-5.1853 0-2.842-2.2839-5.1506-5.1165-5.1905-.2116-3.3782-3.0185-6.0525-6.45-6.0525s-6.2384 2.6743-6.4501 6.0525c-2.8325.0399-5.1165 2.3484-5.1165 5.1905 0 2.7887 2.1991 5.0639 4.9578 5.1858v.0053h1.48v3.9106c0 .5522.4477 1 1 1h8.2576c.5523 0 1-.4478 1-1zm-11.6713-1.5038.0846.0037h1.3291v-3.8957c0-.5523.4477-1 1-1h8.2576c.5523 0 1 .4477 1 1v3.8957h1.3337l.089-.0041c1.9561-.0913 3.515-1.7075 3.515-3.6869 0-2.0207-1.624-3.6623-3.6376-3.6907l-1.3891-.0195-.0868-1.3865c-.1625-2.5927-2.3185-4.6463-4.953-4.6463s-4.7906 2.0536-4.953 4.6463l-.0869 1.3865-1.3891.0195c-2.0136.0284-3.6376 1.67-3.6376 3.6907 0 1.9825 1.5637 3.6006 3.5241 3.6873zm10.1713.0037v-3.3957h-7.2576v3.3957zm-7.2576 1.5075h7.2576v3.4032h-7.2576z" fill-rule="evenodd"/><path d="m32.2639 5.232c-2.7625-1.16619-5.8311-.55831-7.9343 1.31173-.3095.27524-.7836.24742-1.0588-.06213s-.2474-.78361.0621-1.05884c2.5192-2.23989 6.199-2.97224 9.5143-1.57267 4.5929 1.93889 6.7445 7.23401 4.8056 11.82691-.1182.2798-.2488.5506-.3911.8122l1.3444-.3806c.3986-.1128.8131.1188.9259.5174.1129.3985-.1188.8131-.5173.9259l-3.2512.9203c-.3985.1129-.8131-.1187-.9259-.5173l-.9207-3.2513c-.1128-.3985.1188-.8131.5173-.926.3986-.1128.8131.1188.926.5173l.4737 1.673c.1621-.2779.3083-.5696.4369-.8743 1.6168-3.8297-.1772-8.24489-4.0069-9.8616z"/></g></svg>