<svg clip-rule="evenodd" fill-rule="evenodd" height="512" image-rendering="optimizeQuality" shape-rendering="geometricPrecision" text-rendering="geometricPrecision" viewBox="0 0 512 512" width="512" xmlns="http://www.w3.org/2000/svg"><g id="Layer_x0020_1"><g id="_282373560"><path d="m256 512c-68 0-133-27-181-75s-75-113-75-181 27-133 75-181 113-75 181-75 133 27 181 75 75 113 75 181-27 133-75 181-113 75-181 75z" fill="#ffc850"/><path d="m256 483c-61 0-118-24-160-67-43-42-67-99-67-160s24-118 67-160c42-43 99-67 160-67s118 24 160 67c43 42 67 99 67 160s-24 118-67 160c-42 43-99 67-160 67z" fill="#fff"/><path d="m256 215c-3 0-6-3-6-6v-88c0-3 3-6 6-6s6 3 6 6v88c0 3-3 6-6 6z" fill="#5e6d84"/><path d="m256 127c-21 0-39-17-39-39 0-21 18-38 39-38s39 17 39 38c0 22-18 39-39 39z" fill="#19c0ef"/><path d="m391 262h-88c-3 0-6-3-6-6s3-6 6-6h88c3 0 6 3 6 6s-3 6-6 6z" fill="#5e6d84"/><path d="m424 295c-22 0-39-18-39-39s17-39 39-39c21 0 38 18 38 39s-17 39-38 39z" fill="#19c0ef"/><path d="m256 397c-3 0-6-3-6-6v-88c0-3 3-6 6-6s6 3 6 6v88c0 3-3 6-6 6z" fill="#5e6d84"/><path d="m256 462c-21 0-39-17-39-38 0-22 18-39 39-39s39 17 39 39c0 21-18 38-39 38z" fill="#19c0ef"/><path d="m209 262h-88c-3 0-6-3-6-6s3-6 6-6h88c3 0 6 3 6 6s-3 6-6 6z" fill="#5e6d84"/><path d="m88 295c-21 0-38-18-38-39s17-39 38-39c22 0 39 18 39 39s-17 39-39 39z" fill="#19c0ef"/><path d="m290 228c-2 0-4 0-5-1-2-3-2-6 0-9l29-28c5-6 14 3 8 8l-28 29c-1 1-3 1-4 1z" fill="#5e6d84"/><path d="m331 205c-6 0-13-2-17-7-10-9-10-25 0-35 4-4 11-7 17-7 7 0 13 3 18 7 9 10 9 26 0 35-5 5-11 7-18 7z" fill="#1de8f1"/><path d="m318 324c-1 0-3-1-4-2l-29-28c-2-3-2-6 0-9 3-2 6-2 9 0l28 29c4 4 1 10-4 10z" fill="#5e6d84"/><path d="m331 356c-6 0-13-3-17-7-10-10-10-26 0-35 4-5 11-7 17-7 7 0 13 2 18 7 9 9 9 25 0 35-5 4-11 7-18 7z" fill="#1de8f1"/><path d="m190 314 28-29c3-2 6-2 9 0 2 3 2 6 0 9l-29 28c-5 6-14-3-8-8z" fill="#5e6d84"/><path d="m181 356c-7 0-13-3-18-7-9-10-9-26 0-35 5-5 11-7 18-7 6 0 13 2 17 7 10 9 10 25 0 35-4 4-11 7-17 7z" fill="#1de8f1"/><path d="m222 228c-1 0-3 0-4-1l-28-29c-6-5 3-14 8-8l29 28c2 3 2 6 0 9-1 1-3 1-5 1z" fill="#5e6d84"/><g fill="#1de8f1"><path d="m181 205c-7 0-13-2-18-7-9-9-9-25 0-35 5-4 11-7 18-7 6 0 13 3 17 7 10 10 10 26 0 35-4 5-11 7-17 7z"/><path d="m256 309c-29 0-53-24-53-53s24-53 53-53 53 24 53 53-24 53-53 53z"/></g></g></g></svg>