<svg id="Layer_1" enable-background="new 0 0 100 100" height="100" viewBox="0 0 100 100" width="100" xmlns="http://www.w3.org/2000/svg"><g><path d="m76.703 28.954c.002.034.005.068.009.102.227 2.57 1.73 4.556 3.553 4.556 1.821 0 3.324-1.986 3.552-4.556.003-.034.006-.068.009-.102.016-.111.027-.224.033-.339.004-.078.008-.156.008-.236 0-.195-.014-.387-.041-.576-.264-1.82-1.757-3.216-3.561-3.216s-3.299 1.396-3.562 3.216c-.027.188-.042.38-.042.576 0 .08.004.158.009.236.006.115.018.228.033.339zm1.339-2.044s1.037.503 2.223.536c1.185-.033 2.222-.536 2.222-.536.75.297.395 2.409.395 2.41.188-.131.36-.199.5-.234-.206 2.246-1.523 3.977-3.116 3.977-1.595 0-2.911-1.731-3.118-3.977.141.035.313.104.5.234-.002-.001-.358-2.113.394-2.41z"/><path d="m80.265 59.533c-1.804 0-3.299 1.396-3.562 3.216-.027.188-.042.381-.042.575 0 .08.004.158.009.237.006.114.018.227.033.339.002.033.005.067.009.102.227 2.57 1.73 4.556 3.553 4.556 1.821 0 3.324-1.985 3.552-4.556.003-.034.006-.068.009-.102.016-.112.027-.225.033-.339.004-.079.008-.157.008-.237 0-.194-.014-.387-.041-.575-.264-1.82-1.758-3.216-3.561-3.216zm0 8.475c-1.595 0-2.911-1.731-3.118-3.977.141.035.313.103.5.234 0 0-.356-2.113.396-2.409 0 0 1.037.503 2.223.535 1.185-.032 2.222-.535 2.222-.535.75.296.395 2.408.395 2.408.188-.131.36-.198.5-.233-.208 2.245-1.526 3.977-3.118 3.977z"/><path d="m80.265 57.346c-3.246 0-6.138 1.534-7.994 3.913l-10.457-5.746c.782-1.672 1.222-3.536 1.222-5.501s-.439-3.829-1.222-5.501l10.456-5.747c1.857 2.379 4.749 3.914 7.995 3.914 5.59 0 10.138-4.548 10.138-10.139 0-5.59-4.548-10.138-10.138-10.138-5.592 0-10.14 4.548-10.14 10.138 0 1.722.434 3.344 1.193 4.765l-10.346 5.686c-2.172-3.383-5.862-5.7-10.104-5.981v-11.772c5.186-.442 9.271-4.801 9.271-10.099.001-5.59-4.548-10.138-10.139-10.138-5.59 0-10.138 4.548-10.138 10.139 0 5.297 4.084 9.656 9.269 10.099v11.771c-4.241.281-7.931 2.598-10.104 5.981l-10.345-5.686c.76-1.422 1.192-3.043 1.192-4.765 0-5.59-4.548-10.139-10.138-10.139-5.591 0-10.139 4.548-10.139 10.139s4.548 10.138 10.139 10.138c3.245 0 6.136-1.534 7.994-3.913l10.457 5.747c-.782 1.673-1.222 3.536-1.222 5.501s.439 3.829 1.221 5.501l-10.456 5.747c-1.857-2.38-4.749-3.914-7.994-3.914-5.591 0-10.139 4.548-10.139 10.139s4.548 10.139 10.139 10.139c5.59 0 10.138-4.548 10.138-10.139 0-1.722-.432-3.344-1.192-4.765l10.344-5.686c2.173 3.383 5.864 5.7 10.104 5.98v11.748c-5.185.442-9.269 4.801-9.269 10.099.001 5.591 4.549 10.139 10.139 10.139s10.139-4.548 10.139-10.139c0-5.298-4.085-9.656-9.271-10.099v-11.747c4.241-.28 7.933-2.598 10.104-5.98l10.346 5.686c-.76 1.421-1.193 3.043-1.193 4.765 0 5.591 4.548 10.139 10.14 10.139 5.59 0 10.138-4.548 10.138-10.139s-4.549-10.14-10.138-10.14zm0-33.753c4.94 0 8.945 4.004 8.945 8.945 0 2.031-.678 3.901-1.816 5.402 0-.015.003-.029.003-.044 0-2.454-1.878-4.468-4.275-4.688-.019.858-1.291 1.551-2.856 1.551-1.567 0-2.839-.692-2.857-1.551-2.397.219-4.274 2.234-4.274 4.688 0 .015.001.029.001.044-1.139-1.501-1.815-3.372-1.815-5.402-.003-4.94 4.002-8.945 8.944-8.945zm-57.672 9.616c-.019.858-1.291 1.551-2.857 1.551-1.567 0-2.839-.692-2.858-1.551-2.397.219-4.274 2.233-4.274 4.688 0 .015.002.029.002.044-1.14-1.501-1.817-3.372-1.817-5.402 0-4.941 4.005-8.945 8.947-8.945 4.94 0 8.946 4.004 8.946 8.945 0 2.03-.677 3.901-1.817 5.402 0-.015.003-.029.003-.044 0-2.454-1.877-4.468-4.275-4.688zm4.272 39.678c0-.015.003-.028.003-.044 0-2.454-1.877-4.469-4.275-4.687-.019.857-1.291 1.55-2.857 1.55-1.567 0-2.839-.692-2.858-1.55-2.397.218-4.274 2.232-4.274 4.687 0 .016.002.029.002.044-1.14-1.501-1.817-3.372-1.817-5.402 0-4.941 4.005-8.945 8.947-8.945 4.94 0 8.946 4.004 8.946 8.945 0 2.03-.677 3.901-1.817 5.402zm20.278-57.077c-2.397.219-4.274 2.233-4.274 4.687 0 .015.001.029.002.044-1.139-1.5-1.816-3.372-1.816-5.402 0-4.941 4.005-8.946 8.946-8.946s8.946 4.004 8.946 8.946c0 2.03-.677 3.901-1.817 5.402 0-.015.003-.028.003-.044 0-2.454-1.877-4.468-4.274-4.687-.02.857-1.293 1.55-2.859 1.55-1.567 0-2.839-.693-2.857-1.55zm11.803 69.051c0 2.03-.677 3.901-1.817 5.402 0-.015.003-.029.003-.044 0-2.453-1.877-4.47-4.274-4.688-.019.859-1.291 1.552-2.857 1.552-1.567 0-2.839-.692-2.857-1.552-2.397.219-4.274 2.235-4.274 4.688 0 .015.001.028.002.044-1.139-1.501-1.816-3.372-1.816-5.402 0-4.94 4.005-8.946 8.946-8.946 4.939 0 8.944 4.006 8.944 8.946zm.22-27.904c0-.019.004-.036.004-.056 0-3.155-2.414-5.746-5.496-6.027-.023 1.104-1.66 1.994-3.674 1.994-2.015 0-3.65-.89-3.674-1.994-3.082.281-5.496 2.872-5.496 6.027 0 .02.002.037.003.056-1.465-1.93-2.335-4.335-2.335-6.945 0-6.352 5.149-11.501 11.502-11.501s11.502 5.149 11.502 11.501c0 2.61-.871 5.015-2.336 6.945zm28.228 15.93c0-.015.003-.028.003-.044 0-2.454-1.878-4.469-4.275-4.687-.019.857-1.291 1.55-2.856 1.55-1.567 0-2.839-.692-2.857-1.55-2.397.218-4.274 2.232-4.274 4.687 0 .016.001.029.001.044-1.139-1.501-1.815-3.372-1.815-5.402 0-4.941 4.005-8.945 8.946-8.945 4.94 0 8.945 4.004 8.945 8.945-.002 2.03-.68 3.901-1.818 5.402z"/><path d="m19.736 59.533c-1.804 0-3.298 1.396-3.562 3.216-.027.188-.041.381-.041.575 0 .08.003.158.007.237.007.114.018.227.034.339.002.033.006.067.009.102.227 2.57 1.731 4.556 3.553 4.556 1.82 0 3.325-1.985 3.552-4.556.003-.034.006-.068.009-.102.016-.112.027-.225.033-.339.005-.079.008-.157.008-.237 0-.194-.014-.387-.041-.575-.263-1.82-1.758-3.216-3.561-3.216zm0 8.475c-1.594 0-2.911-1.731-3.118-3.977.14.035.313.103.5.234 0 0-.356-2.113.396-2.409 0 0 1.037.503 2.223.535 1.185-.032 2.222-.535 2.222-.535.751.296.395 2.408.395 2.408.188-.131.36-.198.5-.233-.208 2.245-1.525 3.977-3.118 3.977z"/><path d="m19.736 24.587c-1.804 0-3.298 1.396-3.562 3.216-.027.188-.041.38-.041.576 0 .08.003.158.007.236.007.115.018.228.034.339.002.034.006.068.009.102.227 2.57 1.731 4.556 3.553 4.556 1.82 0 3.325-1.986 3.552-4.556.003-.034.006-.067.009-.102.016-.111.027-.224.033-.339.005-.078.008-.156.008-.236 0-.195-.014-.387-.041-.576-.263-1.821-1.758-3.216-3.561-3.216zm0 8.474c-1.594 0-2.911-1.73-3.118-3.976.14.035.313.103.5.234 0-.001-.356-2.113.396-2.41 0 0 1.037.503 2.223.536 1.185-.032 2.222-.536 2.222-.536.751.296.395 2.409.395 2.41.188-.131.36-.199.5-.234-.208 2.246-1.525 3.976-3.118 3.976z"/><path d="m46.439 80.126c-.027.188-.042.38-.042.576 0 .079.004.157.008.235.007.115.018.229.034.34.002.034.006.067.009.101.227 2.57 1.73 4.557 3.553 4.557 1.821 0 3.326-1.986 3.552-4.557.003-.033.005-.066.009-.101.016-.111.027-.225.033-.34.005-.078.007-.156.007-.235 0-.196-.013-.388-.04-.576-.264-1.821-1.758-3.216-3.562-3.216s-3.298 1.395-3.561 3.216zm6.178 1.515c.188-.131.359-.198.5-.233-.207 2.245-1.523 3.977-3.117 3.977s-2.911-1.731-3.118-3.977c.14.035.313.103.5.233 0 0-.355-2.112.396-2.408 0 0 1.036.503 2.222.535 1.185-.032 2.221-.535 2.221-.535.753.295.396 2.408.396 2.408z"/><path d="m53.553 11.655c.003-.034.005-.067.009-.102.016-.111.027-.224.033-.339.005-.078.007-.156.007-.236 0-.195-.013-.387-.04-.576-.264-1.819-1.758-3.215-3.562-3.215s-3.298 1.396-3.562 3.216c-.027.188-.042.381-.042.576 0 .08.004.158.008.236.007.115.018.228.034.339.002.034.006.068.009.102.227 2.571 1.73 4.557 3.553 4.557 1.821-.001 3.326-1.987 3.553-4.558zm-6.67.03c.14.035.313.104.5.234 0 0-.355-2.113.396-2.41 0 0 1.036.503 2.222.536 1.185-.033 2.221-.536 2.221-.536.752.297.396 2.409.396 2.41.188-.131.359-.199.5-.234-.208 2.245-1.524 3.976-3.118 3.976s-2.91-1.731-3.117-3.976z"/><path d="m50 39.789c-2.319 0-4.24 1.794-4.579 4.135-.035.242-.053.489-.053.74 0 .103.004.203.01.304.009.147.022.292.043.436.003.044.007.087.011.13.292 3.305 2.226 5.858 4.568 5.858 2.341 0 4.275-2.553 4.567-5.858.003-.043.008-.086.012-.13.02-.143.034-.289.043-.436.005-.101.009-.202.009-.304 0-.251-.018-.498-.052-.74-.339-2.341-2.26-4.135-4.579-4.135zm0 10.895c-2.049 0-3.742-2.226-4.008-5.113.18.045.402.133.643.301 0 0-.457-2.717.509-3.098 0 0 1.333.647 2.857.689 1.523-.042 2.856-.689 2.856-.689.966.381.508 3.098.508 3.098.242-.168.463-.256.643-.301-.267 2.887-1.959 5.113-4.008 5.113z"/></g></svg>