<svg id="Capa_1" enable-background="new 0 0 512 512" height="512" viewBox="0 0 512 512" width="512" xmlns="http://www.w3.org/2000/svg"><g><circle cx="256" cy="256" fill="#01c0fa" r="176"/><path d="m272 80.718v154.131c0 14.224 11.531 25.755 25.755 25.755h134.186c.039-1.53.059-3.064.059-4.604 0-91.809-70.296-167.198-160-175.282z" fill="#08a9f1"/><path d="m80 256c0 1.539.02 3.074.059 4.604h134.186c14.224 0 25.755-11.531 25.755-25.755v-154.131c-89.704 8.084-160 83.473-160 175.282z" fill="#08a9f1"/><path d="m313.34 89.552c46.735 31.641 77.453 85.155 77.453 145.844 0 97.202-78.798 176-176 176-20.076 0-39.366-3.362-57.34-9.552 28.118 19.037 62.034 30.156 98.547 30.156 97.202 0 176-78.798 176-176 0-77.127-49.61-142.665-118.66-166.448z" fill="#08a9f1"/><path d="m215 240h-190c-13.807 0-25-11.193-25-25v-190c0-13.807 11.193-25 25-25h190c13.807 0 25 11.193 25 25v190c0 13.807-11.193 25-25 25z" fill="#0055a3"/><path d="m192.377 225.481h-147.877c-6.904 0-12.5-5.596-12.5-12.5v-96.755c0-6.904 5.596-12.5 12.5-12.5h147.877c6.904 0 12.5 5.596 12.5 12.5v96.755c0 6.903-5.596 12.5-12.5 12.5z" fill="#004281"/><path d="m214.245 0h-15.968c.338 1.664.515 3.387.515 5.151v136.133c0 43.14-34.972 78.112-78.112 78.112h-120.165c2.387 11.756 12.78 20.604 25.24 20.604h188.491c14.223 0 25.754-11.531 25.754-25.755v-188.49c0-14.224-11.531-25.755-25.755-25.755z" fill="#004281"/><path d="m96 44.877c0-7.112-5.765-12.877-12.877-12.877h-38.246c-7.112 0-12.877 5.765-12.877 12.877v51.123h172.877v-35.123c0-7.112-5.765-12.877-12.877-12.877h-92.877c-1.725 0-3.123-1.398-3.123-3.123z" fill="#f6ab31"/><path d="m487 240h-190c-13.807 0-25-11.193-25-25v-190c0-13.807 11.193-25 25-25h190c13.807 0 25 11.193 25 25v190c0 13.807-11.193 25-25 25z" fill="#80d261"/><path d="m304 116.056v96.547c0 8.534 6.918 15.453 15.453 15.453h145.095c8.534 0 15.453-6.919 15.453-15.453v-96.547z" fill="#68ca44"/><path d="m215 512h-190c-13.807 0-25-11.193-25-25v-190c0-13.807 11.193-25 25-25h190c13.807 0 25 11.193 25 25v190c0 13.807-11.193 25-25 25z" fill="#ffc344"/><path d="m193 484.604h-146c-8.284 0-15-6.716-15-15v-114c0-8.284 6.716-15 15-15h146c8.284 0 15 6.716 15 15v114c0 8.284-6.716 15-15 15z" fill="#feb237"/><path d="m214.245 272h-15.968c.338 1.664.515 3.387.515 5.151v136.133c0 43.14-34.972 78.112-78.112 78.112h-120.165c2.387 11.756 12.78 20.604 25.24 20.604h188.491c14.223 0 25.754-11.531 25.754-25.755v-188.49c0-14.224-11.531-25.755-25.755-25.755z" fill="#feb237"/><path d="m487 512h-190c-13.807 0-25-11.193-25-25v-190c0-13.807 11.193-25 25-25h190c13.807 0 25 11.193 25 25v190c0 13.807-11.193 25-25 25z" fill="#fd6930"/><path d="m448.547 324.604h-112.547v154.849c0 2.845 2.306 5.151 5.151 5.151h19.123v15.676c0 4.23 3.26 7.919 7.488 8.047 4.376.131 7.964-3.376 7.964-7.723v-16h72.821c8.534 0 15.453-6.918 15.453-15.453v-129.095c0-8.534-6.918-15.452-15.453-15.452z" fill="#fd5426"/><path d="m368 487.5c-4.142 0-7.5-3.357-7.5-7.5v-20.935c0-4.143 3.358-7.5 7.5-7.5s7.5 3.357 7.5 7.5v20.935c0 4.143-3.358 7.5-7.5 7.5z" fill="#ffc344"/><path d="m486.245 0h-15.968c.338 1.664.515 3.387.515 5.151v136.133c0 43.14-34.972 78.112-78.112 78.112h-120.165c2.387 11.756 12.78 20.604 25.24 20.604h188.491c14.223 0 25.754-11.531 25.754-25.755v-188.49c0-14.224-11.531-25.755-25.755-25.755z" fill="#68ca44"/><path d="m486.245 272h-15.968c.338 1.664.515 3.387.515 5.151v136.133c0 43.14-34.972 78.112-78.112 78.112h-120.165c2.387 11.756 12.78 20.604 25.24 20.604h188.491c14.223 0 25.754-11.531 25.754-25.755v-188.49c0-14.224-11.531-25.755-25.755-25.755z" fill="#fd5426"/><path d="m192.377 204.877h-147.877c-6.904 0-12.5-5.596-12.5-12.5v-96.754c0-6.904 5.596-12.5 12.5-12.5h147.877c6.904 0 12.5 5.596 12.5 12.5v96.755c0 6.903-5.596 12.499-12.5 12.499z" fill="#ffc344"/><path d="m192 83.123h-28.33v64.909c0 20.016-16.226 36.241-36.241 36.241h-95.429v7.727c0 7.112 5.765 12.877 12.877 12.877h147.123c7.112 0 12.877-5.765 12.877-12.877v-96c0-7.112-5.765-12.877-12.877-12.877z" fill="#feb237"/><path d="m464.547 48h-145.094c-8.535 0-15.453 6.918-15.453 15.453v32h176v-32c0-8.535-6.918-15.453-15.453-15.453z" fill="#e53950"/><path d="m480 95.453h-176v96.547c0 8.534 6.918 15.453 15.453 15.453h105.095l23.452-31.453 32-24z" fill="#f2fbff"/><path d="m464.547 48h-25.755v47.453h41.208v-32c0-8.535-6.918-15.453-15.453-15.453z" fill="#ca2e43"/><path d="m438.793 95.453v10.303c0 14.161-11.48 25.641-25.641 25.641-16.464 0-29.811 13.347-29.811 29.811 0 14.161-11.48 25.641-25.641 25.641h-53.7v5.151c0 8.534 6.918 15.453 15.453 15.453h105.095l23.452-31.453 32-24v-56.547z" fill="#dff6fd"/><path d="m424.547 207.453h40c8.534 0 15.453-6.919 15.453-15.453v-40l-32 24z" fill="#c8effe"/><path d="m424.547 207.453v-40c0-8.534 6.919-15.453 15.453-15.453h40z" fill="#fff"/><path d="m193 464h-146c-8.284 0-15-6.716-15-15v-114c0-8.284 6.716-15 15-15h146c8.284 0 15 6.716 15 15v114c0 8.284-6.716 15-15 15z" fill="#f2fbff"/><path d="m192.547 320h-25.755v87.243c0 19.967-16.187 36.154-36.154 36.154h-98.638v5.151c0 8.533 6.918 15.452 15.453 15.452h145.095c8.534 0 15.453-6.919 15.453-15.453v-113.094c-.001-8.535-6.919-15.453-15.454-15.453z" fill="#dff6fd"/><path d="m449 464h-108c-2.761 0-5-2.239-5-5v-150c0-2.761 2.239-5 5-5h108c8.284 0 15 6.716 15 15v130c0 8.284-6.716 15-15 15z" fill="#0055a3"/><path d="m448.547 304h-25.755v103.026c0 20.087-16.284 36.37-36.37 36.37h-50.422v15.604c0 2.761 2.239 5 5 5h107.547c8.534 0 15.453-6.918 15.453-15.453v-129.094c0-8.535-6.918-15.453-15.453-15.453z" fill="#004281"/><path d="m94.469 152.836c-3.953 0-7.261-3.092-7.482-7.087-.032-.579-.048-1.162-.048-1.749 0-17.369 14.131-31.5 31.5-31.5.587 0 1.169.017 1.749.049 4.136.228 7.304 3.766 7.076 7.901-.229 4.137-3.784 7.292-7.902 7.075-.306-.017-.613-.025-.922-.025-9.098 0-16.5 7.402-16.5 16.5 0 .31.009.617.026.923.228 4.136-2.939 7.674-7.076 7.901-.142.008-.282.012-.421.012z" fill="#80d261"/><path d="m118.438 175.5c-.586 0-1.17-.017-1.749-.049-4.136-.229-7.304-3.767-7.075-7.902.229-4.137 3.776-7.298 7.902-7.074.305.017.612.025.921.025 9.098 0 16.5-7.402 16.5-16.5 0-.312-.009-.623-.026-.931-.224-4.137 2.948-7.671 7.084-7.895 4.158-.207 7.671 2.948 7.895 7.084.031.577.047 1.157.047 1.741.001 17.37-14.129 31.501-31.499 31.501z" fill="#01c0fa"/><g fill="#d3e1f5"><path d="m336 60.5c-4.142 0-7.5-3.357-7.5-7.5v-16c0-4.143 3.358-7.5 7.5-7.5s7.5 3.357 7.5 7.5v16c0 4.143-3.358 7.5-7.5 7.5z"/><path d="m373.333 60.5c-4.142 0-7.5-3.357-7.5-7.5v-16c0-4.143 3.358-7.5 7.5-7.5s7.5 3.357 7.5 7.5v16c0 4.143-3.357 7.5-7.5 7.5z"/><path d="m410.667 60.5c-4.142 0-7.5-3.357-7.5-7.5v-16c0-4.143 3.358-7.5 7.5-7.5s7.5 3.357 7.5 7.5v16c0 4.143-3.358 7.5-7.5 7.5z"/><path d="m448 60.5c-4.142 0-7.5-3.357-7.5-7.5v-16c0-4.143 3.358-7.5 7.5-7.5s7.5 3.357 7.5 7.5v16c0 4.143-3.358 7.5-7.5 7.5z"/><path d="m341 327.5h-16c-4.142 0-7.5-3.357-7.5-7.5s3.358-7.5 7.5-7.5h16c4.142 0 7.5 3.357 7.5 7.5s-3.358 7.5-7.5 7.5z"/><path d="m341 364.833h-16c-4.142 0-7.5-3.357-7.5-7.5s3.358-7.5 7.5-7.5h16c4.142 0 7.5 3.357 7.5 7.5s-3.358 7.5-7.5 7.5z"/><path d="m341 402.167h-16c-4.142 0-7.5-3.357-7.5-7.5s3.358-7.5 7.5-7.5h16c4.142 0 7.5 3.357 7.5 7.5s-3.358 7.5-7.5 7.5z"/><path d="m341 439.5h-16c-4.142 0-7.5-3.357-7.5-7.5s3.358-7.5 7.5-7.5h16c4.142 0 7.5 3.357 7.5 7.5s-3.358 7.5-7.5 7.5z"/></g><path d="m368 439.5c-4.142 0-7.5-3.357-7.5-7.5v-96c0-4.143 3.358-7.5 7.5-7.5s7.5 3.357 7.5 7.5v96c0 4.143-3.358 7.5-7.5 7.5z" fill="#004281"/><path d="m197.262 320.614c-29.692 32.391-67.934 74.11-71.4 77.891-1.524 1.663-3.606 2.579-5.862 2.579s-4.338-.916-5.862-2.58l-71.4-77.891c-5.121 1.515-9.1 5.689-10.336 10.924l55.424 60.461-55.425 60.459c1.235 5.235 5.213 9.41 10.333 10.926l55.266-60.284 5.08 5.542c4.336 4.73 10.503 7.444 16.92 7.444s12.584-2.714 16.92-7.443l5.079-5.541 55.264 60.284c5.12-1.515 9.099-5.69 10.335-10.924l-55.425-60.46 55.425-60.464c-1.236-5.233-5.215-9.408-10.336-10.923z" fill="#dff6fd"/><g fill="#c8effe"><path d="m40.708 443.396-8.23 8.978c1.322 5.187 5.267 9.325 10.34 10.918l18.24-19.896z"/><path d="m166.785 407.942c-.118 6.21-1.801 12.036-4.672 17.101l35.065 38.251c5.073-1.592 9.02-5.729 10.342-10.916z"/><path d="m197.178 320.706c-9.723 10.607-20.358 22.209-30.386 33.148v22.199l40.729-44.431c-1.322-5.187-5.269-9.324-10.343-10.916z"/></g><path d="m432 359.5h-32c-4.142 0-7.5-3.357-7.5-7.5s3.358-7.5 7.5-7.5h32c4.142 0 7.5 3.357 7.5 7.5s-3.358 7.5-7.5 7.5zm7.5 24.5c0-4.143-3.358-7.5-7.5-7.5h-32c-4.142 0-7.5 3.357-7.5 7.5s3.358 7.5 7.5 7.5h32c4.142 0 7.5-3.357 7.5-7.5z" fill="#004281"/><g fill="#00366d"><path d="m439.5 384c0-4.143-3.358-7.5-7.5-7.5h-9.207v15h9.207c4.142 0 7.5-3.357 7.5-7.5z"/><path d="m432 344.5h-9.207v15h9.207c4.142 0 7.5-3.357 7.5-7.5s-3.358-7.5-7.5-7.5z"/></g></g></svg>