<svg id="Layer_1" enable-background="new 0 0 512 512" viewBox="0 0 512 512" xmlns="http://www.w3.org/2000/svg"><g><path d="m483.982 393.328-16.987-29.086c-1.286-2.202-3.643-3.554-6.192-3.554h-12.73v-56.039c10.562-3.107 18.299-12.893 18.299-24.46 0-14.042-11.424-25.466-25.465-25.466-11.566 0-21.35 7.735-24.459 18.295h-53.596v-16.48c0-6.803-5.53-12.345-12.324-12.345h-20.718c-2.873-6.967-9.738-11.872-17.732-11.872h-14.212v-17.249h47.746c10.436 0 18.922-8.486 18.922-18.911v-24.042h19.507c6.803 0 12.344-5.541 12.344-12.355v-47.325c0-6.773-5.49-12.293-12.242-12.344h-.001v-51.241c10.139-3.08 17.539-12.513 17.539-23.645 0-13.625-11.084-24.709-24.709-24.709s-24.709 11.084-24.709 24.709c0 11.132 7.4 20.565 17.539 23.645v51.239h-5.268v-11.564c0-10.426-8.486-18.922-18.922-18.922h-7.893v-5.683c0-16.304-13.264-29.567-29.567-29.567h-104.306c-16.319 0-29.595 13.264-29.595 29.567v5.683h-7.871c-10.426 0-18.922 8.496-18.922 18.922v11.565h-5.26v-51.24c10.138-3.08 17.538-12.513 17.538-23.645 0-13.625-11.084-24.709-24.708-24.709-13.625 0-24.71 11.084-24.71 24.709 0 11.132 7.401 20.565 17.54 23.645v51.239c-6.762.052-12.251 5.572-12.251 12.344v47.325c0 6.814 5.541 12.355 12.355 12.355h19.496v24.042c0 10.425 8.496 18.911 18.922 18.911h47.746v17.249h-14.201c-8.004 0-14.879 4.905-17.762 11.872h-20.697c-6.793 0-12.314 5.542-12.314 12.345v16.48h-53.628c-2.436-8.284-8.975-14.824-17.258-17.26v-56.039h6.906c2.549 0 4.906-1.353 6.192-3.554l16.986-29.086c1.305-2.234 1.305-4.997 0-7.231l-16.986-29.087c-1.997-3.419-6.388-4.572-9.807-2.576-3.42 1.997-4.572 6.388-2.576 9.807l14.875 25.472-12.799 21.917h-9.914c-.017 0-.033-.003-.05-.003s-.033.003-.05.003h-15.73l-12.8-21.917 14.876-25.472c1.996-3.419.844-7.81-2.576-9.807-3.419-1.995-7.81-.843-9.807 2.576l-16.987 29.087c-1.305 2.234-1.305 4.997 0 7.231l16.987 29.086c1.286 2.202 3.643 3.554 6.192 3.554h12.722v56.037c-10.575 3.103-18.322 12.878-18.322 24.433 0 14.058 11.437 25.495 25.494 25.495 11.554 0 21.329-7.745 24.432-18.32h53.626v16.5c0 1.939.451 3.786 1.252 5.428l13.083-13.073 13.247-13.248c1.108-1.108 2.504-1.796 3.971-2.011 1.672-.257 3.417.072 4.925 1.016l9.42 5.951 17.557 11.083c2.596-1.211 5.274-2.329 8.014-3.325l7.039-31.123c.739-3.273 3.643-5.592 6.988-5.592h42.708c3.345 0 6.249 2.319 6.988 5.592l7.029 31.123c2.74.996 5.418 2.114 8.024 3.325l17.526-11.062 9.451-5.972c1.498-.944 3.243-1.273 4.895-1.016 1.478.215 2.883.893 4.002 2.011l13.237 13.248 13.083 13.104c.811-1.652 1.262-3.509 1.262-5.459v-16.5h53.595c2.439 8.299 8.991 14.85 17.29 17.287v56.037h-6.908c-2.549 0-4.906 1.353-6.192 3.554l-16.987 29.086c-1.305 2.234-1.305 4.997 0 7.231l16.987 29.087c1.998 3.419 6.388 4.572 9.807 2.576 3.42-1.997 4.573-6.388 2.576-9.807l-14.876-25.472 12.8-21.917h25.742l12.8 21.917-14.876 25.472c-1.996 3.419-.844 7.81 2.576 9.807 1.136.663 2.381.979 3.608.979 2.465 0 4.865-1.273 6.199-3.555l16.987-29.087c1.308-2.232 1.308-4.996.003-7.229zm-101.931-278.889v43.333h-17.516v-43.333zm-252.099 43.334v-43.333h17.506v43.333zm97.195 22.051c-3.961 0-7.172-3.212-7.172-7.172s3.212-7.173 7.172-7.173h57.71c3.961 0 7.172 3.212 7.172 7.173s-3.212 7.172-7.172 7.172zm100.263-31c-3.304 2.176-7.757 1.273-9.943-2.032l-13.586-20.564-13.596 20.564c-1.385 2.083-3.664 3.212-5.992 3.212-1.355 0-2.73-.379-3.941-1.18-3.304-2.186-4.217-6.639-2.032-9.943l19.579-29.604c1.324-2.011 3.571-3.222 5.982-3.222 2.401 0 4.648 1.211 5.982 3.222l19.568 29.604c2.186 3.305 1.283 7.758-2.021 9.943zm-138.819-84.899c0-8.396 6.844-15.228 15.256-15.228h104.307c8.396 0 15.228 6.831 15.228 15.228v5.683h-134.79v-5.683zm5.935 82.868c-1.375 2.083-3.663 3.212-5.982 3.212-1.364 0-2.729-.379-3.95-1.18-3.304-2.186-4.207-6.639-2.032-9.943l19.578-29.604c1.334-2.011 3.581-3.222 5.982-3.222 2.412 0 4.659 1.211 5.982 3.222l19.579 29.604c2.176 3.304 1.273 7.758-2.032 9.943-3.304 2.176-7.747 1.273-9.933-2.032l-13.596-20.564zm33.944 68.279h55.062v17.249h-55.062z" fill="#2e3760"/><g fill="#ff695a"><path d="m340.411 365.317c-1.447-4.556-3.324-9.091-5.572-13.473-1.149-2.258-1.026-4.956.318-7.101l16.09-25.489-22.062-22.093-25.52 16.11c-2.155 1.365-4.874 1.478-7.132.308-4.228-2.196-8.763-4.084-13.473-5.592-2.412-.78-4.238-2.771-4.792-5.254l-6.649-29.43h-31.235l-6.65 29.44c-.564 2.473-2.38 4.464-4.802 5.244-4.71 1.508-9.235 3.397-13.463 5.582-2.268 1.18-4.977 1.067-7.132-.298l-24.247-15.31-.277-.174-.995-.626-16.736 16.736-5.357 5.357 16.11 25.489c1.354 2.144 1.478 4.843.318 7.101-2.227 4.341-4.115 8.886-5.603 13.504-.78 2.411-2.771 4.228-5.244 4.792l-29.409 6.67v31.215l29.409 6.649c2.473.554 4.464 2.38 5.244 4.802 1.467 4.556 3.355 9.102 5.603 13.494 1.159 2.258 1.036 4.956-.318 7.101l-16.11 25.52 22.093 22.082 25.519-16.11c2.145-1.344 4.844-1.467 7.101-.308 4.392 2.247 8.927 4.135 13.494 5.603 2.412.77 4.238 2.771 4.802 5.243l6.65 29.399h31.235l6.649-29.399c.554-2.473 2.38-4.474 4.792-5.243 4.566-1.468 9.112-3.355 13.504-5.603 2.257-1.159 4.956-1.037 7.101.308l25.52 16.11 22.062-22.082-16.09-25.53c-1.344-2.145-1.468-4.833-.318-7.091 2.278-4.423 4.146-8.958 5.572-13.463.77-2.432 2.771-4.268 5.254-4.833l29.43-6.649v-31.215l-29.43-6.67c-2.483-.564-4.485-2.4-5.254-4.823zm-84.41 87.331c-33.218 0-60.241-27.024-60.241-60.241 0-33.207 27.023-60.21 60.241-60.21s60.241 27.003 60.241 60.21c.001 33.218-27.023 60.241-60.241 60.241z"/><path d="m240.718 366.36c-2.641-2.95-7.174-3.199-10.124-.556l-23.735 21.262c-1.518 1.359-2.385 3.3-2.386 5.337-.001 2.038.866 3.979 2.382 5.34l23.735 21.292c1.37 1.229 3.08 1.833 4.786 1.833 1.965 0 3.923-.804 5.339-2.382 2.644-2.948 2.398-7.481-.549-10.125l-17.782-15.951 17.778-15.926c2.95-2.642 3.198-7.175.556-10.124z"/><path d="m271.283 366.36c-2.642 2.949-2.394 7.483.556 10.124l17.778 15.926-17.782 15.951c-2.947 2.645-3.194 7.177-.549 10.125 1.416 1.578 3.374 2.382 5.339 2.382 1.706 0 3.417-.604 4.786-1.833l23.735-21.292c1.516-1.361 2.383-3.302 2.382-5.34-.001-2.037-.868-3.978-2.386-5.337l-23.735-21.262c-2.949-2.643-7.481-2.394-10.124.556z"/><path d="m261.93 357.998c-3.903-.675-7.611 1.947-8.283 5.849l-9.424 54.712c-.672 3.903 1.946 7.612 5.848 8.283.412.071.822.105 1.226.105 3.426 0 6.456-2.463 7.058-5.954l9.424-54.712c.671-3.903-1.947-7.611-5.849-8.283z"/></g></g></svg>