<svg clip-rule="evenodd" fill-rule="evenodd" stroke-linejoin="round" stroke-miterlimit="2" viewBox="0 0 510 510" xmlns="http://www.w3.org/2000/svg"><path d="m247 102.56c-17.188-3.679-30.091-18.969-30.091-37.248 0-21.023 17.068-38.092 38.091-38.092s38.091 17.069 38.091 38.092c0 18.279-12.903 33.569-30.091 37.248v41.778c0 4.415-3.585 8-8 8s-8-3.585-8-8zm8-15.157c12.193 0 22.091-9.899 22.091-22.091 0-12.193-9.898-22.092-22.091-22.092s-22.091 9.899-22.091 22.092c0 12.192 9.898 22.091 22.091 22.091zm8 320.037c17.188 3.679 30.091 18.969 30.091 37.248 0 21.023-17.068 38.092-38.091 38.092s-38.091-17.069-38.091-38.092c0-18.279 12.903-33.569 30.091-37.248v-41.778c0-4.415 3.585-8 8-8s8 3.585 8 8zm-8 15.157c-12.193 0-22.091 9.899-22.091 22.091 0 12.193 9.898 22.092 22.091 22.092s22.091-9.899 22.091-22.092c0-12.192-9.898-22.091-22.091-22.091zm152.44-159.597h-41.778c-4.415 0-8-3.585-8-8s3.585-8 8-8h41.778c3.679-17.188 18.969-30.091 37.248-30.091 21.023 0 38.092 17.068 38.092 38.091s-17.069 38.091-38.092 38.091c-18.279 0-33.569-12.903-37.248-30.091zm15.157-8c0 12.193 9.899 22.091 22.091 22.091 12.193 0 22.092-9.898 22.092-22.091s-9.899-22.091-22.092-22.091c-12.192 0-22.091 9.898-22.091 22.091zm-320.037 8c-3.679 17.188-18.969 30.091-37.248 30.091-21.023 0-38.092-17.068-38.092-38.091s17.069-38.091 38.092-38.091c18.279 0 33.569 12.903 37.248 30.091h41.778c4.415 0 8 3.585 8 8s-3.585 8-8 8zm-15.157-8c0-12.193-9.899-22.091-22.091-22.091-12.193 0-22.092 9.898-22.092 22.091s9.899 22.091 22.092 22.091c12.192 0 22.091-9.898 22.091-22.091zm52.596-103.687h-115.587c-9.546 0-17.412-7.829-17.412-17.456v-109.445c0-9.556 7.856-17.412 17.412-17.412h128.313c9.556 0 17.412 7.856 17.412 17.412v109.445c0 6.744-3.86 12.606-9.454 15.512l39.244 39.244c14.939-12.406 34.134-19.865 55.073-19.865s40.134 7.459 55.073 19.865l46.874-46.873h-6.498c-13.74 0-24.945-11.179-24.945-24.919v-84.876c0-13.737 11.208-24.945 24.945-24.945h124.02c13.737 0 24.945 11.208 24.945 24.945v84.876c0 13.74-11.205 24.919-24.945 24.919h-6.33v26.504c0 3.265-1.984 6.202-5.012 7.421-3.029 1.219-6.495.476-8.757-1.879l-30.784-32.046h-44.012l-58.187 58.187c12.406 14.939 19.865 34.134 19.865 55.073s-7.459 40.134-19.865 55.073l65.005 65.006v-8.592c0-5.869 4.767-10.636 10.636-10.636h59.654c2.925 0 5.457 1.06 7.512 3.115.016.015.031.031.046.046 0 0 35.681 36.27 35.681 36.27 2.032 2.049 3.079 4.569 3.079 7.477v88.86c0 5.847-4.78 10.627-10.626 10.627h-95.346c-5.877 0-10.636-4.788-10.636-10.627v-93.913l-76.319-76.319c-14.939 12.406-34.134 19.865-55.073 19.865s-40.134-7.459-55.073-19.865l-39.246 39.245c5.598 2.908 9.456 8.77 9.456 15.467v109.445c0 9.627-7.866 17.456-17.412 17.456h-128.313c-9.546 0-17.412-7.829-17.412-17.456v-109.445c0-9.556 7.856-17.412 17.412-17.412h115.587l48.614-48.614c-12.406-14.939-19.865-34.134-19.865-55.073s7.459-40.134 19.865-55.073zm173.284 142.927c7.557-11.204 11.969-24.706 11.969-39.24 0-38.803-31.449-70.252-70.252-70.252s-70.252 31.449-70.252 70.252c0 14.534 4.412 28.036 11.969 39.24 6.039-15.317 17.937-27.685 32.929-34.336-6.35-6.443-10.281-15.276-10.281-24.985 0-19.606 16.029-35.635 35.635-35.635s35.635 16.029 35.635 35.635c0 9.709-3.931 18.542-10.281 24.985 14.992 6.651 26.89 19.019 32.929 34.336zm-104.062 14.053c12.295 10.571 28.29 16.959 45.779 16.959s33.484-6.388 45.779-16.959c-4.154-21.5-23.077-37.739-45.779-37.739s-41.625 16.239-45.779 37.739zm45.779-53.739c10.803 0 19.635-8.832 19.635-19.635s-8.832-19.635-19.635-19.635-19.635 8.832-19.635 19.635 8.832 19.635 19.635 19.635zm-100.863-174.918v-55.224c0-.775-.637-1.412-1.412-1.412h-128.313c-.775 0-1.412.637-1.412 1.412v63.185l30.684-23.245c3.33-2.522 8.04-2.058 10.814 1.066l20.934 23.582 38.478-35.124c1.668-1.522 3.901-2.269 6.148-2.056 2.248.213 4.301 1.366 5.653 3.174zm-131.137 28.034v26.187c0 .792.627 1.456 1.412 1.456h128.313c.785 0 1.412-.664 1.412-1.456v-27.503l-25.956-34.712-51.227 46.76c-3.261 2.976-8.325 2.746-11.302-.515-2.976-3.261-2.745-8.326.516-11.302l7.446-6.797c-6.334-7.136-16.168-18.213-16.168-18.213zm62.701-41.012c-5.735 0-10.375-4.641-10.375-10.332s4.64-10.375 10.375-10.375c5.691 0 10.332 4.684 10.332 10.375s-4.641 10.332-10.332 10.332zm255.803 50.163c0 4.922 4.022 8.919 8.945 8.919h76.545c2.177 0 4.261.887 5.769 2.458l19.376 20.17v-14.628c0-4.419 3.582-8 8-8h14.33c4.922 0 8.945-3.997 8.945-8.919v-84.876c0-4.926-4.019-8.945-8.945-8.945h-124.02c-4.926 0-8.945 4.019-8.945 8.945zm116.892-77.034c4.416 0 8 3.584 8 8 0 4.415-3.584 8-8 8h-90.388c-4.415 0-8-3.585-8-8 0-4.416 3.585-8 8-8zm0 26.89c4.416 0 8 3.585 8 8 0 4.416-3.584 8-8 8h-90.388c-4.415 0-8-3.584-8-8 0-4.415 3.585-8 8-8zm0 26.866c4.416 0 8 3.584 8 8 0 4.415-3.584 8-8 8h-90.388c-4.415 0-8-3.585-8-8 0-4.416 3.585-8 8-8zm-56.004 278.308v114.395h84.608v-81.283c-5.835-5.931-26.703-27.144-32.573-33.112zm21.792 50.543c-4.416 0-8-3.585-8-8 0-4.416 3.584-8 8-8h43.255c4.415 0 8 3.584 8 8 0 4.415-3.585 8-8 8zm0 25.148c-4.416 0-8-3.585-8-8s3.584-8 8-8h43.255c4.415 0 8 3.585 8 8s-3.585 8-8 8zm0 25.148c-4.416 0-8-3.584-8-8 0-4.415 3.584-8 8-8h43.255c4.415 0 8 3.585 8 8 0 4.416-3.585 8-8 8zm-399.772-98.003c-.775 0-1.412.637-1.412 1.412v109.445c0 .792.627 1.456 1.412 1.456h128.313c.785 0 1.412-.664 1.412-1.456v-109.445c0-.775-.637-1.412-1.412-1.412zm93.459 44.898c4.022 2.323 6.5 6.614 6.5 11.259 0 4.644-2.478 8.936-6.5 11.258l-42.292 24.417c-4.022 2.322-8.978 2.322-13 0s-6.5-6.614-6.5-11.258v-48.835c0-4.644 2.478-8.936 6.5-11.258s8.978-2.322 13 0zm-45.792 30.48 33.292-19.221-33.292-19.222z"/></svg>